<?xml version="1.0" encoding="utf-8"?>
<!-- Generator: Adobe Illustrator 19.0.0, SVG Export Plug-In . SVG Version: 6.00 Build 0)  -->
<svg version="1.1" id="Layer_1" xmlns="http://www.w3.org/2000/svg" xmlns:xlink="http://www.w3.org/1999/xlink" x="0px" y="0px"
	 viewBox="0 0 141.9 119.6" style="enable-background:new 0 0 141.9 119.6;" xml:space="preserve">
<style type="text/css">
	.st0{fill-rule:evenodd;clip-rule:evenodd;fill:#00739E;}
	.st1{fill-rule:evenodd;clip-rule:evenodd;fill:#7ED3F7;}
</style>
<g>
	<g id="XMLID_53_">
		<path id="XMLID_54_" class="st0" d="M40.1,45.8h-0.6c-4.7,0-8.5,2.3-8.5,5.2v63.3c0,2.9,3.8,5.2,8.5,5.2h0.6
			c4.7,0,8.5-2.3,8.5-5.2V51.1C48.6,48.2,44.8,45.8,40.1,45.8z M9.1,20.7H8.5c-4.7,0-8.5,3.1-8.5,7v84.8c0,3.9,3.8,7,8.5,7h0.6
			c4.7,0,8.5-3.1,8.5-7V27.7C17.5,23.9,13.7,20.7,9.1,20.7z"/>
	</g>
</g>
<g id="XMLID_28_">
	<g id="XMLID_76_">
		<path id="XMLID_78_" class="st1" d="M133.4,45.8h-0.6c-4.7,0-8.5,2.3-8.5,5.2v63.3c0,2.9,3.8,5.2,8.5,5.2h0.6
			c4.7,0,8.5-2.3,8.5-5.2V51.1C141.9,48.2,138.1,45.8,133.4,45.8z M102.3,20.8h-0.6c-4.7,0-8.5,3.1-8.5,7v84.8c0,3.9,3.8,7,8.5,7
			h0.6c4.7,0,8.5-3.1,8.5-7V27.8C110.8,23.9,107,20.8,102.3,20.8z M71.2,0h-0.6c-4.7,0-8.5,3.8-8.5,8.5v102.6c0,4.7,3.8,8.5,8.5,8.5
			h0.6c4.7,0,8.5-3.8,8.5-8.5V8.5C79.7,3.8,75.9,0,71.2,0z"/>
	</g>
</g>
</svg>
