<?xml version="1.0" encoding="utf-8"?>
<!-- Generator: Adobe Illustrator 19.0.0, SVG Export Plug-In . SVG Version: 6.00 Build 0)  -->
<svg version="1.1" id="Layer_1" xmlns="http://www.w3.org/2000/svg" xmlns:xlink="http://www.w3.org/1999/xlink" x="0px" y="0px"
	 viewBox="0 0 322.2 428.8" style="enable-background:new 0 0 322.2 428.8;" xml:space="preserve">
<style type="text/css">
	.st0{fill:#7F4815;}
	.st1{fill:#693A08;}
	.st2{fill:#F8BC97;}
	.st3{fill:#F6AB76;}
	.st4{fill:#0C0F19;}
	.st5{fill:#9D162E;}
	.st6{fill:#FFFFFF;}
	.st7{fill:#673B0E;}
	.st8{fill:#9E5F28;}
	.st9{fill:#F0A07F;}
	.st10{fill:#232120;}
	.st11{fill:#D1D2D2;}
	.st12{fill:#6BB3CA;}
	.st13{fill:#7DD2ED;}
	.st14{fill:#55514E;}
	.st15{fill:#6E645E;}
</style>
<g>
	<g>
		<path class="st0" d="M19.8,132.1c0,0-14.8,28.3-10.8,66.1c4,37.8,36,75.8,100.9,75.5L19.8,132.1z"/>
		<path class="st0" d="M72.6,93.9c0,0,10.8-66.5,103.1-66.5c0,0,42.9-2.5,35.1,34.2L72.6,93.9z"/>
		<path class="st1" d="M72.6,244.8c0,0-59.3,16.5-63.6-46.6l50.4,23L72.6,244.8z"/>
		<path class="st2" d="M163.5,56c0,0,107.5-10.7,107.5,94.7C271,256,234.3,282,159,285.4c0,0-123.3-0.7-105.3-134
			C53.7,151.4,51.9,54,163.5,56z"/>
		<path class="st3" d="M161.4,56c0,0-59.1,12.4-63.1,55.7S126.5,227,72.6,244.8c0,0-20.7-17.5-20.7-70.3
			C51.9,121.7,65.9,56.3,161.4,56z"/>
		<ellipse class="st4" cx="102" cy="194.6" rx="12.3" ry="14"/>
		<path class="st4" d="M80.8,166c0,0,4.7,9.3,11.3,12.2C92.2,178.2,83.2,180.4,80.8,166z"/>
		<path class="st4" d="M89.7,162.5c0,0,0.8,10.8,7.3,14.5C97,177,86.7,175.7,89.7,162.5z"/>
		<ellipse class="st4" cx="218.2" cy="194.6" rx="12.3" ry="14"/>
		<path class="st4" d="M239.3,166c0,0-4.7,9.3-11.3,12.2C228,178.2,237,180.4,239.3,166z"/>
		<path class="st4" d="M230.5,162.5c0,0-0.8,10.8-7.3,14.5C223.2,177,233.5,175.7,230.5,162.5z"/>
		<path class="st5" d="M148.7,218.4c0,0,4.5,7.7,12.7,7.7s13.5-7.7,13.5-7.7s3.2-3.5,3.2,0.7c0,4.2-3.7,15.8-16.5,15.8
			s-15.8-14-15.8-15.5S146.4,215.5,148.7,218.4z"/>
		<path class="st6" d="M148.7,224.2c0,0,5.2,7,11.7,8.3C160.3,232.5,152,233.7,148.7,224.2z"/>
		<path class="st7" d="M192.7,135.9c0,0,12-6.8,27.2-6.8c15.2,0,33.2,12,33.2,12s-9.8-15.8-33.3-15.8
			C219.7,125.2,202.7,125.9,192.7,135.9z"/>
		<path class="st7" d="M126,134.9c0,0-12-6.8-27.2-6.8c-15.2,0-33.2,12-33.2,12s9.8-15.8,33.3-15.8C99,124.2,116,124.9,126,134.9z"
			/>
		<path class="st8" d="M210.8,61.6c0,0,24.2-11.3,21.2-34.3S170-10,119.7,8.4c-50.3,18.3-111.3,50.3-106,102c0,0,2,13.3,11,34
			c9,20.7,6,31.7-2,33.3c-8,1.7-18-2.3-22.7-18.7c0,0,0.1,75,59.4,62.2c0,0,26.5-2.9,26-46.7c-0.6-43.8-20.3-58.8-10-90.2
			c10.3-31.3,51-52.5,72.3-54.7C169,27.5,214.9,18.2,210.8,61.6z"/>
		<path class="st8" d="M210.8,61.6c0,0,10.8-4.8,19-18.8c0,0,26.6-5.6,39.9,18.8c13.3,24.4,29.7,67.6,40,85.2
			c10.3,17.6,25.3,69.9-7.3,95.3c-32.7,25.3-62,28.3-79.5,29.7c0,0,16.1-7.5,27.3-24.1c0,0-6.8-1.9-6.8-16.3s13.3-33.7,16.3-41.7
			s11.7-23.5,9.7-42.9S264.3,84.8,210.8,61.6z"/>
	</g>
	<path class="st9" d="M138.1,281.4l52,0.5l37.8,48.5c0,0,4.7,6.6-1.7,3.8c-6.3-2.8-38.7-23.3-38.7-23.3s-5.8,11.9-5.4,17.9
		c0.4,6,14,96.5,14,96.5s1.2,7.4-2.4,1.1c-3.6-6.3-28.6-49.2-32.7-63h-3c0,0-14.1,33.3-32.6,62.6c0,0-3.8,6.7-2.8-0.2
		c1.1-6.9,15.1-97.3,15.1-97.3s0.3-5-4.5-17l-1-4.1l-19.6,5.1c0,0-8,2.1-10.2-3.7c-2.3-5.8-8.6-25.8-8.6-25.8s-1.4-4.3,2.9-1.5
		c4.3,2.9,14.9,16.2,14.9,16.2L138.1,281.4z"/>
	<path class="st10" d="M178.1,398.3l13.4-5l4.8,32c0,0,1.3,7.4-2.4,1.1C190.3,420,178.1,398.3,178.1,398.3z"/>
	<path class="st10" d="M128,392.7l13.8,4.8l-16.6,29.1c0,0-3.3,5.5-2.3-0.9C123.9,419.3,128,392.7,128,392.7z"/>
	<path class="st11" d="M144,300.6c0,0-2.3,8.3-4.7,14.8c-2.3,6.5-4.7,9.3-1.3,13c3.3,3.7,34.8,4.2,44.2,0.4c0,0,2.8-0.8,1.8-8.9
		c-1-8.1,0-19.2,0-19.2l-6.5-6.6c0,0-14.8,15.6-27-1L144,300.6z"/>
	<polygon class="st12" points="171,293 177.5,323.4 188.8,364.1 187.7,310.9 199.2,318.1 209.7,306.9 190.2,281.9 182.7,281.9 	"/>
	<polygon class="st12" points="157,293 144,321.4 130.7,362 132.5,307.3 123.5,309.6 117.8,293.9 137.6,281.7 147.7,282.4 	"/>
	<polygon class="st13" points="173.7,283.8 171,293 184,300.6 184,282.4 	"/>
	<polygon class="st13" points="154.3,283.8 157,293 144,300.6 144,282.4 	"/>
	<path class="st14" d="M140.8,329.2c0,0-20.7,61.9-21.4,82.2l17.1,3.9l21.8-52.3h3.5l20.3,52.7l17.2-4.6c0,0-15.6-73.2-19.8-81.5
		C179.4,329.6,165.3,334.1,140.8,329.2z"/>
	<path class="st15" d="M115.3,407.8c0,0,13.4,4.7,26.4,6.1v4.2c0,0-24.5-3.5-27.7-7L115.3,407.8z"/>
	<path class="st15" d="M176.7,415v3c0,0,26.3-4.7,28.2-5.8l-1.9-3.7L176.7,415z"/>
	<path class="st12" d="M157,293l-8.3,61.7c0,0-0.2,7.4-6.8,7.4c-6.7,0-11.3,0-11.3,0l0.9-21l10.4-33.2L157,293z"/>
	<path class="st12" d="M171,293l1.9,62.8c0,0-1.4,5.8,5.2,6.3c6.6,0.5,10.4,1,10.4,1l-4.2-33.8L171,293z"/>
</g>
</svg>
