<?xml version="1.0" encoding="utf-8"?>
<!-- Generator: Adobe Illustrator 19.0.0, SVG Export Plug-In . SVG Version: 6.00 Build 0)  -->
<svg version="1.1" id="Layer_1" xmlns="http://www.w3.org/2000/svg" xmlns:xlink="http://www.w3.org/1999/xlink" x="0px" y="0px"
	 viewBox="0 0 67.2 48.9" style="enable-background:new 0 0 67.2 48.9;" xml:space="preserve">
<style type="text/css">
	.st0{fill:#CACCD0;}
	.st1{fill:#DEDFE1;}
	.st2{fill:#ECF0F6;}
	.st3{fill:#FFFFFF;}
	.st4{fill:#F8FAFB;}
	.st5{fill:#ECECEE;}
</style>
<g>
	<polygon class="st0" points="50.6,0 41.6,8.1 50,16.3 67.2,16.3 	"/>
	<polygon class="st1" points="50,16.3 44.6,27.5 50,32.6 67.2,16.3 	"/>
	<polygon class="st2" points="44.6,27.5 33.2,48.9 50,32.6 	"/>
	<polygon class="st3" points="33.2,0 41.6,8.1 33.2,16.3 24.2,8.1 	"/>
	<polygon class="st4" points="33.2,16.3 50,16.3 41.6,8.1 	"/>
	<polygon class="st0" points="24.9,33 41.7,33 33.2,48.9 	"/>
	<polygon class="st3" points="41.7,33 44.6,27.5 33.2,16.3 22,27.5 24.9,33 	"/>
	<polygon class="st5" points="41.6,8.1 33.2,0 50.6,0 	"/>
	<polygon class="st5" points="33.2,16.3 50,16.3 44.6,27.5 	"/>
	<polygon class="st5" points="16.4,0 24.2,8.1 33.2,0 	"/>
	<polygon class="st5" points="16.4,16.3 33.2,16.3 22,27.5 	"/>
	<polygon class="st4" points="16.4,16.3 24.2,8.1 33.2,16.3 	"/>
	<polygon class="st0" points="16.4,16.3 0,16.3 16.4,0 24.2,8.1 	"/>
	<polygon class="st1" points="0,16.3 16.4,16.3 22,27.5 16.7,32.7 	"/>
	<polygon class="st2" points="16.7,32.7 22,27.5 33.2,48.9 	"/>
</g>
</svg>
