<?xml version="1.0" encoding="utf-8"?>
<!-- Generator: Adobe Illustrator 19.0.0, SVG Export Plug-In . SVG Version: 6.00 Build 0)  -->
<svg version="1.1" id="Layer_1" xmlns="http://www.w3.org/2000/svg" xmlns:xlink="http://www.w3.org/1999/xlink" x="0px" y="0px"
	 viewBox="0 0 58 64.3" style="enable-background:new 0 0 58 64.3;" xml:space="preserve">
<style type="text/css">
	.st0{fill:#E3B423;}
	.st1{fill:#DAA529;}
	.st2{fill:#F8D357;}
	.st3{fill:#FDE788;}
	.st4{fill:url(#SVGID_1_);}
	.st5{fill:url(#SVGID_2_);}
</style>
<g>
	<circle class="st0" cx="28.3" cy="34.7" r="23"/>
	<circle class="st1" cx="28.3" cy="34.7" r="21.3"/>
	<polygon class="st2" points="31.3,18.7 43.6,5 47.1,16.7 37,26.5 	"/>
	<polygon class="st3" points="47.1,16.7 58,21.6 42.1,33.3 37,26.5 	"/>
	<polygon class="st2" points="31.3,50.7 43.6,64.3 47.1,52.6 37,42.8 	"/>
	<polygon class="st3" points="47.1,52.6 58,47.7 42.1,36 37,42.8 	"/>
	<polygon class="st2" points="26.8,18.7 14.5,5 10.9,16.7 21,26.5 	"/>
	<polygon class="st3" points="10.9,16.7 0,21.6 15.9,33.3 21,26.5 	"/>
	<polygon class="st2" points="26.8,50.7 14.5,64.3 10.9,52.6 21,42.8 	"/>
	<polygon class="st3" points="10.9,52.6 0,47.7 15.9,36 21,42.8 	"/>
	
		<linearGradient id="SVGID_1_" gradientUnits="userSpaceOnUse" x1="111.6619" y1="340.9504" x2="138.2742" y2="367.5627" gradientTransform="matrix(0 1 -1 0 382.5342 -90.3156)">
		<stop  offset="0" style="stop-color:#F8D049"/>
		<stop  offset="0.2238" style="stop-color:#FADA70"/>
		<stop  offset="0.5333" style="stop-color:#FEEBA2"/>
		<stop  offset="0.5558" style="stop-color:#FFF0B4"/>
		<stop  offset="0.5881" style="stop-color:#FFF5C8"/>
		<stop  offset="0.6179" style="stop-color:#FFFAD5"/>
		<stop  offset="0.6424" style="stop-color:#FFFCD9"/>
		<stop  offset="0.7394" style="stop-color:#FEEB9C"/>
		<stop  offset="1" style="stop-color:#F8D049"/>
	</linearGradient>
	<circle class="st4" cx="28.3" cy="34.7" r="18.8"/>
	
		<linearGradient id="SVGID_2_" gradientUnits="userSpaceOnUse" x1="115.1943" y1="344.4835" x2="134.7416" y2="364.0307" gradientTransform="matrix(0 1 -1 0 382.5342 -90.3156)">
		<stop  offset="0" style="stop-color:#FEE78A"/>
		<stop  offset="0.157" style="stop-color:#FFEEA9"/>
		<stop  offset="0.3636" style="stop-color:#FFFCD9"/>
		<stop  offset="0.3777" style="stop-color:#FFFDE3"/>
		<stop  offset="0.3985" style="stop-color:#FFFDEC"/>
		<stop  offset="0.4278" style="stop-color:#FFFEF1"/>
		<stop  offset="0.5091" style="stop-color:#FFFEF3"/>
		<stop  offset="0.5896" style="stop-color:#FFFEF1"/>
		<stop  offset="0.622" style="stop-color:#FFFDEC"/>
		<stop  offset="0.6456" style="stop-color:#FFFDE3"/>
		<stop  offset="0.6606" style="stop-color:#FFFCD9"/>
		<stop  offset="1" style="stop-color:#FEE78A"/>
	</linearGradient>
	<circle class="st5" cx="28.3" cy="34.7" r="13.8"/>
</g>
<g id="star.psd_2_">
	
		<image style="overflow:visible;" width="186" height="217" id="star_2_" xlink:href="7430954C.png"  transform="matrix(0.1613 0 0 0.1613 18.2109 0)">
	</image>
</g>
</svg>
