<?xml version="1.0" encoding="utf-8"?>
<!-- Generator: Adobe Illustrator 19.0.0, SVG Export Plug-In . SVG Version: 6.00 Build 0)  -->
<svg version="1.1" id="Layer_1" xmlns="http://www.w3.org/2000/svg" xmlns:xlink="http://www.w3.org/1999/xlink" x="0px" y="0px"
	 viewBox="-234 337.4 141.9 119.6" style="enable-background:new -234 337.4 141.9 119.6;" xml:space="preserve">
<style type="text/css">
	.st0{fill:#FFFFFF;}
</style>
<g>
	<g id="XMLID_53_">
		<path id="XMLID_54_" class="st0" d="M-193.9,383.2h-0.6c-4.7,0-8.5,2.3-8.5,5.2v63.3c0,2.9,3.8,5.2,8.5,5.2h0.6
			c4.7,0,8.5-2.3,8.5-5.2v-63.2C-185.4,385.6-189.2,383.2-193.9,383.2z M-224.9,358.1h-0.6c-4.7,0-8.5,3.1-8.5,7v84.8
			c0,3.9,3.8,7,8.5,7h0.6c4.7,0,8.5-3.1,8.5-7v-84.8C-216.5,361.3-220.3,358.1-224.9,358.1z"/>
	</g>
</g>
<g id="XMLID_28_">
	<g id="XMLID_76_">
		<path id="XMLID_78_" class="st0" d="M-100.6,383.2h-0.6c-4.7,0-8.5,2.3-8.5,5.2v63.3c0,2.9,3.8,5.2,8.5,5.2h0.6
			c4.7,0,8.5-2.3,8.5-5.2v-63.2C-92.1,385.6-95.9,383.2-100.6,383.2z M-131.7,358.2h-0.6c-4.7,0-8.5,3.1-8.5,7V450
			c0,3.9,3.8,7,8.5,7h0.6c4.7,0,8.5-3.1,8.5-7v-84.8C-123.2,361.3-127,358.2-131.7,358.2z M-162.8,337.4h-0.6
			c-4.7,0-8.5,3.8-8.5,8.5v102.6c0,4.7,3.8,8.5,8.5,8.5h0.6c4.7,0,8.5-3.8,8.5-8.5V345.9C-154.3,341.2-158.1,337.4-162.8,337.4z"/>
	</g>
</g>
</svg>
