<?xml version="1.0" encoding="utf-8"?>
<!-- Generator: Adobe Illustrator 19.0.0, SVG Export Plug-In . SVG Version: 6.00 Build 0)  -->
<svg version="1.1" id="Layer_1" xmlns="http://www.w3.org/2000/svg" xmlns:xlink="http://www.w3.org/1999/xlink" x="0px" y="0px"
	 viewBox="0 0 383.7 56.1" style="enable-background:new 0 0 383.7 56.1;" xml:space="preserve">
<style type="text/css">
	.st0{fill:#949CA1;}
	.st1{fill:#F78E1E;}
	.st2{fill:#00AFEF;}
</style>
<g>
	<path class="st0" d="M44.9,25.1H13c-4.5,0-6.5-5-6.5-9.7c0-4.6,2-9.5,6.4-9.5h38.8c1.6,0,2.9-1.3,2.9-2.9c0-1.6-1.3-2.9-2.9-2.9
		H12.8c-3.8,0-7.1,1.8-9.3,5C1.7,8,0.7,11.6,0.7,15.5c0,7.7,4.3,15.4,12.4,15.4h31.5c4.6,0,6.6,5,6.6,9.7c0,4.5-2,9.2-6.4,9.2H4.3
		c-1.6,0-2.8,1.3-2.8,2.9c0,1.6,1.3,2.9,2.8,2.9h40.4c3.8,0,7.1-1.8,9.4-5c1.9-2.7,2.9-6.4,2.9-10.3C56.9,32.8,52.8,25.1,44.9,25.1z
		"/>
	<path class="st0" d="M99.2,0.2H49.9c-1.6,0-2.9,1.3-2.9,2.9C47,4.7,48.3,6,49.9,6h21.8c0,5.8,0,14.2,0,22.5c0,9.4,0,18.7,0,24.5
		c0,1.6,1.3,2.8,2.9,2.8c1.6,0,2.9-1.3,2.9-2.8V6h21.7c1.6,0,2.9-1.3,2.9-2.9C102.1,1.5,100.8,0.2,99.2,0.2z"/>
	<path class="st0" d="M148.7,0.2c-1.6,0-2.9,1.3-2.9,2.9v40.2c0,3.3-3.2,6.5-6.6,6.5h-30.5c-3.3,0-6.6-3.2-6.6-6.5V3.1
		c0-1.6-1.3-2.9-2.9-2.9c-1.6,0-2.9,1.3-2.9,2.9v40.2c0,6.4,5.9,12.3,12.3,12.3h30.6c6.5,0,12.3-5.8,12.3-12.3V3.1
		C151.6,1.5,150.3,0.2,148.7,0.2z"/>
	<path class="st0" d="M197.9,0.2h-39c-2.2,0-3.9,1.7-3.9,4v47.5c0,2.2,1.7,4,3.9,4h39c6.5,0,12.4-5.9,12.4-12.3V12.6
		C210.4,6.2,204.3,0.2,197.9,0.2z M198,49.8c-6.6,0-13.1,0-19.6,0c-5.8,0-11.7,0-17.6,0V28.6V6h37.1c3.3,0,6.6,3.3,6.6,6.7v30.6
		C204.5,46.6,201.3,49.8,198,49.8z"/>
	<path class="st1" d="M323.7,50h-21.3V6.1h21.3c1.6,0,2.9-1.3,2.9-2.9c0-1.6-1.3-2.9-2.9-2.9h-48.2c-0.9,0-1.6,0.3-2.2,1
		c-0.5,0.5-0.7,1.2-0.7,2c0,1.6,1.2,2.9,2.8,2.9h21.3V50h-21.3c-1.6,0-2.8,1.3-2.8,2.9c0,0.7,0.3,1.4,0.7,2c0.5,0.6,1.3,1,2.2,1
		h48.2c1.6,0,2.9-1.3,2.9-2.9C326.6,51.3,325.4,50,323.7,50z"/>
	<path class="st2" d="M268.3,50.8l-25.6-24.7l21-21.1c0.8-0.8,1.1-2.1,0.6-3.1C264,0.7,262.9,0,261.7,0c-0.8,0-1.5,0.3-2,0.9
		l-22.5,22.7L214.7,0.9c-0.6-0.6-1.3-0.9-2-0.9c-1.2,0-2.3,0.7-2.7,1.8c-0.4,1.1-0.2,2.3,0.6,3.1l23.7,23.9v24
		c0,1.6,1.3,2.8,2.9,2.8c1.6,0,2.9-1.3,2.9-2.8V31.4L264.3,55c0.6,0.5,1.3,0.8,2,0.8c1.2,0,2.2-0.7,2.7-1.8
		C269.5,52.9,269.2,51.7,268.3,50.8z"/>
	<path class="st1" d="M382.8,51.1l-25.6-24.7l25.4-21c0.9-0.8,1.3-2,0.8-3.1c-0.4-1.2-1.5-2-2.8-2c-0.7,0-1.3,0.2-1.9,0.7
		l-43.9,36.3V3.2c0-1.7-1.3-3-2.9-3c-1.6,0-2.9,1.3-2.9,3V53c0,1.7,1.3,3,2.9,3c1.6,0,2.9-1.3,2.9-3v-8.3L352.7,30l26,25.2
		c0.6,0.5,1.3,0.8,2,0.8c1.2,0,2.2-0.7,2.7-1.8C384,53.2,383.7,52,382.8,51.1z"/>
</g>
</svg>
