<?xml version="1.0" encoding="utf-8"?>
<!-- Generator: Adobe Illustrator 19.0.0, SVG Export Plug-In . SVG Version: 6.00 Build 0)  -->
<svg version="1.1" id="Layer_1" xmlns="http://www.w3.org/2000/svg" xmlns:xlink="http://www.w3.org/1999/xlink" x="0px" y="0px"
	 viewBox="0 0 329.4 504.8" style="enable-background:new 0 0 329.4 504.8;" xml:space="preserve">
<style type="text/css">
	.st0{fill:#fff;}
	.st1{fill:#2AAAE2;}
	.st2{fill:#272361;}
	.st3{fill:#EEB08B;}
	.st4{fill:#FCC6A2;}
	.st5{fill:#6C0B22;}
	.st6{fill:#ED6E6D;}
	.st7{fill:#ED797F;}
	.st8{fill:#24100C;}
	.st9{fill:#E29D26;}
	.st10{fill:#F8C038;}
	.st11{fill:#BDBEC1;}
	.st12{fill:#404041;}
</style>
<g>
	<path id="XMLID_2_" class="st0" d="M184.3,332.5l11.9-3.4c0,0,34.4,30,37,36.7c2.7,6.8-4.7,14.8-17.5,24.8c0,0,4.4,3.3,0.3,5.7
		c-4.1,2.3-7.8,0-12.4-4.7c-4.7-4.7-9.3-5-6.3-8.3s5.7-1,5.7-1l2.7-5.3l-12-1.3l3.3,54.3c0,0-4.6,5.7-43,5.7s-41-7.3-41-7.3
		l5.7-51.8c0,0-10.4,7.2-46.7,3.2c0,0,2,4.7-2.3,4.7c-4.3,0-5.7-0.3-5.7-11c0-10.7,0.3-11.2,3.7-11.2c3.3,0,4.7,1.2,4.7,3.5
		c0,0,24.5-9.2,46.4-35.6L184.3,332.5z"/>
	<polygon id="XMLID_3_" class="st1" points="174.2,334.6 154,371.6 135.3,334 	"/>
	<path id="XMLID_94_" class="st2" d="M147.9,344.6c0,0-3.8-3.9-4.8-9.3c-1-5.4,21.8,0.7,21.8,0.7s-2.3,7.1-4.9,8.6
		C157.4,346.1,147.9,344.6,147.9,344.6z"/>
	<path class="st2" d="M159.3,341.5c0,0,3.7,12.4-5.3,12.4s-5.3-12.4-5.3-12.4H159.3z"/>
	<ellipse id="XMLID_97_" class="st3" cx="154" cy="334.6" rx="7.3" ry="10"/>
	
		<ellipse transform="matrix(-0.9799 -0.1996 0.1996 -0.9799 533.2486 502.2852)" class="st3" cx="291.9" cy="224.3" rx="24.3" ry="34.4"/>
	
		<ellipse transform="matrix(-0.9735 0.2286 -0.2286 -0.9735 100.5011 436.8785)" class="st3" cx="24.9" cy="224.3" rx="24.3" ry="34.4"/>
	<path class="st4" d="M155.9,336.7c0,0,66-0.9,103-51s86-253.1-103-253.1s-126,217.2-97,259.1C87.9,333.6,155.9,336.7,155.9,336.7z"
		/>
	<path class="st5" d="M156.4,296.2c0,0,13.1,0.5,19.5-12.7c6.3-13.1-1.8-14.5-4.5-14.5c-2.7,0-4.1,4.5-15,4.5
		c-10.9,0-9.4-4.5-15-4.5s-7.9,6.9-4.7,14.5C140,291.1,147.2,296.4,156.4,296.2z"/>
	<path class="st6" d="M156,292.1c0,0,12.2,0,12.2-7.2c0-7.2-12.2-5.9-12.2-5.9s-11.3-0.1-11.3,6.5C144.6,292.1,156,292.1,156,292.1z
		"/>
	<ellipse class="st7" cx="227.1" cy="277" rx="16.2" ry="11"/>
	<ellipse class="st7" cx="85.8" cy="277" rx="16.2" ry="11"/>
	<ellipse id="XMLID_99_" class="st8" cx="206.9" cy="247.9" rx="12.3" ry="14.8"/>
	<ellipse class="st8" cx="106.4" cy="247.9" rx="12.3" ry="14.8"/>
	<path class="st8" d="M233.4,202.1c0,0-9.8-7.7-23.6-3.9c0,0,1.1-6,10.6-6C230,192.2,233.4,202.1,233.4,202.1z"/>
	<path class="st9" d="M46.4,147.2c0,0-4.5,34.7,0,77c0,0-15.4-9.9-17.4-19.8c-2-9.9-12.5-40.9,1.5-91.9L46.4,147.2z"/>
	<path class="st9" d="M267.6,224.3c0,0,17.8-6.1,21.3-14.6s8-33,4-61l-25.3,10.5C267.6,159.1,272.3,193.9,267.6,224.3z"/>
	<path class="st8" d="M82.1,202.1c0,0,9.8-7.7,23.6-3.9c0,0-1.1-6-10.6-6C85.6,192.2,82.1,202.1,82.1,202.1z"/>
	<path id="XMLID_98_" class="st10" d="M21.9,93.1c0,0-0.5,29,32,62.5s64.5,56.6,134,46.5c0,0-30.6-19-43.3-39c0,0,15.3,17,62.3,17
		c47,0,99.5-20.5,114.5-47c0,0-17,4.5-30.5-1.5c0,0,28.5-12,38.5-38.5c0,0-13.5-1-51-32s-82-63-149.5-34c0,0,13-17.5,24-27
		c0,0-70.1-5.4-85.3,57.5c0,0-1.2-16,4.8-30.5C72.4,27.1,19.4,54.1,21.9,93.1z"/>
	<polygon class="st2" points="156.8,353.9 158.5,363.3 154,371.6 149.6,362.7 151.2,353.3 154,350.1 156.4,350.1 	"/>
	<polygon class="st11" points="184.3,332.5 154.1,376.4 154,371.6 174.2,334.6 	"/>
	<polygon class="st11" points="154.1,376.4 154,371.6 135.3,334 126.4,332.1 	"/>
	<polygon id="XMLID_100_" class="st11" points="183.5,353.6 173.5,353.6 173.5,358.6 178.5,362.1 183.5,358.6 	"/>
	<path class="st12" d="M192.1,432.2l-2.4,50.2c0,0-5.3-4.5-22,0l-6.5-46.8L192.1,432.2z"/>
	<path class="st12" d="M121.2,432.2l2.4,50.2c0,0,5.2-4.5,22,0l6.5-46.8L121.2,432.2z"/>
	<path d="M189.7,482.4c0,0-3.3-3.5-10.8-3.5s-11.3,3.5-11.3,3.5s-12.3,14.3,11,14.3S189.7,482.4,189.7,482.4z"/>
	<path d="M145.7,482.4c0,0-3.3-3.5-10.8-3.5c-7.5,0-11.3,3.5-11.3,3.5s-12.3,14.3,11,14.3S145.7,482.4,145.7,482.4z"/>
	<path class="st4" d="M64,367.6c0,0-12.7-3-12.7,4s12.7,7.3,12.7,7.3L64,367.6z"/>
	<path class="st4" d="M208.4,395.7c0,0-5.5,5.2-11.2,2.6c-5.7-2.7,2.7-9.7,2.7-9.7l7,6"/>
</g>
</svg>
