<?xml version="1.0" encoding="utf-8"?>
<!-- Generator: Adobe Illustrator 17.0.0, SVG Export Plug-In . SVG Version: 6.00 Build 0)  -->
<!DOCTYPE svg PUBLIC "-//W3C//DTD SVG 1.1//EN" "http://www.w3.org/Graphics/SVG/1.1/DTD/svg11.dtd">
<svg version="1.1" id="Layer_1" xmlns="http://www.w3.org/2000/svg" xmlns:xlink="http://www.w3.org/1999/xlink" x="0px" y="0px"
	 width="166px" height="141.001px" viewBox="0 0 166 141.001" enable-background="new 0 0 166 141.001" xml:space="preserve">
<g>
	<path fill="#44C6EB" d="M143,84.001v35H23v-35H0v49.8c0,3.977,2.734,7.2,6.711,7.2h151.6c3.977,0,7.69-3.224,7.69-7.2v-49.8H143z"
		/>
	<path fill="#44C6EB" d="M78.834,2.065c0,0,1.406-2.065,3.654-2.065c2.752,0,3.693,2.065,3.693,2.065s29.127,35.604,30.252,36.886
		c1.125,1.281,1.1,2.316,1.1,2.316c0,1.988-1.605,3.734-3.594,3.734H99v49.131c0,1.988-1.123,3.869-3.111,3.869H69.088
		C67.1,98.001,65,96.12,65,94.132V45.001H51.088c-1.988,0-3.6-1.746-3.6-3.734c0,0-0.031-0.968,1.094-2.249
		C49.707,37.736,78.834,2.065,78.834,2.065z"/>
</g>
</svg>
