<?xml version="1.0" standalone="no"?>
<!DOCTYPE svg PUBLIC "-//W3C//DTD SVG 1.1//EN" "http://www.w3.org/Graphics/SVG/1.1/DTD/svg11.dtd" >
<svg xmlns="http://www.w3.org/2000/svg">
<metadata>Generated by IcoMoon</metadata>
<defs>
<font id="icomoon" horiz-adv-x="1024">
<font-face units-per-em="1024" ascent="960" descent="-64" />
<missing-glyph horiz-adv-x="1024" />
<glyph unicode="&#x20;" horiz-adv-x="512" d="" />
<glyph unicode="&#xe900;" glyph-name="icon_close" d="M321.6 193.6c12.48-12.48 32.768-12.48 45.248 0l177.152 177.152 177.152-177.152c12.48-12.48 32.768-12.48 45.248 0s12.48 32.768 0 45.248l-177.152 177.152 177.152 177.152c12.48 12.48 12.48 32.768 0 45.248s-32.768 12.48-45.248 0l-177.152-177.152-177.152 177.152c-12.48 12.48-32.768 12.48-45.248 0s-12.48-32.768 0-45.248l177.152-177.152-177.152-177.152c-12.48-12.48-12.48-32.768 0-45.248z" />
<glyph unicode="&#xe901;" glyph-name="icon_cog" d="M880.832 554.176c-8.064 28.032-19.008 54.72-32.896 79.744l63.616 133.824c-23.616 29.44-50.368 56.192-79.808 79.808l-133.824-63.616c-24.96 13.824-51.712 24.832-79.744 32.896l-49.792 139.904c-18.496 2.048-37.312 3.264-56.384 3.264s-37.888-1.216-56.384-3.264l-49.792-139.904c-27.968-8.064-54.72-19.072-79.68-32.896l-133.888 63.616c-29.44-23.616-56.192-50.368-79.808-79.808l63.616-133.824c-13.824-24.96-24.832-51.712-32.896-79.744l-139.904-49.792c-2.048-18.496-3.264-37.312-3.264-56.384s1.216-37.888 3.264-56.384l139.968-49.792c8.064-28.032 19.008-54.72 32.896-79.744l-63.616-133.824c23.616-29.44 50.368-56.256 79.808-79.808l133.824 63.616c24.96-13.824 51.712-24.832 79.744-32.896l49.792-139.968c18.432-1.984 37.248-3.2 56.32-3.2s37.888 1.216 56.384 3.264l49.792 139.968c28.032 8.064 54.72 19.008 79.744 32.896l133.824-63.616c29.44 23.616 56.256 50.368 79.808 79.808l-63.616 133.824c13.824 24.96 24.832 51.712 32.896 79.744l139.968 49.792c1.984 18.432 3.2 37.248 3.2 56.32s-1.216 37.888-3.264 56.384l-139.904 49.792zM512 192c-141.376 0-256 114.624-256 256s114.624 256 256 256 256-114.624 256-256c0-141.376-114.624-256-256-256zM384 448c0-70.692 57.308-128 128-128s128 57.308 128 128c0 70.692-57.308 128-128 128s-128-57.308-128-128z" />
<glyph unicode="&#xe902;" glyph-name="icon_chat_alt" d="M893.12 582.72c5.632-25.344 8.896-51.392 8.896-78.144 0-206.592-175.36-378.816-406.272-415.808 48.832-19.712 103.552-31.232 161.856-31.232 54.976 0 106.88 10.112 153.728 27.712 59.328-20.224 124.096-25.472 177.664-25.472-27.84 33.408-47.168 66.176-60.992 94.976 59.392 52.992 96 123.2 96 200.512 0 91.392-51.008 172.864-130.88 227.456zM47.104 146.624c5.568-10.56 16.512-17.152 28.352-17.152 0.512 0 1.088 0 1.536 0.064 33.856 1.6 101.184 24.064 172.48 69.312 38.144-6.72 123.584-19.392 153.408-19.392 225.088 0 401.344 156.736 401.344 356.864 0 196.8-179.968 356.864-401.344 356.864s-401.216-160-401.216-356.8c0-91.584 40.32-180.096 111.296-246.336-15.936-38.784-37.056-75.456-62.848-109.056-7.616-9.856-8.768-23.296-3.008-34.368zM65.664 536.384c0 161.472 151.296 292.864 337.344 292.864s337.344-131.392 337.344-292.864c0-166.912-145.024-292.864-337.344-292.864-25.28 0-125.888 14.656-153.536 20.48-8.448 1.664-17.216 0.128-24.256-4.672-27.456-18.176-53.312-31.936-75.84-42.048 12.224 22.976 22.784 46.784 31.616 71.36 4.544 12.736 0.64 26.944-9.728 35.52-68.096 56-105.6 131.392-105.6 212.224z" />
<glyph unicode="&#xe903;" glyph-name="icon_contacts" d="M64 960c-35.328 0-64-28.672-64-64v-896c0-35.328 28.672-64 64-64h64v1024h-64zM832 960h-640v-1024h640c35.328 0 64 28.672 64 64v896c0 35.328-28.672 64-64 64zM540.48 713.344c53.504 0 96.832-43.392 96.832-96.832 0-53.504-43.392-96.896-96.832-96.896-53.504 0-96.896 43.392-96.896 96.896s43.392 96.832 96.896 96.832zM384 268.352c0 117.376 70.976 212.48 158.464 212.48s158.464-95.168 158.464-212.48-316.928-117.312-316.928 0zM960 896h64v-192h-64zM960 640h64v-192h-64zM960 384h64v-192h-64z" />
<glyph unicode="&#xe904;" glyph-name="icon_group" horiz-adv-x="986" d="M431.443 805.913c0 82.467-71.62 154.087-154.087 154.087s-154.087-71.62-154.087-154.087c0-82.467 71.62-154.087 154.087-154.087s154.087 71.62 154.087 154.087zM539.304 220.383c0 246.539-127.954 369.809-269.652 369.809s-269.652-123.27-269.652-369.809c0-168.879 539.304-168.879 539.304 0zM724.208 531.947c82.467 0 154.087 71.62 154.087 154.087s-71.62 154.087-154.087 154.087-154.087-71.62-154.087-154.087 71.62-154.087 154.087-154.087zM716.504 470.312c-42.59 0-83.392-12.512-120.373-34.824 22.373-60.156 35.625-131.467 35.625-215.105 0-83.022-55.348-147.677-150.327-184.658 117.784-99.725 504.727-78.461 504.727 64.778 0 246.539-127.954 369.809-269.652 369.809z" />
<glyph unicode="&#xe905;" glyph-name="icon_calendar" d="M1020.224 780.032c-8.064 26.048-31.488 45.312-60.224 45.312h-64v-99.328c0-52.928-43.072-96-96-96s-96 43.072-96 96v99.328h-384.32v-99.328c0-52.928-43.072-96-96-96s-96 43.072-96 96v99.328h-63.68c-28.736 0-52.16-19.264-60.224-45.312h-3.776v-780.032c0-35.328 28.672-64 64-64h896c35.328 0 64 28.672 64 64v780.032h-3.776zM960 0h-896v512h896v-512zM223.68 694.016c17.664 0 32 14.336 32 32v201.984c0 17.664-14.336 32-32 32s-32-14.336-32-32v-201.984c0-17.664 14.336-32 32-32zM800 694.016c17.664 0 32 14.336 32 32v201.984c0 17.664-14.336 32-32 32s-32-14.336-32-32v-201.984c0-17.664 14.336-32 32-32z" />
<glyph unicode="&#xe906;" glyph-name="double-triangle" d="M534.029 18.27c0 0 0 3.153 0 0l220.312 245.489c12.592 12.592 12.592 34.619 0 50.353v0c-6.29 6.29-12.592 9.443-22.029 9.443h-440.609c-9.443 0-15.733-3.153-22.029-12.592v0c-12.592-12.592-12.592-34.619 0-50.353l220.312-245.489c12.592-9.443 31.467-9.443 44.062 3.153zM489.971 877.73c0 0 0-3.153 0 0l-220.312-245.489c-12.592-12.592-12.592-34.619 0-50.353v0c6.29-6.29 12.592-9.443 22.029-9.443h440.609c9.443 0 15.733 3.153 22.029 12.592v0c12.592 12.592 12.592 34.619 0 50.353l-220.312 245.489c-12.592 9.443-31.467 9.443-44.062-3.153z" />
<glyph unicode="&#xe907;" glyph-name="arrow_triangle-down" d="M533.824 330.432c0.32 0.384 0.448 0.896 0.768 1.28l223.424 246.848c12.48 13.888 12.48 36.416 0 50.304-0.128 0.128-0.256 0.192-0.384 0.256-5.76 6.72-13.824 10.88-22.784 10.88h-446.912c-9.152 0-17.28-4.416-23.104-11.264l-0.128 0.128c-12.48-13.888-12.48-36.416 0-50.304l223.936-248.128c12.48-13.888 32.704-13.888 45.184 0z" />
<glyph unicode="&#xe908;" glyph-name="icon_comment_alt" d="M60.736 19.776c5.248-11.264 16.576-18.432 28.992-18.432 91.84 0 169.536 22.336 257.792 74.368 42.816-6.784 127.36-15.168 164.48-15.168 280.192 0 508.096 187.072 508.096 417.088s-227.904 417.024-508.096 417.024-508.096-187.008-508.096-417.024c0-108.416 52.288-213.184 144.32-290.816-20.864-47.36-48.704-92.032-83.008-132.928-7.936-9.6-9.728-22.912-4.48-34.112zM67.904 477.632c0 194.688 199.232 353.088 444.096 353.088s444.096-158.4 444.096-353.088-199.232-353.088-444.096-353.088c-36.736 0-132.352 9.856-164.672 16.128-7.808 1.408-15.936-0.064-22.72-4.096-59.648-36.48-111.68-57.344-167.36-66.176 24 36.352 43.968 74.752 59.52 114.752 5.184 13.376 0.96 28.48-10.496 37.12-89.28 67.584-138.368 158.336-138.368 255.36z" />
<glyph unicode="&#xe909;" glyph-name="icon_search2" d="M0 539.324c0-227.993 184.808-412.801 412.801-412.801 98.12 0 188.174 34.421 259.048 91.578l272.83-272.83c17.147-17.147 45.027-17.147 62.174 0s17.147 45.027 0 62.174l-272.83 272.83c57.157 70.875 91.578 160.929 91.578 259.048 0 227.993-184.808 412.801-412.801 412.801s-412.801-184.808-412.801-412.801zM762.094 539.324c0-192.619-156.674-349.293-349.293-349.293s-349.293 156.674-349.293 349.293 156.674 349.293 349.293 349.293 349.293-156.674 349.293-349.293z" />
<glyph unicode="&#xe90a;" glyph-name="icon_house_alt" horiz-adv-x="1032" d="M51.968 390.976l76.032 60.8v-451.776c0-35.328 28.672-64 64-64h192c35.328 0 64 28.672 64 64v256h128v-256c0-35.328 28.672-64 64-64h192c35.328 0 64 28.672 64 64v451.776l76.032-60.8c5.888-4.672 12.928-6.976 19.968-6.976 9.408 0 18.688 4.096 25.024 12.032 11.008 13.824 8.768 33.92-4.992 44.992l-480 384c-11.712 9.344-28.288 9.344-40 0l-172.032-137.6v80.576c0 35.328-28.672 64-64 64s-64-28.672-64-64v-182.976l-179.968-144c-13.76-11.072-16-31.168-4.992-44.992s31.104-16.064 44.928-5.056zM512 759.040l320-256v-503.040h-192v320h-256v-320h-192v502.976l320 256.064z" />
<glyph unicode="&#xe90b;" glyph-name="bell" horiz-adv-x="922" d="M491.158 808.209c28.707 0 83.367-4.719 128.197-36.571 53.088-37.751 80.221-107.748 80.221-206.058 0-237.911 66.065-353.131 123.478-412.117h-725.137c57.806 58.986 124.657 174.206 124.657 412.117 0 98.31 27.134 167.914 80.614 205.665 44.829 31.853 99.883 36.965 128.983 36.965 12.19 0 20.055-0.786 21.628-0.786l7.865-0.786 7.865 0.786c1.966 0 9.831 0.786 21.628 0.786zM491.158 878.992c-14.943 0-25.561-1.18-29.493-1.573-3.932 0.393-14.55 1.573-29.493 1.573-79.041 0-281.167-27.92-281.167-312.233 0-353.917-154.937-393.241-154.937-393.241v-90.445h924.117v90.445c0 0-151.005 39.324-151.005 393.241 0 284.313-199.373 312.233-278.022 312.233v0zM538.74 885.677c0-42.35-34.332-76.682-76.682-76.682s-76.682 34.332-76.682 76.682c0 42.35 34.332 76.682 76.682 76.682s76.682-34.332 76.682-76.682zM462.058 142.058c-81.401 0-147.465 22.808-147.465-58.593s66.065-147.465 147.465-147.465 147.465 66.065 147.465 147.465c0 81.401-66.065 58.593-147.465 58.593zM357.849 39.816h51.121c-3.932-35.392 51.121-79.041 51.121-79.041-71.177 0-102.243 79.041-102.243 79.041z" />
<glyph unicode="&#xe90c;" glyph-name="arrow_carrot-right" d="M441.6 185.728c12.48-12.48 32.768-12.48 45.248 0l207.552 207.552c6.272 6.272 9.408 14.528 9.344 22.72 0 8.256-3.072 16.448-9.344 22.72l-207.552 207.552c-12.48 12.48-32.768 12.48-45.248 0s-12.48-32.768 0-45.248l185.024-185.024-185.024-185.024c-12.48-12.48-12.48-32.768 0-45.248z" />
<glyph unicode="&#xe90d;" glyph-name="credit" horiz-adv-x="921" d="M842.937 960h-764.968c-43.316 0-77.97-34.653-77.97-77.97v-207.919c0 26.856 21.658 48.514 48.514 48.514h123.019v30.321c0 26.856 21.658 48.514 48.514 48.514h479.080c26.856 0 48.514-21.658 48.514-48.514v-432.298c0-26.856-21.658-48.514-48.514-48.514h-478.213c-26.856 0-48.514 21.658-48.514 48.514v130.816h169.8v-81.435l271.161 167.201-272.027 167.201v-81.435h-292.819c-26.856 0-48.514-21.658-48.514-48.514v-382.917c0-43.316 34.653-77.97 77.97-77.97h243.438v-177.597l304.948 177.597h216.582c43.316 0 77.97 34.653 77.97 77.97v690.464c0 43.316-34.653 77.97-77.97 77.97z" />
<glyph unicode="&#xe90e;" glyph-name="doller" horiz-adv-x="1023" d="M510.077-64c-283.119 0-513.154 230.035-513.154 513.154s230.035 513.154 513.154 513.154c283.119 0 513.154-230.035 513.154-513.154s-230.035-513.154-513.154-513.154zM510.077 900.76c-249.268 0-451.606-202.338-451.606-451.606s202.338-451.606 451.606-451.606c249.268 0 451.606 202.338 451.606 451.606s-202.338 451.606-451.606 451.606zM510.077 68.328c-210.032 0-380.826 170.795-380.826 380.826s170.795 380.826 380.826 380.826c210.032 0 380.826-170.795 380.826-380.826s-170.795-380.826-380.826-380.826zM510.077 768.433c-176.18 0-319.279-143.098-319.279-319.279s143.098-319.279 319.279-319.279c176.18 0 319.279 143.098 319.279 319.279s-143.098 319.279-319.279 319.279zM464.685 374.527v-9.232c0-43.853 16.926-66.164 53.085-66.164 33.082 0 49.238 25.388 49.238 52.316 0 37.698-16.926 54.624-46.161 63.856l-35.39 13.848c-46.93 20.003-67.702 47.699-67.702 99.246 0 65.394 40.006 102.323 100.784 102.323 83.089 0 91.552-57.701 91.552-94.63v-8.463h-51.546v7.693c0 33.082-13.079 52.316-45.391 52.316-22.311 0-43.853-13.848-43.853-52.316 0-30.774 13.848-46.161 48.469-60.778l35.39-13.848c46.161-18.464 66.164-46.161 66.164-95.399 0-76.935-41.545-108.478-107.708-108.478-80.781 0-98.476 60.009-98.476 110.017v8.463h51.546zM492.382 683.035h46.161v-69.241h-46.161v69.241zM492.382 259.895h46.161v-69.241h-46.161v69.241z" />
<glyph unicode="&#xe90f;" glyph-name="envelop" horiz-adv-x="1366" d="M1340.276 934.331c16.501-16.501 25.669-36.67 25.669-59.588v-853.486c0-22.919-8.251-43.087-25.669-59.588-16.501-16.501-36.67-25.669-59.588-25.669h-1195.431c-22.919 0-43.087 8.251-59.588 25.669-16.501 16.501-25.669 36.67-25.669 59.588v853.486c0 22.919 8.251 43.087 25.669 59.588 16.501 17.418 36.67 25.669 59.588 25.669h1195.431c22.919 0 43.087-8.251 59.588-25.669zM85.257 874.743v-294.274l597.715-408.867 594.965 410.7 2.75-2.75v295.191h-1195.431zM413.45 252.276l-328.193 223.685v-393.282l328.193 169.597zM146.679 21.257h1072.587l-339.194 183.348-197.099-133.844-197.099 132.927-339.194-182.432zM1280.688 82.679v398.782l-328.193-226.435 328.193-172.347z" />
<glyph unicode="&#xe910;" glyph-name="gift" horiz-adv-x="1141" d="M1114.697 616.229h-412.526v-592.457h-256v592.457h-419.84c-14.629 0-26.331-11.703-26.331-26.331v-210.651c0-14.629 11.703-26.331 26.331-26.331h105.326v-390.583c0-14.629 11.703-26.331 26.331-26.331h832.366c14.629 0 26.331 11.703 26.331 26.331v390.583h98.011c14.629 0 26.331 11.703 26.331 26.331v210.651c0 14.629-11.703 26.331-26.331 26.331zM792.137 956.343c-231.131 0-218.697-340.114-218.697-340.114 273.554-16.823 262.583 0 345.966 51.2s104.594 288.914-127.269 288.914zM842.606 728.869c-38.766-24.137-33.646-32.183-161.646-24.137 0 0-5.851 159.451 102.4 159.451s98.011-111.177 59.246-135.314zM227.474 667.429c82.651-51.2 72.411-68.023 345.966-51.2 0 0 12.434 340.114-218.697 340.114-231.863 0-209.92-237.714-127.269-288.914zM363.52 864.183c108.251 0 102.4-159.451 102.4-159.451-128-8.046-122.88 0-161.646 24.137s-49.006 135.314 59.246 135.314z" />
<glyph unicode="&#xe911;" glyph-name="irb" horiz-adv-x="1368" d="M1295.858 887.504v-879.009h-1223.363v879.009h1223.363zM1335.731 960h-1303.108c-18.124 0-32.623-14.499-32.623-32.623v-958.754c0-18.124 14.499-32.623 32.623-32.623h1303.108c18.124 0 32.623 14.499 32.623 32.623v958.754c0 18.124-14.499 32.623-32.623 32.623v0zM241.954 730.733h87.901v-550.060h-87.901v550.060zM416.85 730.733h193.926c77.027 0 139.554-38.966 139.554-141.366 0-70.683-31.717-125.961-91.526-135.023v-1.812c54.372-5.437 83.37-35.342 86.088-112.368 0.906-35.342 1.812-78.839 2.719-111.462 1.812-27.186 14.499-39.873 26.28-48.028h-99.681c-8.156 9.968-12.687 27.186-14.499 48.935-2.719 33.529-2.719 64.34-3.625 104.212-1.812 59.809-19.936 86.088-79.745 86.088h-71.589v-239.235h-87.901v550.060zM574.527 486.060c56.184 0 87.901 33.529 87.901 89.713 0 58.903-25.373 89.713-83.37 89.713h-74.308v-178.52h69.777zM830.074 730.733h177.614c81.558 0 147.71-36.248 147.71-133.211 0-67.058-26.28-107.837-80.651-125.055v-1.812c59.809-10.874 98.775-47.122 98.775-140.46 0-91.526-66.152-150.428-169.458-150.428h-173.989v550.966zM987.752 498.747c53.465 0 80.651 35.342 80.651 86.995 0 65.246-38.966 78.839-88.807 78.839h-61.621v-165.834h69.777zM1004.97 246.825c52.559 0 80.651 33.529 80.651 96.963 0 58.903-35.342 93.338-86.088 93.338h-81.558v-190.301h86.995z" />
<glyph unicode="&#xe912;" glyph-name="screen" horiz-adv-x="1504" d="M1369.26 53.805h-1234.237c-38.966 0-71.589 31.717-71.589 71.589v763.016c0 39.873 31.717 71.589 71.589 71.589h1235.143c38.966 0 71.589-31.717 71.589-71.589v-763.922c-0.906-38.966-32.623-70.683-72.496-70.683zM135.929 126.301h1232.425v761.204h-1232.425v-761.204zM1276.828 153.487h-1049.373c-35.342 0-64.34 28.998-64.34 64.34v578.152c0 35.342 28.998 64.34 64.34 64.34h1050.28c35.342 0 64.34-28.998 64.34-64.34v-579.058c-0.906-34.435-29.904-63.434-65.246-63.434zM235.611 225.982h1033.062v561.841h-1033.062v-561.841zM1432.694-64h-1361.104c-38.966 0-71.589 31.717-71.589 71.589v48.028c0 38.966 31.717 70.683 71.589 70.683h1362.011c38.966 0 71.589-31.717 71.589-71.589v-48.028c-0.906-38.966-32.623-70.683-72.496-70.683zM72.496 8.496h1359.292v45.31h-1359.292v-45.31zM810.138 321.133c-8.156 0-15.405 2.719-21.749 7.25l-234.704 179.427-188.488-176.708c-14.499-13.593-37.154-12.687-51.653 1.812-13.593 14.499-12.687 37.154 1.812 51.653l210.237 196.644c12.687 11.781 32.623 12.687 47.122 2.719l234.704-178.52 353.416 334.386c14.499 13.593 37.154 13.593 51.653-0.906 13.593-14.499 13.593-37.154-1.812-51.653l-376.071-356.135c-7.25-6.343-15.405-9.968-24.467-9.968z" />
<glyph unicode="&#xe913;" glyph-name="signout" horiz-adv-x="1074" d="M763.345-64h-569.184c-107.055 0-194.161 87.106-194.161 194.161v569.184c0 107.055 87.106 194.161 194.161 194.161h224.748l-66.494-53.195h-158.255c-77.797 0-140.966-63.169-140.966-140.966v-569.184c0-77.797 63.169-140.966 140.966-140.966h569.184c77.797 0 140.966 63.169 140.966 140.966v158.255l53.195 59.844v-218.099c0-107.055-87.106-194.161-194.161-194.161zM777.974 960v-585.143l295.896 292.571zM777.974 561.039h-259.325c0 0-186.182 13.299-186.182-172.883s0-252.675 0-252.675-259.325 361.060-46.545 567.19c0 0 82.452 71.813 204.135 71.813s287.917 0 287.917 0v-213.444z" />
<glyph unicode="&#xe914;" glyph-name="star" horiz-adv-x="1080" d="M539.927 960l176.873-321.164 363.055-69.818-251.345-269.964 46.545-363.055-335.127 158.255-335.127-158.255 46.545 363.055-251.345 269.964 363.055 69.818 176.873 321.164z" />
<glyph unicode="&#xe915;" glyph-name="arrow_carrot-left" d="M393.6 393.28l207.552-207.552c12.48-12.48 32.768-12.48 45.248 0s12.48 32.768 0 45.248l-185.024 185.024 185.024 185.024c12.48 12.48 12.48 32.768 0 45.248s-32.768 12.48-45.248 0l-207.552-207.552c-6.272-6.272-9.344-14.464-9.344-22.72s3.072-16.448 9.344-22.72z" />
<glyph unicode="&#xe916;" glyph-name="icon_check" d="M441.216 141.184c1.28-1.024 2.048-2.432 3.392-3.392 1.92-1.28 4.096-1.536 6.144-2.432 2.432-1.152 4.8-2.24 7.36-2.944 2.496-0.64 4.928-0.96 7.488-1.152 3.648-0.384 7.168-0.384 10.752 0.128 1.472 0.256 2.88 0.64 4.352 1.024 4.416 1.088 8.512 2.816 12.544 5.248 0.704 0.448 1.28 0.96 1.984 1.408 2.624 1.792 5.44 3.136 7.68 5.568 1.6 1.728 2.304 3.968 3.584 5.888 0.064 0.064 0.192 0.128 0.192 0.192l381.376 611.264c13.568 20.672 7.744 48.448-12.992 62.016s-48.448 7.744-62.016-12.992l-352.256-564.544-194.816 189.504c-18.176 16.832-46.464 15.744-63.296-2.432-16.768-18.176-15.68-46.528 2.496-63.296l234.368-228.032c0.448-0.448 1.088-0.576 1.664-1.024z" />
<glyph unicode="&#xe917;" glyph-name="icon_download" d="M512 192l320 320h-192v384h-256l1.152-384h-193.152zM128 64v-128h768v256h-128v-128h-512v128h-128z" />
<glyph unicode="&#xe918;" glyph-name="icon_trash" d="M832 896h-128c0 35.328-28.672 64-64 64h-192c-35.328 0-64-28.672-64-64h-128c-35.328 0-64-28.672-64-64h704c0 35.328-28.672 64-64 64zM192 0c0-35.328 28.672-64 64-64h576c35.328 0 64 28.672 64 64v768h-704v-768zM704 608c0 17.664 14.336 32 32 32s32-14.336 32-32v-512c0-17.664-14.336-32-32-32s-32 14.336-32 32v512zM512 608c0 17.664 14.336 32 32 32s32-14.336 32-32v-512c0-17.664-14.336-32-32-32s-32 14.336-32 32v512zM320 608c0 17.664 14.336 32 32 32s32-14.336 32-32v-512c0-17.664-14.336-32-32-32s-32 14.336-32 32v512z" />
<glyph unicode="&#xe919;" glyph-name="icon_upload" d="M192 576h192v-384h256l-1.344 384h193.344l-320 320zM768 64h-512v128h-128v-256h768v256h-128z" />
<glyph unicode="&#xe91a;" glyph-name="icon_pencil" d="M60.096-3.904l203.008 67.264 543.040 543.040-135.744 135.744-543.040-543.040zM760.896 832.64l135.744-135.744 67.2 67.2c37.504 37.504 37.504 98.24 0 135.744-37.44 37.504-98.304 37.504-135.744 0l-67.2-67.2z" />
<glyph unicode="&#xe91b;" glyph-name="bell-o" d="M521.143-18.286q0 9.143-9.143 9.143-33.714 0-58 24.286t-24.286 58q0 9.143-9.143 9.143t-9.143-9.143q0-41.714 29.429-71.143t71.143-29.429q9.143 0 9.143 9.143zM140.571 146.286h742.857q-152 171.429-152 475.429 0 29.143-13.714 60t-39.429 58.857-69.429 46-96.857 18-96.857-18-69.429-46-39.429-58.857-13.714-60q0-304-152-475.429zM987.429 146.286q0-29.714-21.714-51.429t-51.429-21.714h-256q0-60.571-42.857-103.429t-103.429-42.857-103.429 42.857-42.857 103.429h-256q-29.714 0-51.429 21.714t-21.714 51.429q28.571 24 52 50.286t48.571 68.286 42.571 90.571 28.571 117.714 11.143 148.571q0 86.857 66.857 161.429t175.429 90.571q-4.571 10.857-4.571 22.286 0 22.857 16 38.857t38.857 16 38.857-16 16-38.857q0-11.429-4.571-22.286 108.571-16 175.429-90.571t66.857-161.429q0-79.429 11.143-148.571t28.571-117.714 42.571-90.571 48.571-68.286 52-50.286z" />
<glyph unicode="&#xe91c;" glyph-name="bell2" d="M521.143-18.286q0 9.143-9.143 9.143-33.714 0-58 24.286t-24.286 58q0 9.143-9.143 9.143t-9.143-9.143q0-41.714 29.429-71.143t71.143-29.429q9.143 0 9.143 9.143zM987.429 146.286q0-29.714-21.714-51.429t-51.429-21.714h-256q0-60.571-42.857-103.429t-103.429-42.857-103.429 42.857-42.857 103.429h-256q-29.714 0-51.429 21.714t-21.714 51.429q28.571 24 52 50.286t48.571 68.286 42.571 90.571 28.571 117.714 11.143 148.571q0 86.857 66.857 161.429t175.429 90.571q-4.571 10.857-4.571 22.286 0 22.857 16 38.857t38.857 16 38.857-16 16-38.857q0-11.429-4.571-22.286 108.571-16 175.429-90.571t66.857-161.429q0-79.429 11.143-148.571t28.571-117.714 42.571-90.571 48.571-68.286 52-50.286z" />
<glyph unicode="&#xe91d;" glyph-name="envelope, email, mail, letter, contact" d="M512.48 356.448l-130.304 106.976-283.584-334.816h828.032l-283.616 338.144-130.528-110.304zM957.632 767.392h-890.080l445.056-374.336 445.024 374.336zM662.56 483.616l297.312-354.688v606.464l-297.312-251.776zM64.128 735.392v-606.464l297.312 354.688-297.312 251.776z" />
<glyph unicode="&#xe91e;" glyph-name="user-md" horiz-adv-x="805" d="M219.429 182.857q0-14.857-10.857-25.714t-25.714-10.857-25.714 10.857-10.857 25.714 10.857 25.714 25.714 10.857 25.714-10.857 10.857-25.714zM804.571 148q0-69.143-41.714-108.571t-110.857-39.429h-499.429q-69.143 0-110.857 39.429t-41.714 108.571q0 38.857 3.143 74.857t13.714 78.857 27.143 75.714 46.286 58.857 68.571 34.571q-12.571-29.714-12.571-68.571v-116q-33.143-11.429-53.143-40t-20-63.429q0-45.714 32-77.714t77.714-32 77.714 32 32 77.714q0 34.857-20.286 63.429t-52.857 40v116q0 35.429 14.286 53.143 75.429-59.429 168.571-59.429t168.571 59.429q14.286-17.714 14.286-53.143v-36.571q-60.571 0-103.429-42.857t-42.857-103.429v-50.857q-18.286-16.571-18.286-40.571 0-22.857 16-38.857t38.857-16 38.857 16 16 38.857q0 24-18.286 40.571v50.857q0 29.714 21.714 51.429t51.429 21.714 51.429-21.714 21.714-51.429v-50.857q-18.286-16.571-18.286-40.571 0-22.857 16-38.857t38.857-16 38.857 16 16 38.857q0 24-18.286 40.571v50.857q0 38.857-19.714 72.857t-53.429 53.429q0 5.714 0.286 24.286t0 27.429-1.429 23.714-4 26.857-7.429 22.857q38.857-8.571 68.571-34.571t46.286-58.857 27.143-75.714 13.714-78.857 3.143-74.857zM621.714 658.286q0-90.857-64.286-155.143t-155.143-64.286-155.143 64.286-64.286 155.143 64.286 155.143 155.143 64.286 155.143-64.286 64.286-155.143z" />
<glyph unicode="&#xe91f;" glyph-name="icon_clock_alt" horiz-adv-x="1049" d="M546.112 891.712c-122.304 0-244.608-46.656-337.92-139.968-186.624-186.624-186.624-489.216 0-675.776 93.376-93.312 215.616-139.968 337.92-139.968s244.608 46.656 337.92 139.968c186.624 186.624 186.624 489.216 0 675.776-93.312 93.312-215.616 139.968-337.92 139.968zM838.784 121.216c-78.144-78.144-182.080-121.216-292.672-121.216-110.528 0-214.464 43.072-292.672 121.216-78.144 78.144-121.216 182.080-121.216 292.672s43.072 214.464 121.216 292.672c78.144 78.144 182.080 121.216 292.672 121.216 110.528 0 214.464-43.072 292.672-121.216s121.216-182.144 121.216-292.672-43.072-214.528-121.216-292.672zM736 448h-160v224.448c0 17.664-14.336 32-32 32s-32-14.336-32-32v-256.256c0 0 0-0.064 0-0.064v-0.128c0-17.664 14.336-32 32-32h192c17.664 0 32 14.336 32 32s-14.336 32-32 32z" />
<glyph unicode="&#xe920;" glyph-name="icon_pencil-edit" d="M672.294 287.706l-56.585 170.836-326.43 326.43-114.251-114.251 326.43-326.43zM23.688 936.312c-31.563-31.563-31.563-82.687 0-114.251l84.084-84.084 114.251 114.251-84.084 84.084c-31.563 31.563-82.687 31.563-114.251 0zM952.617 769.477h-450.207l63.508-63.508h386.699v-698.586h-698.586v386.699l-63.508 63.508v-450.207c0-35.056 28.451-63.508 63.508-63.508h698.586c35.056 0 63.508 28.451 63.508 63.508v698.586c0 35.056-28.451 63.508-63.508 63.508z" />
<glyph unicode="&#xe921;" glyph-name="user-in" horiz-adv-x="1021" d="M881.609 750.959c0 96.947-84.828 181.775-181.775 181.775s-181.775-84.828-181.775-181.775c0-96.947 84.828-181.775 181.775-181.775s181.775 84.828 181.775 181.775zM699.834 508.592c-160.568 0-302.959-172.686-302.959-384.757s605.917-212.071 605.917 0c0 212.071-142.391 384.757-302.959 384.757zM357.491 714.604v-351.432l178.746 175.716zM357.491 475.266h-154.509c0 0-112.095 9.089-112.095-103.006s0-151.479 0-151.479-154.509 218.13-27.266 339.314c0 0 48.473 42.414 121.183 42.414s172.686 0 172.686 0v-127.243z" />
<glyph unicode="&#xe922;" glyph-name="chat-down" horiz-adv-x="940" d="M802.32 648.852c-61.578 50.349-131.486 83.673-209.726 100.335 26.442 69.184 72.444 143.44 150.684 210.813 0 0-190.166-15.213-300.644-198.86-117.722-5.071-219.506-42.38-304.99-112.289-91.642-75.342-137.644-166.26-137.644-272.391 0-105.044 44.553-194.875 133.297-270.217-19.922-43.104-44.915-84.035-76.067-122.069-8.693-9.78-10.142-20.284-4.709-31.513s14.489-16.662 26.804-16.662c81.5 0 161.189 22.82 238.704 68.46 59.404-9.78 109.753-14.851 151.771-14.851 129.675 0 240.153 38.033 332.157 113.738 92.004 76.067 138.006 166.984 138.006 273.115 0.362 106.131-45.64 197.048-137.644 272.391zM760.665 145.364c-80.413-64.113-177.126-96.351-290.502-96.351-50.711 0-101.060 5.071-151.771 14.851-7.244 1.087-14.851 0-22.096-3.622-53.247-32.238-104.32-52.522-153.582-61.215 22.096 34.411 40.207 70.271 53.609 107.218 6.158 13.402 2.898 24.631-9.418 33.324-85.122 65.562-127.864 144.526-127.864 236.893 0 90.193 40.207 166.984 120.258 230.373 66.287 52.522 143.802 83.311 232.546 92.366-22.458-54.333-38.758-122.431-44.191-198.497h-179.3l277.462-295.935 277.462 288.69h-179.3c0 0-18.111 86.571 10.504 199.222 69.547-13.764 131.849-42.742 186.182-85.846 80.051-63.751 120.258-140.542 120.258-230.735 0.362-89.469-39.844-166.622-120.258-230.735z" />
<glyph unicode="&#xe923;" glyph-name="chat-up" horiz-adv-x="964" d="M822.168 666.157c-19.293 15.954-37.843 30.052-60.104 42.667v251.177h-402.922l126.887-135.049c0 0-14.099-15.583-32.649-44.151-120.58-5.194-224.464-43.409-312.023-115.014-94.238-76.8-141.357-169.925-141.357-278.632 0-107.594 45.635-199.606 136.533-276.777-20.406-44.151-46.006-86.075-77.913-125.032-8.904-10.017-10.388-20.777-4.823-32.278s14.841-17.067 27.455-17.067c83.478 0 165.101 23.374 244.499 70.122 60.846-10.017 112.417-15.212 155.455-15.212 132.823 0 245.983 38.957 340.22 116.499 94.238 77.913 141.357 171.038 141.357 279.745 0.742 108.707-46.377 201.832-140.614 279.003zM779.13 150.446c-81.994-65.67-181.426-98.69-297.554-98.69-51.942 0-103.513 5.194-155.455 15.212-7.42 1.113-15.212 0-22.632-3.71-54.539-33.020-106.852-53.797-157.31-62.701 22.632 35.246 41.183 71.977 54.91 109.82 6.307 13.728 2.968 25.229-9.646 34.133-87.188 67.154-130.968 148.035-130.968 242.643 0 92.383 41.183 171.038 123.177 235.965 66.412 52.684 144.325 84.22 232.997 94.238-53.055-108.336-98.69-286.794 25.229-478.238 0 0-60.846 271.212 205.913 450.412l113.901-135.42v82.736c7.42-4.452 11.501-8.904 17.438-13.357 81.994-65.299 123.177-143.954 123.177-235.965 0.371-92.383-40.812-171.409-123.177-237.078z" />
<glyph unicode="&#xe924;" glyph-name="icon_plus_alt" d="M544 896c-265.088 0-480-214.912-480-480s214.912-480 480-480 480 214.912 480 480-214.912 480-480 480zM800 384h-224v-224c0-17.664-14.336-32-32-32s-32 14.336-32 32v224h-224c-17.664 0-32 14.336-32 32s14.336 32 32 32h224v224c0 17.664 14.336 32 32 32s32-14.336 32-32v-224h224c17.664 0 32-14.336 32-32s-14.336-32-32-32z" />
<glyph unicode="&#xe925;" glyph-name="arrow_up_alt" d="M544 896c-265.088 0-480-214.912-480-480s214.912-480 480-480 480 214.912 480 480-214.912 480-480 480zM758.656 457.344c-12.48-12.48-32.768-12.48-45.248 0l-137.408 137.408v-498.752c0-17.664-14.336-32-32-32s-32 14.336-32 32v498.752l-137.344-137.408c-12.48-12.48-32.768-12.48-45.248 0s-12.48 32.768 0 45.248l192 192c0.064 0.128 0.128 0.128 0.192 0.192 2.88 2.816 6.336 5.184 10.112 6.72 7.808 3.264 16.64 3.264 24.448 0 3.968-1.6 7.488-3.904 10.496-6.848l192-192c12.48-12.544 12.48-32.768 0-45.312z" />
<glyph unicode="&#xe926;" glyph-name="icon_book_alt" d="M865.344 960h-704c-88.32 0-159.808-70.976-161.088-158.976l-0.256 0.32v-704c0-89.088 72.256-161.344 161.344-161.344h544c35.328 0 62.656 28.672 62.656 64v672c0 17.664-12.992 32-30.656 32h-576c-53.696 0-97.344 41.024-97.344 94.656 0 53.696 43.648 97.344 97.344 97.344h670.656v-736c0-17.664 15.68-32 33.344-32s30.656 14.336 30.656 32v768c0 17.664-12.992 32-30.656 32zM161.344 640h542.72l1.28-640h-544c-53.696 0-97.344 43.648-97.344 97.344v573.952c26.88-19.712 60.48-31.296 97.344-31.296z" />
<glyph unicode="&#xe927;" glyph-name="open-eye" horiz-adv-x="1230" d="M1223.092 366.205c-2.088 3.481-53.602 93.281-152.451 183.081-132.96 120.43-288.892 183.777-451.089 183.777-90.496 0-179.6-19.492-263.831-57.778-66.828-30.63-130.872-72.397-190.738-125.303-100.938-89.8-154.54-179.6-157.324-183.081-10.442-18.099-10.442-40.375 0.696-58.475 2.088-3.481 59.171-94.673 160.805-185.169 60.563-53.602 123.91-96.761 190.042-128.087 83.535-39.679 169.855-59.171 256.87-59.171s173.335 20.188 256.87 59.171c65.436 31.326 128.783 73.789 189.346 128.087 101.634 90.496 158.020 181.689 160.109 185.169 10.442 18.099 10.442 39.679 0.696 57.778zM616.071 61.303c-124.606 0-225.545 122.518-225.545 273.577s100.938 273.577 225.545 273.577c124.606 0 225.545-122.518 225.545-273.577s-100.938-273.577-225.545-273.577zM246.428 205.4c-57.778 50.817-99.546 102.33-122.518 133.656 36.199 49.425 119.734 151.755 245.732 218.583-43.16-63.347-66.132-140.617-66.132-222.064 0-78.662 21.58-153.844 61.955-216.495-40.375 22.972-80.054 51.513-119.037 86.32zM866.676 119.081c39.679 61.955 61.955 137.137 61.955 215.103 0 83.535-24.364 162.893-69.613 226.937 45.944-23.668 90.496-54.994 132.96-93.281 54.994-49.425 93.281-98.85 114.165-129.479-35.502-48.033-119.037-149.667-239.467-219.279zM616.767 492.204c-9.746 0-21.58-1.392-28.541-3.481v-100.242c0 0 2.088-16.011-16.707-16.011-17.403 0-78.662 1.392-86.32 1.392-3.481-12.53-4.873-25.757-4.873-38.983 0-87.016 60.563-157.324 135.744-157.324s135.744 70.309 135.744 157.324-60.563 157.324-135.048 157.324zM153.844 646.744c4.873-9.050 13.923-14.619 23.668-14.619 4.177 0 8.354 0.696 11.834 2.785 13.226 6.961 18.099 22.276 11.138 35.502l-58.475 113.468c-6.961 13.226-22.276 18.099-35.502 11.138s-18.099-22.276-11.138-35.502l58.475-112.772zM286.804 733.759c3.481-11.138 13.923-17.403 25.061-17.403 2.785 0 5.569 0.696 8.354 1.392 13.923 4.873 20.884 19.492 16.011 33.414l-40.375 115.557c-4.873 13.923-19.492 20.884-33.414 16.011s-20.884-19.492-16.011-33.414l40.375-115.557zM435.774 784.576c2.088-12.53 13.226-21.58 25.757-21.58 1.392 0 2.785 0 4.177 0.696 14.619 2.785 23.668 16.011 21.58 30.63l-21.58 125.303c-2.785 14.619-16.011 23.668-30.63 21.58-13.923-2.088-23.668-16.011-21.58-30.63l22.276-125.999zM619.551 783.88c14.619 0 24.364 11.834 24.364 26.453v123.214c0 14.619-9.746 26.453-24.364 26.453s-24.364-11.834-24.364-26.453v-123.91c0-13.923 9.746-25.757 24.364-25.757zM767.826 767.173c1.392 0 3.481-0.696 4.873-0.696 12.53 0 23.668 9.050 25.757 21.58l24.364 122.518c2.785 14.619-6.265 27.845-20.884 30.63s-27.845-6.265-30.63-20.884l-24.364-122.518c-2.785-13.923 6.961-27.845 20.884-30.63zM914.708 717.748c2.785-1.392 6.265-1.392 9.050-1.392 10.442 0 20.884 6.961 25.061 17.403l42.464 115.557c4.873 13.923-2.088 28.541-16.011 34.11-13.923 4.873-28.541-2.088-34.11-16.011l-41.768-116.253c-4.873-13.226 2.088-28.541 15.315-33.414zM1046.276 635.606c3.481-2.088 7.657-2.785 11.834-2.785 9.746 0 18.795 5.569 23.668 14.619l57.082 113.468c6.265 13.226 1.392 28.541-11.834 35.502-13.226 6.265-28.541 1.392-35.502-11.834l-57.082-113.468c-6.265-13.226-0.696-29.237 11.834-35.502z" />
<glyph unicode="&#xe928;" glyph-name="phone" d="M422.912 701.952c-12.224 140.608-158.912 209.6-165.12 212.416-5.824 2.752-12.352 3.584-18.624 2.496-169.344-28.096-194.816-126.656-195.84-130.752-1.408-5.76-1.152-11.712 0.64-17.28 201.984-626.688 621.76-742.848 759.744-781.056 10.624-2.944 19.392-5.312 26.048-7.488 3.2-1.088 6.528-1.536 9.856-1.536 4.544 0 9.088 0.96 13.248 2.88 4.224 1.92 103.936 48.896 128.32 202.112 1.088 6.656 0 13.568-3.072 19.584-2.176 4.224-54.336 103.488-198.976 138.56-10.112 2.624-20.48-0.064-28.288-6.72-45.632-38.976-108.672-80.512-135.872-84.8-182.336 89.152-284.16 260.224-288 292.672-2.24 18.24 39.552 82.304 87.616 134.4 6.080 6.592 9.152 15.552 8.32 24.512z" />
<glyph unicode="&#xe929;" glyph-name="icon_floppy_alt" d="M768 960h-704c-35.328 0-64-28.672-64-64v-896c0-35.328 28.672-64 64-64h896c35.328 0 64 28.672 64 64v768l-192 192h-64zM704 640v256h64v-256c0-35.328-28.672-64-64-64h-384c-35.328 0-64 28.672-64 64v256h256v-256h192zM192 384c0 35.328 28.672 64 64 64h512c35.328 0 64-28.672 64-64v-384h-640v384z" />
<glyph unicode="&#xe92a;" glyph-name="lock" horiz-adv-x="658" d="M182.857 512h292.571v109.714q0 60.571-42.857 103.429t-103.429 42.857-103.429-42.857-42.857-103.429v-109.714zM658.286 457.143v-329.143q0-22.857-16-38.857t-38.857-16h-548.571q-22.857 0-38.857 16t-16 38.857v329.143q0 22.857 16 38.857t38.857 16h18.286v109.714q0 105.143 75.429 180.571t180.571 75.429 180.571-75.429 75.429-180.571v-109.714h18.286q22.857 0 38.857-16t16-38.857z" />
<glyph unicode="&#xe92b;" glyph-name="help-with-circle" d="M512 952.32c-271.462 0-491.52-220.058-491.52-491.52s220.058-491.52 491.52-491.52c271.411 0 491.52 220.058 491.52 491.571 0 271.411-220.109 491.469-491.52 491.469zM504.269 174.131h-2.611c-40.038 1.178-68.301 30.72-67.123 70.195 1.126 38.81 30.054 67.021 68.762 67.021l2.355-0.102c41.165-1.178 69.12-30.413 67.942-71.014-1.178-38.912-29.594-66.099-69.325-66.099zM672.768 508.518c-9.421-13.312-30.106-30.003-56.218-50.33l-28.774-19.814c-15.77-12.288-25.293-23.91-28.826-35.226-2.867-8.909-4.198-11.315-4.454-29.491v-4.608h-109.824l0.307 9.318c1.382 38.093 2.304 60.621 18.125 79.206 24.832 29.082 79.616 64.41 81.92 65.894 7.885 5.888 14.49 12.595 19.405 19.814 11.52 15.923 16.589 28.416 16.589 40.602 0 17.101-5.018 32.922-15.002 46.899-9.626 13.619-27.904 20.378-54.323 20.378-26.214 0-44.186-8.294-54.886-25.395-11.059-17.459-16.64-35.84-16.64-54.63v-4.71h-113.203l0.205 4.915c2.918 69.274 27.699 119.194 73.472 148.326 28.826 18.483 64.717 27.853 106.547 27.853 54.682 0 100.966-13.312 137.318-39.526 36.915-26.573 55.603-66.406 55.603-118.323-0.051-29.030-9.216-56.32-27.341-81.152z" />
<glyph unicode="&#xe92c;" glyph-name="lab, beta, beaker, test, experiment" d="M956.29 155.518l-316.29 527.024v213.458h32c17.6 0 32 14.4 32 32s-14.4 32-32 32h-320c-17.6 0-32-14.4-32-32s14.4-32 32-32h32v-213.458l-316.288-527.024c-72.442-120.734-16.512-219.518 124.288-219.518h640c140.8 0 196.73 98.784 124.29 219.518zM241.038 320l206.962 344.938v231.062h128v-231.062l206.964-344.938h-541.926z" />
<glyph unicode="&#xe92d;" glyph-name="bullhorn" d="M950.857 585.143q30.286 0 51.714-21.429t21.429-51.714-21.429-51.714-51.714-21.429v-219.429q0-29.714-21.714-51.429t-51.429-21.714q-238.286 198.286-464 217.143-33.143-10.857-52-37.714t-17.714-57.429 22.857-52.857q-11.429-18.857-13.143-37.429t3.429-33.143 19.143-31.429 27.429-28.571 35.143-28.857q-16.571-33.143-63.714-47.429t-96.286-6.571-75.429 31.714q-4 13.143-16.857 50t-18.286 54-13.143 50.857-8.571 57.714 2 56.286 12.571 63.143h-69.714q-37.714 0-64.571 26.857t-26.857 64.571v109.714q0 37.714 26.857 64.571t64.571 26.857h274.286q248.571 0 512 219.429 29.714 0 51.429-21.714t21.714-51.429v-219.429zM877.714 240v545.143q-225.143-172.571-438.857-196v-154.286q215.429-24 438.857-194.857z" />
<glyph unicode="&#xe92e;" glyph-name="group, users" horiz-adv-x="1097" d="M338.857 438.857q-92.571-2.857-151.429-73.143h-76.571q-46.857 0-78.857 23.143t-32 67.714q0 201.714 70.857 201.714 3.429 0 24.857-12t55.714-24.286 68-12.286q38.286 0 76 13.143-2.857-21.143-2.857-37.714 0-79.429 46.286-146.286zM950.857 74.857q0-68.571-41.714-108.286t-110.857-39.714h-499.429q-69.143 0-110.857 39.714t-41.714 108.286q0 30.286 2 59.143t8 62.286 15.143 62 24.571 55.714 35.429 46.286 48.857 30.571 63.714 11.429q5.714 0 24.571-12.286t41.714-27.429 61.143-27.429 77.143-12.286 77.143 12.286 61.143 27.429 41.714 27.429 24.571 12.286q34.857 0 63.714-11.429t48.857-30.571 35.429-46.286 24.571-55.714 15.143-62 8-62.286 2-59.143zM365.714 804.571q0-60.571-42.857-103.429t-103.429-42.857-103.429 42.857-42.857 103.429 42.857 103.429 103.429 42.857 103.429-42.857 42.857-103.429zM768 585.143q0-90.857-64.286-155.143t-155.143-64.286-155.143 64.286-64.286 155.143 64.286 155.143 155.143 64.286 155.143-64.286 64.286-155.143zM1097.143 456.571q0-44.571-32-67.714t-78.857-23.143h-76.571q-58.857 70.286-151.429 73.143 46.286 66.857 46.286 146.286 0 16.571-2.857 37.714 37.714-13.143 76-13.143 33.714 0 68 12.286t55.714 24.286 24.857 12q70.857 0 70.857-201.714zM1024 804.571q0-60.571-42.857-103.429t-103.429-42.857-103.429 42.857-42.857 103.429 42.857 103.429 103.429 42.857 103.429-42.857 42.857-103.429z" />
<glyph unicode="&#xe92f;" glyph-name="icon_pin_alt" d="M486.784 434.432c91.968 0 166.784 74.816 166.784 166.784s-74.816 166.784-166.784 166.784-166.784-74.816-166.784-166.784c0-91.968 74.816-166.784 166.784-166.784zM486.784 704c56.64 0 102.784-46.080 102.784-102.784s-46.080-102.784-102.784-102.784-102.784 46.144-102.784 102.784 46.080 102.784 102.784 102.784zM463.488-46.656c5.376-5.952 10.56-9.792 15.552-12.48 0.064-0.064 0.192-0.064 0.256-0.128 3.456-1.792 6.848-3.136 10.048-3.136s6.592 1.344 10.048 3.136c0.064 0.064 0.192 0.064 0.256 0.128 4.992 2.688 10.176 6.528 15.552 12.48 0 0 297.472 323.52 327.36 603.84 1.792 14.464 3.008 29.12 3.008 44.032 0 198.144-160.64 358.784-358.784 358.784s-358.784-160.64-358.784-358.784c0-15.168 1.216-29.952 3.072-44.608 30.656-280.192 332.416-603.264 332.416-603.264zM486.784 896c162.56 0 294.784-132.224 294.784-294.784 0-10.816-0.768-22.336-2.624-37.248-22.912-214.784-224.576-466.816-289.536-543.488-66.624 76.8-271.168 328.192-294.848 544-1.728 14.144-2.56 25.792-2.56 36.736 0 162.56 132.224 294.784 294.784 294.784z" />
<glyph unicode="&#xe930;" glyph-name="icon_creditcard" d="M960 832h-896c-35.328 0-64-28.672-64-64v-640c0-35.328 28.672-64 64-64h896c35.328 0 64 28.672 64 64v640c0 35.328-28.672 64-64 64zM960 128h-896v384h896v-384zM64 637.312v130.688h896v-130.688h-896zM160 192h320c17.664 0 32 14.336 32 32s-14.336 32-32 32h-320c-17.664 0-32-14.336-32-32s14.336-32 32-32zM576 224c0-17.673 14.327-32 32-32s32 14.327 32 32c0 17.673-14.327 32-32 32s-32-14.327-32-32zM704 224c0-17.673 14.327-32 32-32s32 14.327 32 32c0 17.673-14.327 32-32 32s-32-14.327-32-32zM832 224c0-17.673 14.327-32 32-32s32 14.327 32 32c0 17.673-14.327 32-32 32s-32-14.327-32-32z" />
<glyph unicode="&#xe931;" glyph-name="instagram" d="M870.4 921.6h-716.8c-56.32 0-102.4-46.080-102.4-102.4v-716.8c0-56.371 46.080-102.4 102.4-102.4h716.8c56.32 0 102.4 46.029 102.4 102.4v716.8c0 56.32-46.080 102.4-102.4 102.4zM511.181 178.022c156.621 0 283.546 127.027 283.546 283.597 0 17.306-2.202 33.997-5.274 50.381h80.947v-369.459c0-19.558-15.872-35.328-35.482-35.328h-645.837c-19.61 0-35.482 15.77-35.482 35.328v369.459h79.309c-3.123-16.384-5.325-33.075-5.325-50.381 0-156.621 127.027-283.597 283.597-283.597zM333.978 461.619c0 97.894 79.36 177.203 177.254 177.203 97.843 0 177.254-79.309 177.254-177.203s-79.411-177.254-177.254-177.254c-97.946 0-177.254 79.36-177.254 177.254zM834.918 665.6h-82.688c-19.558 0-35.43 15.974-35.43 35.43v82.79c0 19.558 15.872 35.379 35.379 35.379h82.688c19.661 0 35.533-15.821 35.533-35.379v-82.739c0-19.507-15.872-35.482-35.482-35.482z" />
<glyph unicode="&#xe932;" glyph-name="pinterest-p" horiz-adv-x="731" d="M0 609.714c0 210.857 193.143 341.143 388.571 341.143 179.429 0 342.857-123.429 342.857-312.571 0-177.714-90.857-374.857-293.143-374.857-48 0-108.571 24-132 68.571-43.429-172-40-197.714-136-329.143l-8-2.857-5.143 5.714c-3.429 36-8.571 71.429-8.571 107.429 0 116.571 53.714 285.143 80 398.286-14.286 29.143-18.286 64.571-18.286 96.571 0 57.714 40 130.857 105.143 130.857 48 0 73.714-36.571 73.714-81.714 0-74.286-50.286-144-50.286-216 0-49.143 40.571-83.429 88-83.429 131.429 0 172 189.714 172 290.857 0 135.429-96 209.143-225.714 209.143-150.857 0-267.429-108.571-267.429-261.714 0-73.714 45.143-111.429 45.143-129.143 0-14.857-10.857-67.429-29.714-67.429-2.857 0-6.857 1.143-9.714 1.714-81.714 24.571-111.429 133.714-111.429 208.571z" />
<glyph unicode="&#xe933;" glyph-name="linkedin" horiz-adv-x="878" d="M199.429 593.714v-566.286h-188.571v566.286h188.571zM211.429 768.571c0.571-54.286-40.571-97.714-106.286-97.714v0h-1.143c-63.429 0-104 43.429-104 97.714 0 55.429 42.286 97.714 106.286 97.714 64.571 0 104.571-42.286 105.143-97.714zM877.714 352v-324.571h-188v302.857c0 76-27.429 128-95.429 128-52 0-82.857-34.857-96.571-68.571-4.571-12.571-6.286-29.143-6.286-46.286v-316h-188c2.286 513.143 0 566.286 0 566.286h188v-82.286h-1.143c24.571 38.857 69.143 95.429 170.857 95.429 124 0 216.571-81.143 216.571-254.857z" />
<glyph unicode="&#xe934;" glyph-name="google-plus" horiz-adv-x="1317" d="M821.143 429.143c0-239.429-160.571-409.143-402.286-409.143-231.429 0-418.857 187.429-418.857 418.857s187.429 418.857 418.857 418.857c113.143 0 207.429-41.143 280.571-109.714l-113.714-109.143c-30.857 29.714-85.143 64.571-166.857 64.571-142.857 0-259.429-118.286-259.429-264.571s116.571-264.571 259.429-264.571c165.714 0 228 119.429 237.714 180.571h-237.714v144h395.429c4-21.143 6.857-42.286 6.857-69.714zM1316.571 498.857v-120h-119.429v-119.429h-120v119.429h-119.429v120h119.429v119.429h120v-119.429h119.429z" />
<glyph unicode="&#xe935;" glyph-name="twitter" horiz-adv-x="951" d="M925.714 717.714c-25.143-36.571-56.571-69.143-92.571-95.429 0.571-8 0.571-16 0.571-24 0-244-185.714-525.143-525.143-525.143-104.571 0-201.714 30.286-283.429 82.857 14.857-1.714 29.143-2.286 44.571-2.286 86.286 0 165.714 29.143 229.143 78.857-81.143 1.714-149.143 54.857-172.571 128 11.429-1.714 22.857-2.857 34.857-2.857 16.571 0 33.143 2.286 48.571 6.286-84.571 17.143-148 91.429-148 181.143v2.286c24.571-13.714 53.143-22.286 83.429-23.429-49.714 33.143-82.286 89.714-82.286 153.714 0 34.286 9.143 65.714 25.143 93.143 90.857-112 227.429-185.143 380.571-193.143-2.857 13.714-4.571 28-4.571 42.286 0 101.714 82.286 184.571 184.571 184.571 53.143 0 101.143-22.286 134.857-58.286 41.714 8 81.714 23.429 117.143 44.571-13.714-42.857-42.857-78.857-81.143-101.714 37.143 4 73.143 14.286 106.286 28.571z" />
<glyph unicode="&#xe936;" glyph-name="facebook, facebook-f" horiz-adv-x="602" d="M548 944v-150.857h-89.714c-70.286 0-83.429-33.714-83.429-82.286v-108h167.429l-22.286-169.143h-145.143v-433.714h-174.857v433.714h-145.714v169.143h145.714v124.571c0 144.571 88.571 223.429 217.714 223.429 61.714 0 114.857-4.571 130.286-6.857z" />
<glyph unicode="&#xe937;" glyph-name="automobile, car" horiz-adv-x="1170" d="M274.286 329.143c0 50.286-41.143 91.429-91.429 91.429s-91.429-41.143-91.429-91.429 41.143-91.429 91.429-91.429 91.429 41.143 91.429 91.429zM294.857 512h580.571l-50.857 204c-1.714 6.286-13.143 15.429-20 15.429h-438.857c-6.857 0-18.286-9.143-20-15.429zM1078.857 329.143c0 50.286-41.143 91.429-91.429 91.429s-91.429-41.143-91.429-91.429 41.143-91.429 91.429-91.429 91.429 41.143 91.429 91.429zM1170.286 384v-219.429c0-10.286-8-18.286-18.286-18.286h-54.857v-73.143c0-60.571-49.143-109.714-109.714-109.714s-109.714 49.143-109.714 109.714v73.143h-585.143v-73.143c0-60.571-49.143-109.714-109.714-109.714s-109.714 49.143-109.714 109.714v73.143h-54.857c-10.286 0-18.286 8-18.286 18.286v219.429c0 70.857 57.143 128 128 128h16l60 239.429c17.714 72 87.429 126.286 161.714 126.286h438.857c74.286 0 144-54.286 161.714-126.286l60-239.429h16c70.857 0 128-57.143 128-128z" />
<glyph unicode="&#xe938;" glyph-name="map-marker" horiz-adv-x="585" d="M438.857 585.143c0 80.571-65.714 146.286-146.286 146.286s-146.286-65.714-146.286-146.286 65.714-146.286 146.286-146.286 146.286 65.714 146.286 146.286zM585.143 585.143c0-34.857-4-70.857-18.857-102.286l-208-442.286c-12-25.143-38.286-40.571-65.714-40.571s-53.714 15.429-65.143 40.571l-208.571 442.286c-14.857 31.429-18.857 67.429-18.857 102.286 0 161.714 130.857 292.571 292.571 292.571s292.571-130.857 292.571-292.571z" />
<glyph unicode="&#xe939;" glyph-name="arrow-circle-o-left" horiz-adv-x="878" d="M658.286 493.714v-109.714c0-9.714-8.571-18.286-18.286-18.286h-201.143v-109.714c0-10.286-8-18.286-18.286-18.286-5.143 0-9.714 2.286-13.714 5.714l-182.286 182.286c-3.429 3.429-5.143 8.571-5.143 13.143s1.714 9.714 5.143 13.143l182.857 182.857c3.429 3.429 8.571 5.143 13.143 5.143 9.714 0 18.286-8.571 18.286-18.286v-109.714h201.143c9.714 0 18.286-8.571 18.286-18.286zM749.714 438.857c0 171.429-139.429 310.857-310.857 310.857s-310.857-139.429-310.857-310.857 139.429-310.857 310.857-310.857 310.857 139.429 310.857 310.857zM877.714 438.857c0-242.286-196.571-438.857-438.857-438.857s-438.857 196.571-438.857 438.857 196.571 438.857 438.857 438.857 438.857-196.571 438.857-438.857z" />
<glyph unicode="&#xe93a;" glyph-name="arrow-circle-o-right" horiz-adv-x="878" d="M658.286 438.857c0-4.571-1.714-9.714-5.143-13.143l-182.857-182.857c-3.429-3.429-8.571-5.143-13.143-5.143-9.714 0-18.286 8.571-18.286 18.286v109.714h-201.143c-9.714 0-18.286 8.571-18.286 18.286v109.714c0 9.714 8.571 18.286 18.286 18.286h201.143v109.714c0 10.286 8 18.286 18.286 18.286 5.143 0 9.714-2.286 13.714-5.714l182.286-182.286c3.429-3.429 5.143-8.571 5.143-13.143zM749.714 438.857c0 171.429-139.429 310.857-310.857 310.857s-310.857-139.429-310.857-310.857 139.429-310.857 310.857-310.857 310.857 139.429 310.857 310.857zM877.714 438.857c0-242.286-196.571-438.857-438.857-438.857s-438.857 196.571-438.857 438.857 196.571 438.857 438.857 438.857 438.857-196.571 438.857-438.857z" />
<glyph unicode="&#xe93b;" glyph-name="arrow-circle-o-up" horiz-adv-x="878" d="M638.857 450.286c-2.857-6.857-9.714-11.429-17.143-11.429h-109.714v-201.143c0-10.286-8-18.286-18.286-18.286h-109.714c-10.286 0-18.286 8-18.286 18.286v201.143h-109.714c-10.286 0-18.286 8-18.286 18.286 0 5.143 2.286 9.714 5.714 13.714l182.286 182.286c4 3.429 8.571 5.143 13.143 5.143s9.143-1.714 13.143-5.143l182.857-182.857c5.143-5.714 6.857-13.143 4-20zM438.857 749.714c-171.429 0-310.857-139.429-310.857-310.857s139.429-310.857 310.857-310.857 310.857 139.429 310.857 310.857-139.429 310.857-310.857 310.857zM877.714 438.857c0-242.286-196.571-438.857-438.857-438.857s-438.857 196.571-438.857 438.857 196.571 438.857 438.857 438.857v0c242.286 0 438.857-196.571 438.857-438.857z" />
<glyph unicode="&#xe93c;" glyph-name="arrow-circle-o-down" horiz-adv-x="878" d="M640 420.571c0-5.143-2.286-9.714-5.714-13.714l-182.286-182.286c-4-3.429-8.571-5.143-13.143-5.143s-9.143 1.714-13.143 5.143l-182.857 182.857c-5.143 5.714-6.857 13.143-4 20s9.714 11.429 17.143 11.429h109.714v201.143c0 10.286 8 18.286 18.286 18.286h109.714c10.286 0 18.286-8 18.286-18.286v-201.143h109.714c10.286 0 18.286-8 18.286-18.286zM438.857 749.714c-171.429 0-310.857-139.429-310.857-310.857s139.429-310.857 310.857-310.857 310.857 139.429 310.857 310.857-139.429 310.857-310.857 310.857zM877.714 438.857c0-242.286-196.571-438.857-438.857-438.857s-438.857 196.571-438.857 438.857 196.571 438.857 438.857 438.857v0c242.286 0 438.857-196.571 438.857-438.857z" />
<glyph unicode="&#xe93d;" glyph-name="envelope-square" horiz-adv-x="878" d="M713.143 877.714c90.857 0 164.571-73.714 164.571-164.571v-548.571c0-90.857-73.714-164.571-164.571-164.571h-548.571c-90.857 0-164.571 73.714-164.571 164.571v548.571c0 90.857 73.714 164.571 164.571 164.571h548.571zM731.429 274.286v249.143c-10.857-12-22.857-22.857-36.571-31.429-53.714-35.429-109.143-68.571-162.286-105.143-26.857-18.857-60-39.429-93.714-39.429v0 0 0 0c-33.714 0-66.857 20.571-93.714 39.429-53.143 36.571-109.143 69.143-162.286 105.714-13.143 8.571-23.429 21.143-36.571 30.857v-249.143c0-30.286 24.571-54.857 54.857-54.857h475.429c30.286 0 54.857 24.571 54.857 54.857zM731.429 601.714c0 30.857-22.857 56.571-54.857 56.571h-475.429c-30.286 0-54.857-24.571-54.857-54.857 0-30.857 32-64.571 56-80.571 50.286-33.714 102.286-65.143 152.571-98.286 21.714-14.286 57.714-40.571 84-40.571s62.286 26.286 84 40.571c50.857 33.143 101.714 65.714 152.571 99.429 22.286 14.857 56 49.143 56 77.714z" />
<glyph unicode="&#xe93e;" glyph-name="pinterest-square" horiz-adv-x="878" d="M713.143 877.714c90.857 0 164.571-73.714 164.571-164.571v-548.571c0-90.857-73.714-164.571-164.571-164.571h-414.286c18.857 26.857 49.714 73.143 61.714 120 0 0 5.143 19.429 30.286 119.429 15.429-29.143 59.429-54.286 106.286-54.286 139.429 0 234.286 127.429 234.286 297.714 0 128.571-109.143 248.571-274.857 248.571-206.286 0-310.286-148-310.286-271.429 0-74.286 28.571-140.571 89.143-165.714 9.714-4 18.857 0 21.714 10.857 1.714 7.429 6.286 26.857 8.571 34.857 2.857 10.857 1.714 14.857-6.286 24-17.143 21.143-28.571 47.429-28.571 85.714 0 109.714 82.286 207.429 213.714 207.429 116.571 0 180.571-70.857 180.571-166.286 0-125.143-55.429-230.857-137.714-230.857-45.143 0-79.429 37.714-68.571 84 13.143 54.857 38.286 114.286 38.286 153.714 0 35.429-18.857 65.143-58.286 65.143-46.286 0-83.429-48-83.429-112 0 0 0-41.143 13.714-69.143-47.429-201.143-56-236.571-56-236.571-12.571-52.571-7.429-113.714-4-145.143h-104.571c-90.857 0-164.571 73.714-164.571 164.571v548.571c0 90.857 73.714 164.571 164.571 164.571h548.571z" />
<glyph unicode="&#xe93f;" glyph-name="twitter-square" horiz-adv-x="878" d="M731.429 602.286c-21.714-9.714-44.571-16-69.143-19.429 25.143 14.857 44 38.857 53.143 66.857-23.429-13.714-49.143-24-76.571-29.143-21.714 23.429-53.143 37.714-87.429 37.714-66.286 0-120-53.714-120-120 0-9.143 0.571-18.857 2.857-27.429-100 5.143-188.571 52.571-248 125.714-10.286-17.714-16.571-38.857-16.571-60.571 0-41.714 19.429-78.286 52-100-20 0.571-38.857 6.286-57.143 14.857v-1.143c0-58.286 44-106.857 98.857-117.714-10.286-2.857-18.286-4.571-29.143-4.571-7.429 0-14.857 1.143-22.286 2.286 15.429-47.429 59.429-82.286 112-83.429-41.143-32-92.571-51.429-149.143-51.429-9.714 0-19.429 0.571-28.571 1.714 53.143-33.714 116-53.714 184-53.714 220.571 0 341.714 182.857 341.714 341.714 0 5.143 0 10.286-0.571 15.429 23.429 16.571 44 37.714 60 62.286zM877.714 713.143v-548.571c0-90.857-73.714-164.571-164.571-164.571h-548.571c-90.857 0-164.571 73.714-164.571 164.571v548.571c0 90.857 73.714 164.571 164.571 164.571h548.571c90.857 0 164.571-73.714 164.571-164.571z" />
<glyph unicode="&#xe940;" glyph-name="instagram2" horiz-adv-x="878" d="M585.143 438.857c0 80.571-65.714 146.286-146.286 146.286s-146.286-65.714-146.286-146.286 65.714-146.286 146.286-146.286 146.286 65.714 146.286 146.286zM664 438.857c0-124.571-100.571-225.143-225.143-225.143s-225.143 100.571-225.143 225.143 100.571 225.143 225.143 225.143 225.143-100.571 225.143-225.143zM725.714 673.143c0-29.143-23.429-52.571-52.571-52.571s-52.571 23.429-52.571 52.571 23.429 52.571 52.571 52.571 52.571-23.429 52.571-52.571zM438.857 798.857c-64 0-201.143 5.143-258.857-17.714-20-8-34.857-17.714-50.286-33.143s-25.143-30.286-33.143-50.286c-22.857-57.714-17.714-194.857-17.714-258.857s-5.143-201.143 17.714-258.857c8-20 17.714-34.857 33.143-50.286s30.286-25.143 50.286-33.143c57.714-22.857 194.857-17.714 258.857-17.714s201.143-5.143 258.857 17.714c20 8 34.857 17.714 50.286 33.143s25.143 30.286 33.143 50.286c22.857 57.714 17.714 194.857 17.714 258.857s5.143 201.143-17.714 258.857c-8 20-17.714 34.857-33.143 50.286s-30.286 25.143-50.286 33.143c-57.714 22.857-194.857 17.714-258.857 17.714zM877.714 438.857c0-60.571 0.571-120.571-2.857-181.143-3.429-70.286-19.429-132.571-70.857-184s-113.714-67.429-184-70.857c-60.571-3.429-120.571-2.857-181.143-2.857s-120.571-0.571-181.143 2.857c-70.286 3.429-132.571 19.429-184 70.857s-67.429 113.714-70.857 184c-3.429 60.571-2.857 120.571-2.857 181.143s-0.571 120.571 2.857 181.143c3.429 70.286 19.429 132.571 70.857 184s113.714 67.429 184 70.857c60.571 3.429 120.571 2.857 181.143 2.857s120.571 0.571 181.143-2.857c70.286-3.429 132.571-19.429 184-70.857s67.429-113.714 70.857-184c3.429-60.571 2.857-120.571 2.857-181.143z" />
<glyph unicode="&#xe941;" glyph-name="facebook-square" horiz-adv-x="878" d="M713.143 877.714c90.857 0 164.571-73.714 164.571-164.571v-548.571c0-90.857-73.714-164.571-164.571-164.571h-107.429v340h113.714l17.143 132.571h-130.857v84.571c0 38.286 10.286 64 65.714 64l69.714 0.571v118.286c-12 1.714-53.714 5.143-101.714 5.143-101.143 0-170.857-61.714-170.857-174.857v-97.714h-114.286v-132.571h114.286v-340h-304c-90.857 0-164.571 73.714-164.571 164.571v548.571c0 90.857 73.714 164.571 164.571 164.571h548.571z" />
<glyph unicode="&#xe942;" glyph-name="phone-square" horiz-adv-x="878" d="M731.429 269.143c0 2.857 0 6.286-1.143 9.143-3.429 10.286-86.857 52.571-102.857 61.714-10.857 6.286-24 18.857-37.143 18.857-25.143 0-62.286-74.857-84.571-74.857-11.429 0-25.714 10.286-36 16-75.429 42.286-127.429 94.286-169.714 169.714-5.714 10.286-16 24.571-16 36 0 22.286 74.857 59.429 74.857 84.571 0 13.143-12.571 26.286-18.857 37.143-9.143 16-51.429 99.429-61.714 102.857-2.857 1.143-6.286 1.143-9.143 1.143-14.857 0-44-6.857-57.714-12.571-37.714-17.143-65.143-89.143-65.143-128.571 0-38.286 15.429-73.143 28.571-108.571 45.714-125.143 181.714-261.143 306.857-306.857 35.429-13.143 70.286-28.571 108.571-28.571 39.429 0 111.429 27.429 128.571 65.143 5.714 13.714 12.571 42.857 12.571 57.714zM877.714 713.143v-548.571c0-90.857-73.714-164.571-164.571-164.571h-548.571c-90.857 0-164.571 73.714-164.571 164.571v548.571c0 90.857 73.714 164.571 164.571 164.571h548.571c90.857 0 164.571-73.714 164.571-164.571z" />
<glyph unicode="&#xe943;" glyph-name="arrow-right" horiz-adv-x="841" d="M841.143 402.286c0-19.429-7.429-38.286-21.143-52l-372-372c-13.714-13.143-32.571-21.143-52-21.143s-37.714 8-51.429 21.143l-42.857 42.857c-13.714 13.714-21.714 32.571-21.714 52s8 38.286 21.714 52l167.429 167.429h-402.286c-41.143 0-66.857 34.286-66.857 73.143v73.143c0 38.857 25.714 73.143 66.857 73.143h402.286l-167.429 168c-13.714 13.143-21.714 32-21.714 51.429s8 38.286 21.714 51.429l42.857 42.857c13.714 13.714 32 21.714 51.429 21.714s38.286-8 52-21.714l372-372c13.714-13.143 21.143-32 21.143-51.429z" />
<glyph unicode="&#xe944;" glyph-name="arrow-left" horiz-adv-x="914" d="M877.714 438.857v-73.143c0-38.857-25.714-73.143-66.857-73.143h-402.286l167.429-168c13.714-13.143 21.714-32 21.714-51.429s-8-38.286-21.714-51.429l-42.857-43.429c-13.143-13.143-32-21.143-51.429-21.143s-38.286 8-52 21.143l-372 372.571c-13.143 13.143-21.143 32-21.143 51.429s8 38.286 21.143 52l372 371.429c13.714 13.714 32.571 21.714 52 21.714s37.714-8 51.429-21.714l42.857-42.286c13.714-13.714 21.714-32.571 21.714-52s-8-38.286-21.714-52l-167.429-167.429h402.286c41.143 0 66.857-34.286 66.857-73.143z" />
<glyph unicode="&#xe945;" glyph-name="arrow-down" horiz-adv-x="951" d="M920.571 475.428c0-19.429-8-38.286-21.143-51.429l-372-372.571c-13.714-13.143-32.571-21.143-52-21.143s-38.286 8-51.429 21.143l-372 372.571c-13.714 13.143-21.714 32-21.714 51.429s8 38.286 21.714 52l42.286 42.857c13.714 13.143 32.571 21.143 52 21.143s38.286-8 51.429-21.143l168-168v402.286c0 40 33.143 73.143 73.143 73.143h73.143c40 0 73.143-33.143 73.143-73.143v-402.286l168 168c13.143 13.143 32 21.143 51.429 21.143s38.286-8 52-21.143l42.857-42.857c13.143-13.714 21.143-32.571 21.143-52z" />
<glyph unicode="&#xe946;" glyph-name="arrow-up" horiz-adv-x="951" d="M920.571 396c0-19.429-8-37.714-21.143-51.429l-42.857-42.857c-13.714-13.714-32.571-21.714-52-21.714s-38.286 8-51.429 21.714l-168 167.429v-402.286c0-41.143-34.286-66.857-73.143-66.857h-73.143c-38.857 0-73.143 25.714-73.143 66.857v402.286l-168-167.429c-13.143-13.714-32-21.714-51.429-21.714s-38.286 8-51.429 21.714l-42.857 42.857c-13.714 13.714-21.714 32-21.714 51.429s8 38.286 21.714 52l372 372c13.143 13.714 32 21.143 51.429 21.143s38.286-7.429 52-21.143l372-372c13.143-13.714 21.143-32.571 21.143-52z" />
<glyph unicode="&#xe947;" horiz-adv-x="1002" d="M501.106 816.172c0 0-1.981 122.801-183.211 134.685 0 0 83.188-63.381 47.536-151.52-210.94-52.487-365.431-223.814-365.431-427.822 0-245.602 224.805-444.658 501.106-444.658s501.106 199.056 501.106 444.658-224.805 444.658-501.106 444.658z" />
<glyph unicode="&#xe948;" horiz-adv-x="1002" d="M709.075 515.112c20.797 2.971 41.594 8.913 61.4 17.826-13.865-21.787-31.691-40.603-53.478-56.449 0-3.961 0-8.913 0-12.874 0-36.642-6.932-72.294-20.797-107.946s-32.681-68.333-57.439-98.043-57.439-53.478-97.052-72.294-83.188-27.729-130.723-27.729c-59.42 0-114.878 15.845-165.385 48.526 8.913-0.99 17.826-0.99 25.749-0.99 49.516 0 94.081 15.845 133.694 46.545-22.778 0-43.574 6.932-62.391 20.797-17.826 13.865-30.7 31.691-38.623 53.478 6.932-0.99 13.865-1.981 20.797-1.981 9.903 0 18.816 0.99 28.72 2.971-25.749 5.942-45.555 17.826-62.391 37.632-15.845 19.807-23.768 42.584-23.768 67.342v1.981c14.855-8.913 30.7-12.874 48.526-12.874-31.691 20.797-48.526 50.507-48.526 89.13 0 19.807 4.952 37.632 15.845 54.468 26.739-33.671 59.42-60.41 98.043-80.217s80.217-30.7 123.791-32.681c-1.981 7.923-2.971 16.836-2.971 24.758 0 29.71 10.894 54.468 31.691 76.255 20.797 20.797 46.545 31.691 76.255 31.691 31.691 0 57.439-10.894 79.226-33.671 24.758 4.952 47.536 12.874 68.333 25.749-8.913-26.739-24.758-46.545-48.526-61.4z" />
<glyph unicode="&#xe949;" horiz-adv-x="966" d="M965.738 522.719c0 236.579-216.276 428.138-482.869 428.138s-482.869-191.559-482.869-428.138c0-221.572 189.793-404.303 433.434-426.372 0 0 15.007-126.234 99.752-169.49 0 0-50.317 90.041-8.828 168.607 246.29 19.421 441.379 203.034 441.379 427.255z" />
<glyph unicode="&#xe94a;" horiz-adv-x="966" d="M402.538 502.416h-65.324v90.041h65.324v52.966c0 40.607 7.945 70.621 22.952 90.041s43.255 29.131 83.862 29.131h90.041v-90.041h-62.676c-15.89 0-25.6-2.648-30.014-7.945s-6.179-15.007-6.179-29.131v-45.021h98.869l-8.828-90.041h-89.159v-263.062h-98.869v263.062z" />
<glyph unicode="&#xe94b;" horiz-adv-x="966" d="M965.738 522.719c0 236.579-216.276 428.138-482.869 428.138s-482.869-191.559-482.869-428.138c0-221.572 189.793-404.303 433.434-426.372 0 0 15.007-126.234 99.752-169.49 0 0-50.317 90.041-8.828 168.607 247.172 19.421 441.379 203.034 441.379 427.255z" />
<glyph unicode="&#xe94c;" horiz-adv-x="966" d="M653.241 444.154c0 0-23.834 20.303 35.31 34.428 61.793 14.124 69.738 37.076 56.497 52.966-9.71 11.476-20.303 15.89-60.91 3.531s-47.669-8.828-47.669-8.828c0 27.366 47.669 237.462-147.421 238.345v0 0 0 0c-195.090-0.883-147.421-210.979-147.421-238.345 0 0-13.241-10.593-42.372-1.766s-8.828 35.31-8.828 35.31 7.945 14.124-3.531 17.655c-10.593 3.531-15.007-16.772-21.186-18.538s-13.241 25.6-24.717 21.186c-11.476-5.297-7.062-17.655-1.766-21.186s7.945-14.124-2.648-12.359c-9.71 1.766-19.421-0.883-18.538-9.71 0.883-12.359 22.952-6.179 30.897-22.952s30.897-28.248 46.786-36.193c15.89-7.945 38.841-17.655 30.014-32.662-15.007-25.6-116.524-52.083-110.345-67.090s81.214-19.421 81.214-19.421c-12.359-18.538 0-37.959 0-37.959s58.262 30.897 106.814-8.828c45.903-37.076 82.979-34.428 86.51-33.545 4.414-0.883 40.607-3.531 86.51 33.545 48.552 39.724 106.814 8.828 106.814 8.828s12.359 20.303 0 37.959c0 0 75.034 4.414 81.214 19.421 5.297 14.124-94.455 41.49-111.228 66.207zM534.952 671.905c10.593 0 19.421-11.476 19.421-25.6s-8.828-25.6-19.421-25.6-19.421 11.476-19.421 25.6c0 14.124 8.828 25.6 19.421 25.6zM442.262 671.905c10.593 0 19.421-11.476 19.421-25.6s-8.828-25.6-19.421-25.6-19.421 11.476-19.421 25.6c0.883 14.124 8.828 25.6 19.421 25.6zM551.724 546.554c-14.124-10.593-23.834 1.766-28.248 7.945-8.828-3.531-19.421-5.297-33.545-5.297-49.434 0-62.676 27.366-63.559 28.248-1.766 4.414 0 9.71 4.414 12.359 4.414 1.766 9.71 0 12.359-4.414 0.883-0.883 9.71-17.655 46.786-17.655 36.193 0 43.255 16.772 43.255 16.772 1.766 4.414 7.062 7.062 11.476 6.179 4.414-1.766 7.062-7.062 6.179-11.476 0 0-0.883-3.531-4.414-7.945 7.945-6.179 16.772-15.89 5.297-24.717z" />
<glyph unicode="&#xe94d;" horiz-adv-x="1080" d="M776.591 831.079c13.745 75.597 151.195 87.379 151.195 87.379-219.919 94.251-293.553-47.126-293.553-47.126v0c-30.435 4.909-61.852 7.854-94.251 7.854-298.462 0-539.981-213.047-539.981-476.165s241.519-476.165 539.981-476.165 539.981 213.047 539.981 476.165c0 188.502-123.705 351.478-303.371 428.058z" />
<glyph unicode="&#xe94e;" horiz-adv-x="1080" d="M763.827 643.559c3.927-3.927 6.872-9.818 6.872-14.727v-434.93c0-5.891-1.964-10.8-6.872-14.727-3.927-3.927-9.818-6.872-14.727-6.872h-434.93c-5.891 0-10.8 1.964-14.727 6.872-3.927 3.927-6.872 9.818-6.872 14.727v434.93c0 5.891 1.964 10.8 6.872 14.727 3.927 3.927 9.818 6.872 14.727 6.872h434.93c5.891 0 10.8-1.964 14.727-6.872zM710.811 441.311h-39.271c1.964-9.818 2.945-19.636 2.945-29.453 0-39.271-13.745-72.652-42.217-101.124s-61.852-42.217-101.124-42.217-72.652 13.745-101.124 42.217c-27.49 28.472-42.217 61.852-42.217 101.124 0 9.818 0.982 19.636 2.945 29.453h-39.271v-209.12h358.351l0.982 209.12zM532.127 494.328c-22.581 0-42.217-7.854-58.907-24.545-15.709-15.709-24.545-35.344-24.545-58.907 0-22.581 7.854-42.217 24.545-58.907 15.709-15.709 35.344-24.545 58.907-24.545 22.581 0 42.217 7.854 58.907 24.545 15.709 15.709 24.545 35.344 24.545 58.907 0 22.581-7.854 42.217-24.545 58.907s-36.326 24.545-58.907 24.545zM710.811 590.543h-89.342v-89.342h89.342v89.342z" />
<glyph unicode="&#xe94f;" horiz-adv-x="1103" d="M237.232 75.002c18.018-120.117-169.165-106.104-169.165-106.104 197.193-109.107 362.354 31.030 362.354 31.030v0c39.038-8.008 80.078-12.012 121.118-12.012 304.297 0 551.539 215.21 551.539 481.47s-246.24 481.47-551.539 481.47c-304.297 0-551.539-215.21-551.539-481.47 1.001-163.159 94.092-307.3 237.232-394.385z" />
<glyph unicode="&#xe950;" horiz-adv-x="1103" d="M322.315 558.474c1.001 52.051 22.022 97.095 60.059 134.131 39.038 37.036 83.081 58.057 133.13 63.062 63.062 7.007 118.115-3.003 166.162-32.031s76.074-70.068 83.081-125.122c6.006-43.042 3.003-85.083-10.010-125.122s-35.034-73.071-66.065-99.097c-31.030-25.024-67.065-36.035-108.106-32.031-8.008 1.001-16.016 2.002-23.022 5.005s-13.013 5.005-17.017 8.008-10.010 7.007-18.018 12.012c-7.007 5.005-13.013 9.009-18.018 11.011-10.010-49.048-21.021-88.086-33.032-120.117s-31.030-56.055-55.054-74.072c-2.002 28.027-3.003 50.049-3.003 68.066s2.002 39.038 6.006 63.062c4.004 24.023 8.008 44.043 12.012 59.058 4.004 16.016 9.009 35.034 15.015 57.056s10.010 41.040 13.013 56.055c-7.007 14.014-11.011 31.030-11.011 50.049s3.003 36.035 10.010 52.051c6.006 15.015 16.016 27.026 30.029 35.034s29.028 9.009 45.044 3.003c16.016-6.006 24.023-17.017 26.025-34.033 1.001-17.017-1.001-35.034-8.008-55.054s-13.013-39.038-19.019-59.058c-6.006-19.019-7.007-37.036-2.002-52.051 4.004-15.015 16.016-24.023 36.035-28.027 26.025-5.005 49.048 2.002 70.068 22.022s35.034 45.044 43.042 74.072 10.010 60.059 6.006 93.091c-4.004 32.031-14.014 57.056-30.029 74.072-19.019 19.019-42.041 32.031-68.066 38.037s-52.051 5.005-76.074-3.003c-25.024-8.008-47.046-20.020-68.066-36.035s-36.035-36.035-46.045-62.061c-10.010-26.025-13.013-52.051-9.009-80.078 1.001-7.007 3.003-15.015 8.008-23.022 4.004-8.008 8.008-14.014 12.012-20.020 3.003-5.005 5.005-13.013 5.005-22.022s-3.003-20.020-10.010-31.030c-57.056 15.015-84.082 59.058-81.079 135.132z" />
<glyph unicode="&#xe951;" glyph-name="search" d="M146.286 811.055c77.132 75.803 168.894 113.039 275.283 113.039 107.719 0 199.481-38.566 275.283-114.369s114.369-167.564 114.369-275.283c0-90.431-29.257-172.883-86.442-244.696l256.665-256.665c9.309-7.979 13.299-17.288 13.299-29.257s-3.99-21.278-11.969-30.587c-7.979-7.979-18.618-11.969-30.587-11.969s-21.278 3.99-29.257 13.299l-256.665 257.995c-71.813-57.184-154.265-86.442-244.696-86.442-107.719 0-199.481 38.566-275.283 114.369s-114.369 167.564-114.369 275.283c1.33 107.719 38.566 199.481 114.369 275.283zM188.842 303.044c63.834-63.834 142.296-95.751 232.727-95.751s168.894 31.917 232.727 95.751 95.751 142.296 95.751 232.727-31.917 168.894-95.751 232.727-142.296 95.751-232.727 95.751-168.894-31.917-232.727-95.751-95.751-142.296-95.751-232.727 31.917-168.894 95.751-232.727zM952.187-58.681c-17.288 0-31.917 6.649-43.886 19.948l-243.366 244.696c-71.813-53.195-154.265-79.792-243.366-79.792-111.709 0-210.119 39.896-289.912 119.688s-119.688 176.873-119.688 289.912c1.33 114.369 41.226 211.449 119.688 289.912v0c79.792 78.462 176.873 118.358 289.912 118.358 111.709 0 210.119-39.896 289.912-119.688s119.688-176.873 119.688-289.912c0-89.101-26.597-170.223-79.792-243.366l243.366-243.366c13.299-11.969 19.948-26.597 19.948-43.886 0-15.958-5.319-30.587-17.288-43.886v-1.33c-11.969-10.639-27.927-17.288-45.216-17.288zM667.595 259.158l269.964-271.294c3.99-5.319 7.979-6.649 14.629-6.649s11.969 1.33 15.958 5.319c5.319 5.319 6.649 10.639 6.649 17.288s-1.33 10.639-6.649 14.629l-269.964 269.964 10.639 13.299c54.525 67.823 82.452 146.286 82.452 232.727 0 101.070-35.906 188.842-109.049 260.655-71.813 71.813-159.584 109.049-260.655 109.049-102.4 0-187.512-34.577-260.655-107.719-71.813-71.813-107.719-156.925-109.049-260.655 0-101.070 35.906-188.842 109.049-260.655 71.813-71.813 159.584-109.049 260.655-109.049 85.112 0 163.574 27.927 232.727 82.452l13.299 10.639zM421.569 187.345c-95.751 0-179.532 34.577-247.356 101.070v0c-67.823 67.823-101.070 150.275-101.070 247.356s34.577 179.532 101.070 247.356c67.823 66.494 151.605 101.070 247.356 101.070s179.532-34.577 247.356-101.070c67.823-67.823 101.070-150.275 101.070-247.356 0-95.751-34.577-179.532-101.070-247.356-67.823-66.494-151.605-101.070-247.356-101.070zM203.47 317.673c59.844-59.844 132.987-90.431 218.099-90.431s159.584 30.587 218.099 90.431c59.844 59.844 90.431 132.987 90.431 218.099s-30.587 159.584-90.431 218.099c-58.514 59.844-132.987 90.431-218.099 90.431s-159.584-30.587-218.099-90.431c-59.844-59.844-90.431-132.987-90.431-218.099s30.587-159.584 90.431-218.099v0z" />
<glyph unicode="&#xe952;" glyph-name="time" horiz-adv-x="1015" d="M982.813 448.71c0-132.083-46.868-244.283-139.184-338.019-93.736-93.736-205.936-139.184-338.019-139.184s-244.283 46.868-338.019 139.184c-92.316 92.316-139.184 205.936-139.184 338.019s46.868 244.283 139.184 338.019c93.736 93.736 205.936 139.184 338.019 139.184s244.283-46.868 338.019-139.184c92.316-93.736 139.184-207.356 139.184-338.019zM798.18 741.282c-80.954 80.954-177.531 120.721-292.571 120.721s-211.617-39.767-292.571-120.721-120.721-178.951-120.721-292.571c0-115.040 39.767-211.617 120.721-292.571s177.531-120.721 292.571-120.721 211.617 39.767 292.571 120.721 120.721 177.531 120.721 292.571c0 113.62-39.767 211.617-120.721 292.571zM718.646 472.854c5.681-5.681 8.521-14.202 8.521-22.724 0-9.942-2.84-17.043-8.521-22.724s-14.202-8.521-22.724-8.521h-191.734c-9.942 0-17.043 2.84-22.724 8.521s-8.521 14.202-8.521 22.724v255.645c0 9.942 2.84 17.043 8.521 22.724s14.202 8.521 22.724 8.521c9.942 0 17.043-2.84 22.724-8.521s8.521-14.202 8.521-22.724v-224.399h160.488c8.521 0 17.043-2.84 22.724-8.521zM505.609-49.798c-136.344 0-255.645 48.288-353.642 144.865-96.577 96.577-144.865 215.878-144.865 353.642 0 136.344 48.288 255.645 144.865 353.642 96.577 96.577 215.878 144.865 353.642 144.865 136.344 0 255.645-48.288 353.642-144.865 96.577-97.997 144.865-217.298 144.865-353.642s-48.288-255.645-144.865-353.642c-96.577-96.577-215.878-144.865-353.642-144.865zM505.609 904.61c-127.822 0-232.921-44.028-322.397-133.503-89.476-90.896-133.503-195.994-133.503-322.397s44.028-234.341 133.503-322.397c90.896-89.476 195.994-133.503 322.397-133.503 127.822 0 232.921 44.028 322.397 133.503 89.476 90.896 133.503 195.994 133.503 322.397 0 124.982-45.448 232.921-133.503 322.397-90.896 89.476-195.994 133.503-322.397 133.503zM505.609 14.114c-122.141 0-221.559 41.187-308.194 126.402-85.215 85.215-126.402 186.053-126.402 308.194 0 119.301 42.607 222.979 126.402 308.194 85.215 85.215 186.053 126.402 308.194 126.402s221.559-41.187 308.194-126.402v0c83.795-83.795 126.402-187.473 126.402-308.194 0-122.141-41.187-221.559-126.402-308.194-86.635-85.215-186.053-126.402-308.194-126.402zM505.609 840.699c-109.359 0-200.255-36.926-276.949-115.040-76.693-75.273-115.040-169.010-115.040-276.949 0-109.359 36.926-200.255 115.040-276.949 76.693-76.693 167.589-115.040 276.949-115.040s200.255 36.926 276.949 115.040c76.693 76.693 115.040 167.589 115.040 276.949 0 107.939-38.347 201.675-115.040 276.949-76.693 78.114-167.589 115.040-276.949 115.040zM695.922 397.581h-191.734c-15.623 0-28.405 4.261-38.347 14.202s-14.202 22.724-14.202 38.347v255.645c0 15.623 4.261 28.405 14.202 38.347s22.724 14.202 38.347 14.202c15.623 0 28.405-4.261 38.347-14.202s14.202-22.724 14.202-38.347v-203.096h139.184c14.202 0 28.405-5.681 38.347-14.202v0 0 0c9.942-9.942 14.202-22.724 14.202-38.347s-4.261-28.405-14.202-38.347c-9.942-8.521-24.144-14.202-38.347-14.202zM504.189 715.717c-4.261 0-7.101-1.42-7.101-2.84-1.42-1.42-2.84-2.84-2.84-7.101v-255.645c0-4.261 1.42-7.101 2.84-7.101 1.42-1.42 2.84-2.84 7.101-2.84h191.734c4.261 0 7.101 1.42 7.101 2.84 1.42 1.42 2.84 2.84 2.84 7.101s-1.42 7.101-2.84 7.101v0c-1.42 1.42-4.261 2.84-7.101 2.84h-181.792v245.703c0 4.261-1.42 7.101-2.84 7.101 0 1.42-1.42 2.84-7.101 2.84z" />
<glyph unicode="&#xe953;" glyph-name="!" horiz-adv-x="1019" d="M988 445.333c0-132-46.667-245.333-140-340s-208-140-340-140-245.333 46.667-340 140-140 208-140 340 46.667 245.333 140 340 208 140 340 140 245.333-46.667 340-140 140-208 140-340zM928 445.333c0 116-41.333 214.667-122.667 297.333-81.333 81.333-181.333 122.667-297.333 122.667s-214.667-41.333-297.333-122.667c-81.333-81.333-122.667-181.333-122.667-297.333s41.333-214.667 122.667-297.333c81.333-81.333 181.333-122.667 297.333-122.667s214.667 41.333 297.333 122.667c81.333 81.333 122.667 181.333 122.667 297.333zM568 685.333v-300c0-16-5.333-30.667-17.333-42.667s-25.333-17.333-42.667-17.333c-16 0-30.667 5.333-42.667 17.333s-17.333 25.333-17.333 42.667v300c0 16 5.333 30.667 17.333 42.667s25.333 17.333 42.667 17.333c16 0 30.667-5.333 42.667-17.333s17.333-26.667 17.333-42.667zM508 266.667c16 0 30.667-5.333 42.667-17.333s17.333-26.667 17.333-42.667-5.333-30.667-17.333-42.667c-12-10.667-25.333-17.333-42.667-17.333-16 0-30.667 5.333-42.667 17.333-12 10.667-17.333 25.333-17.333 42.667s5.333 30.667 17.333 42.667c12 12 26.667 17.333 42.667 17.333zM508-54.667c-137.333 0-256 49.333-354.667 145.333-97.333 96-145.333 214.667-145.333 354.667 0 137.333 49.333 256 145.333 354.667 96 96 214.667 145.333 354.667 145.333 137.333 0 256-49.333 354.667-145.333 97.333-96 145.333-214.667 145.333-354.667 0-137.333-49.333-256-145.333-354.667-96-96-214.667-145.333-354.667-145.333zM508 905.333c-128 0-238.667-45.333-325.333-134.667-89.333-90.667-134.667-200-134.667-325.333 0-128 45.333-238.667 134.667-325.333 90.667-89.333 200-134.667 325.333-134.667 128 0 238.667 45.333 325.333 134.667 89.333 90.667 134.667 200 134.667 325.333 0 128-45.333 238.667-134.667 325.333-89.333 89.333-200 134.667-325.333 134.667zM508 5.333c-121.333 0-226.667 42.667-312 128-85.333 86.667-128 192-128 312 0 121.333 42.667 226.667 128 312 86.667 85.333 192 128 312 128 121.333 0 226.667-42.667 312-128 85.333-86.667 128-192 128-312 0-121.333-42.667-226.667-128-312-86.667-85.333-192-128-312-128zM508 845.333c-110.667 0-204-38.667-282.667-117.333-77.333-77.333-117.333-173.333-117.333-282.667 0-110.667 38.667-204 117.333-282.667 77.333-77.333 173.333-117.333 282.667-117.333 110.667 0 204 38.667 282.667 117.333 77.333 77.333 117.333 173.333 117.333 282.667 0 110.667-38.667 204-117.333 282.667-77.333 78.667-172 117.333-282.667 117.333zM508 126.667c-21.333 0-41.333 8-57.333 22.667-14.667 13.333-22.667 33.333-22.667 57.333 0 22.667 8 41.333 22.667 57.333 14.667 14.667 34.667 22.667 57.333 22.667 21.333 0 41.333-8 57.333-22.667s22.667-34.667 22.667-57.333-8-41.333-22.667-57.333c-18.667-16-36-22.667-57.333-22.667zM508 246.667c-12 0-21.333-4-28-12-8-8-12-16-12-28s4-21.333 10.667-28c8-8 17.333-12 29.333-12 10.667 0 20 4 29.333 12 6.667 6.667 10.667 16 10.667 28s-4 21.333-12 28-16 12-28 12zM508 305.333c-21.333 0-41.333 8-57.333 22.667-16 16-22.667 34.667-22.667 57.333v300c0 21.333 8 41.333 22.667 57.333 16 16 34.667 22.667 57.333 22.667s41.333-8 57.333-22.667c14.667-14.667 22.667-34.667 22.667-57.333v-300c0-22.667-8-41.333-22.667-57.333-16-14.667-34.667-22.667-57.333-22.667zM508 725.333c-12 0-20-2.667-28-12-8-8-12-17.333-12-28v-300c0-12 2.667-20 12-28 8-8 17.333-12 28-12 12 0 20 2.667 28 12 8 8 12 17.333 12 28v300c0 12-4 21.333-12 28-6.667 8-16 12-28 12z" />
<glyph unicode="&#xe954;" glyph-name="lock2" d="M809.768 628.547v-56.589h60.632c16.168 0 30.989-5.389 43.116-17.516s17.516-25.6 17.516-43.116v-485.053c0-16.168-5.389-30.989-17.516-43.116s-25.6-17.516-43.116-17.516h-727.579c-16.168 0-30.989 5.389-43.116 17.516s-17.516 25.6-17.516 43.116v485.053c0 16.168 5.389 30.989 17.516 43.116s25.6 17.516 43.116 17.516h60.632v56.589c0 84.884 29.642 156.295 88.926 216.926s130.695 90.274 214.232 90.274 154.947-29.642 214.232-90.274c59.284-59.284 88.926-132.042 88.926-216.926zM870.4 511.326h-727.579v-485.053h727.579v485.053zM264.084 571.958h485.053v56.589c0 67.368-24.253 125.305-71.411 173.811s-105.095 72.758-171.116 72.758c-67.368 0-123.958-24.253-171.116-72.758s-71.411-106.442-71.411-173.811c0 0 0-56.589 0-56.589zM506.611 147.537c-33.684 0-63.326 12.126-86.232 35.032s-35.032 52.547-35.032 86.232 12.126 63.326 35.032 86.232c22.905 22.905 52.547 35.032 86.232 35.032s63.326-12.126 86.232-35.032c22.905-22.905 35.032-52.547 35.032-86.232s-12.126-63.326-35.032-86.232c-22.905-22.905-51.2-35.032-86.232-35.032zM567.242 268.8c0 16.168-5.389 30.989-17.516 43.116s-25.6 17.516-43.116 17.516c-16.168 0-30.989-5.389-43.116-17.516s-17.516-25.6-17.516-43.116c0-16.168 5.389-30.989 17.516-43.116s25.6-17.516 43.116-17.516c16.168 0 30.989 5.389 43.116 17.516s17.516 26.947 17.516 43.116zM870.4-54.568h-727.579c-22.905 0-41.768 8.084-57.937 22.905-16.168 16.168-22.905 35.032-22.905 57.937v485.053c0 21.558 8.084 41.768 22.905 57.937 16.168 16.168 35.032 22.905 57.937 22.905h40.421v36.379c0 90.274 30.989 165.726 94.316 230.4 61.979 63.326 138.779 97.011 229.053 97.011s165.726-32.337 229.053-97.011c63.326-63.326 94.316-140.126 94.316-230.4v-36.379h40.421c22.905 0 41.768-8.084 57.937-22.905 16.168-16.168 22.905-35.032 22.905-57.937v-485.053c0-21.558-8.084-41.768-22.905-57.937-16.168-14.821-35.032-22.905-57.937-22.905zM142.821 551.747c-12.126 0-20.211-2.695-28.295-12.126-8.084-8.084-12.126-17.516-12.126-28.295v-485.053c0-12.126 2.695-20.211 12.126-28.295 8.084-8.084 17.516-12.126 28.295-12.126h727.579c12.126 0 20.211 2.695 28.295 12.126 8.084 8.084 12.126 17.516 12.126 28.295v485.053c0 12.126-2.695 20.211-12.126 28.295-8.084 8.084-17.516 12.126-28.295 12.126h-80.842v76.8c0 79.495-28.295 148.211-83.537 202.105-55.242 56.589-121.263 84.884-199.411 84.884-79.495 0-144.168-26.947-199.411-83.537-56.589-56.589-83.537-123.958-83.537-203.453v-76.8h-80.842zM890.611 6.063h-768v525.474h768v-525.474zM163.032 46.484h687.158v444.632h-687.158v-444.632zM506.611 127.326c-39.074 0-74.105 14.821-101.053 40.421-26.947 26.947-40.421 61.979-40.421 101.053s14.821 74.105 40.421 101.053c26.947 26.947 61.979 40.421 101.053 40.421s74.105-14.821 101.053-40.421c26.947-26.947 40.421-61.979 40.421-101.053s-14.821-74.105-40.421-101.053c-28.295-26.947-61.979-40.421-101.053-40.421zM506.611 369.853c-28.295 0-52.547-9.432-71.411-29.642-18.863-18.863-29.642-43.116-29.642-71.411s9.432-52.547 29.642-71.411c18.863-18.863 43.116-29.642 71.411-29.642s52.547 9.432 71.411 29.642c18.863 18.863 29.642 43.116 29.642 71.411s-9.432 52.547-29.642 71.411c-18.863 20.211-43.116 29.642-71.411 29.642zM506.611 187.958c-22.905 0-41.768 8.084-57.937 22.905-14.821 14.821-22.905 35.032-22.905 57.937s8.084 41.768 22.905 57.937c14.821 14.821 35.032 22.905 57.937 22.905s41.768-8.084 57.937-22.905c14.821-14.821 22.905-35.032 22.905-57.937s-8.084-41.768-22.905-57.937c-16.168-14.821-35.032-22.905-57.937-22.905zM506.611 309.221c-12.126 0-21.558-4.042-28.295-12.126-8.084-8.084-12.126-16.168-12.126-28.295s4.042-21.558 12.126-28.295c8.084-8.084 16.168-12.126 28.295-12.126s21.558 4.042 28.295 12.126c8.084 8.084 12.126 17.516 12.126 28.295s-4.042 21.558-12.126 28.295c-8.084 9.432-16.168 12.126-28.295 12.126zM769.347 551.747h-525.474v76.8c0 71.411 25.6 134.737 76.8 187.284s113.179 79.495 185.937 79.495c72.758 0 134.737-26.947 185.937-79.495s76.8-115.874 76.8-187.284v-76.8zM284.295 592.168h444.632v36.379c0 60.632-21.558 114.526-66.021 160.337-43.116 44.463-95.663 66.021-156.295 66.021-61.979 0-113.179-21.558-156.295-66.021s-66.021-98.358-66.021-160.337v-36.379z" />
<glyph unicode="&#xe955;" glyph-name="mobile" d="M296.13-48.778c-16.605 0-31.827 5.535-44.281 17.989s-17.989 26.292-17.989 44.281v871.784c0 16.605 5.535 31.827 17.989 44.281s26.292 17.989 44.281 17.989h435.892c16.605 0 31.827-5.535 44.281-17.989s17.989-26.292 17.989-44.281v-871.784c0-16.605-5.535-31.827-17.989-44.281s-26.292-17.989-44.281-17.989h-435.892zM296.13 138.032h435.892v622.703h-435.892v-622.703zM451.114 885.276c-9.686 0-16.605-2.768-22.141-8.303s-8.303-13.838-8.303-22.141c0-9.686 2.768-16.605 8.303-22.141s13.838-8.303 22.141-8.303c9.686 0 16.605 2.768 22.141 8.303s8.303 13.838 8.303 22.141c0 9.686-2.768 16.605-8.303 22.141s-12.454 8.303-22.141 8.303zM517.535 13.492c9.686 0 16.605 4.151 24.908 11.070 6.919 6.919 11.070 15.222 11.070 24.908s-4.151 16.605-11.070 24.908c-6.919 6.919-15.222 11.070-24.908 11.070s-16.605-4.151-24.908-11.070c-6.919-6.919-11.070-15.222-11.070-24.908s4.151-16.605 11.070-24.908c8.303-8.303 15.222-11.070 24.908-11.070zM575.654 885.276c-9.686 0-16.605-2.768-22.141-8.303s-8.303-13.838-8.303-22.141c0-9.686 2.768-16.605 8.303-22.141s13.838-8.303 22.141-8.303h62.27c9.686 0 16.605 2.768 22.141 8.303s8.303 13.838 8.303 22.141c0 9.686-2.768 16.605-8.303 22.141s-13.838 8.303-22.141 8.303h-62.27zM732.022-62.616h-435.892c-20.757 0-40.13 8.303-53.968 22.141-15.222 15.222-22.141 31.827-22.141 53.968v871.784c0 20.757 8.303 40.13 22.141 53.968 15.222 15.222 31.827 22.141 53.968 22.141h435.892c20.757 0 40.13-8.303 53.968-22.141 15.222-15.222 22.141-31.827 22.141-53.968v-871.784c0-20.757-8.303-40.13-22.141-53.968-15.222-15.222-31.827-22.141-53.968-22.141zM296.13 933.708c-13.838 0-24.908-4.151-34.595-13.838s-13.838-20.757-13.838-34.595v-871.784c0-13.838 4.151-24.908 13.838-34.595s20.757-13.838 34.595-13.838h435.892c13.838 0 24.908 4.151 34.595 13.838s13.838 20.757 13.838 34.595v871.784c0 13.838-4.151 24.908-13.838 34.595s-20.757 13.838-34.595 13.838h-435.892zM517.535-0.346c-13.838 0-23.524 4.151-34.595 15.222-8.303 9.686-15.222 20.757-15.222 34.595 0 12.454 5.535 24.908 15.222 34.595 9.686 8.303 20.757 15.222 34.595 15.222 12.454 0 24.908-5.535 34.595-15.222 8.303-9.686 15.222-19.373 15.222-34.595 0-12.454-5.535-24.908-15.222-34.595-11.070-9.686-20.757-15.222-34.595-15.222zM517.535 71.611c-5.535 0-8.303-1.384-16.605-8.303-4.151-4.151-5.535-8.303-5.535-13.838s1.384-8.303 8.303-16.605c5.535-5.535 8.303-5.535 13.838-5.535s8.303 1.384 16.605 8.303c4.151 4.151 5.535 8.303 5.535 13.838s-1.384 8.303-8.303 16.605c-2.768 2.768-8.303 5.535-13.838 5.535zM745.859 124.195h-463.568v650.378h463.568v-650.378zM309.968 151.87h408.216v595.027h-408.216v-595.027zM637.924 810.551h-62.27c-12.454 0-23.524 4.151-31.827 12.454s-12.454 19.373-12.454 31.827c0 12.454 4.151 23.524 12.454 31.827s19.373 12.454 31.827 12.454h62.27c12.454 0 23.524-4.151 31.827-12.454s12.454-19.373 12.454-31.827c0-12.454-4.151-23.524-12.454-31.827s-17.989-12.454-31.827-12.454zM575.654 871.438c-6.919 0-9.686-1.384-12.454-4.151s-4.151-6.919-4.151-12.454c0-6.919 1.384-9.686 4.151-12.454s6.919-4.151 12.454-4.151h62.27c6.919 0 9.686 1.384 12.454 4.151s4.151 6.919 4.151 12.454c0 6.919-1.384 9.686-4.151 12.454s-6.919 4.151-12.454 4.151h-62.27zM451.114 810.551c-12.454 0-23.524 4.151-31.827 12.454s-12.454 19.373-12.454 31.827c0 12.454 4.151 23.524 12.454 31.827s19.373 12.454 31.827 12.454c13.838 0 23.524-4.151 31.827-12.454s12.454-19.373 12.454-31.827c0-12.454-4.151-23.524-12.454-31.827s-17.989-12.454-31.827-12.454zM451.114 871.438c-6.919 0-9.686-1.384-12.454-4.151s-4.151-6.919-4.151-12.454c0-6.919 1.384-9.686 4.151-12.454s6.919-4.151 12.454-4.151c6.919 0 9.686 1.384 12.454 4.151s4.151 6.919 4.151 12.454c0 6.919-1.384 9.686-4.151 12.454s-5.535 4.151-12.454 4.151z" />
<glyph unicode="&#xe956;" glyph-name="right" d="M996.597 446.558c0-134.13-47.594-248.068-141.341-343.256-95.189-95.189-209.127-141.341-343.256-141.341s-248.068 47.594-343.256 141.341c-95.189 95.189-141.341 209.127-141.341 343.256s47.594 248.068 141.341 343.256c95.189 93.746 210.569 141.341 343.256 141.341s248.068-47.594 343.256-141.341c95.189-95.189 141.341-209.127 141.341-343.256zM931.696 445.115c0 115.38-40.383 214.896-122.592 297.104s-180.282 124.034-295.662 124.034-214.896-41.825-297.104-124.034-124.034-181.724-124.034-297.104 41.825-214.896 124.034-295.662c82.208-82.208 181.724-122.592 297.104-122.592s214.896 40.383 295.662 122.592c82.208 80.766 122.592 180.282 122.592 295.662zM672.090 448c0-10.096-2.885-17.307-10.096-21.634l-210.569-212.011c-14.423-14.423-30.287-14.423-46.152 0s-15.865 30.287 1.442 44.71l186.051 188.935-186.051 188.935c-15.865 14.423-15.865 30.287-1.442 44.71 15.865 14.423 30.287 14.423 46.152 0l210.569-210.569c7.211-5.769 10.096-12.98 10.096-23.076zM512-59.673c-138.456 0-259.606 49.037-359.121 147.11-98.073 98.073-147.11 219.223-147.11 359.121 0 138.456 49.037 259.606 147.11 359.121 99.515 98.073 220.665 147.11 359.121 147.11s259.606-49.037 359.121-147.11c98.073-98.073 147.11-219.223 147.11-359.121 0-138.456-49.037-259.606-147.11-359.121-98.073-98.073-219.223-147.11-359.121-147.11zM512 909.521c-126.918 0-236.53-46.152-327.392-135.572-90.862-92.304-135.572-199.031-135.572-327.392 0-129.803 44.71-236.53 135.572-327.392 92.304-90.862 199.031-135.572 327.392-135.572 129.803 0 236.53 44.71 327.392 135.572 90.862 92.304 135.572 199.031 135.572 327.392 0 129.803-44.71 236.53-135.572 327.392-90.862 89.42-200.473 135.572-327.392 135.572zM513.442 5.228c-121.149 0-226.434 43.268-312.969 128.361s-129.803 188.935-129.803 311.527c0 121.149 43.268 226.434 129.803 312.969s191.82 129.803 312.969 129.803c119.707 0 224.992-43.268 311.527-129.803 85.093-85.093 128.361-190.377 128.361-312.969s-43.268-226.434-128.361-311.527c-85.093-85.093-188.935-128.361-311.527-128.361zM513.442 844.62c-109.611 0-203.358-38.941-281.239-118.265-77.882-77.882-118.265-173.070-118.265-281.239 0-109.611 38.941-203.358 118.265-279.797 77.882-77.882 171.628-116.823 281.239-116.823s204.8 38.941 279.797 116.823c77.882 76.439 116.823 170.186 116.823 279.797s-38.941 204.8-116.823 281.239c-79.324 79.324-170.186 118.265-279.797 118.265zM428.349 182.625c-12.98 0-25.961 5.769-37.499 15.865-15.865 14.423-18.749 28.845-18.749 38.941s4.327 24.518 20.192 37.499l170.186 173.070-171.628 173.070c-14.423 12.98-18.749 27.403-18.749 37.499s2.885 23.076 17.307 37.499c24.518 23.076 51.921 23.076 76.439 0l210.569-210.569c11.538-10.096 17.307-23.076 17.307-38.941 0-20.192-8.654-31.73-17.307-38.941l-209.127-209.127c-11.538-10.096-24.518-15.865-38.941-15.865zM428.349 671.549c-2.885 0-4.327-1.442-8.654-5.769-2.885-2.885-2.885-5.769-2.885-5.769 0-1.442 1.442-2.885 4.327-7.211l201.915-204.8-201.915-206.242c-4.327-2.885-5.769-5.769-5.769-5.769s1.442-2.885 4.327-5.769c8.654-7.211 11.538-5.769 15.865 0l214.896 214.896c0 0 0 1.442 0 2.885 0 4.327-1.442 5.769-1.442 5.769l-2.885 1.442-210.569 210.569c-2.885 4.327-4.327 5.769-7.211 5.769z" />
</font>
</defs>
</svg>
