<?xml version="1.0" encoding="utf-8"?>
<!-- Generator: Adobe Illustrator 19.0.0, SVG Export Plug-In . SVG Version: 6.00 Build 0)  -->
<svg version="1.1" id="Layer_1" xmlns="http://www.w3.org/2000/svg" xmlns:xlink="http://www.w3.org/1999/xlink" x="0px" y="0px"
	 viewBox="0 0 336.9 331.7" style="enable-background:new 0 0 336.9 331.7;" xml:space="preserve">
<style type="text/css">
	.st0{fill:#D1D3D4;}
	.st1{fill:#FFFFFF;stroke:#414142;stroke-width:2;}
</style>
<path class="st0" d="M1,259l30.9,30.9v13.2c0,15.8,12.8,28.6,28.6,28.6h246.9c15.8,0,28.6-12.8,28.6-28.6V56.2
	c0-15.8-12.8-28.6-28.6-28.6H60.4c-15.8,0-28.6,12.8-28.6,28.6v171.9L1,232.5"/>
<path class="st1" d="M1,232.5l30.9,30.9v13.2c0,15.8,12.8,28.6,28.6,28.6h246.9c15.8,0,28.6-12.8,28.6-28.6V29.7
	c0-15.8-12.8-28.6-28.6-28.6H60.4c-15.8,0-28.6,12.8-28.6,28.6v171.9L1,232.5"/>
</svg>
