<?xml version="1.0" encoding="utf-8"?>
<!-- Generator: Adobe Illustrator 19.0.0, SVG Export Plug-In . SVG Version: 6.00 Build 0)  -->
<svg version="1.1" id="Layer_1" xmlns="http://www.w3.org/2000/svg" xmlns:xlink="http://www.w3.org/1999/xlink" x="0px" y="0px"
	 viewBox="0 0 221.9 232.1" style="enable-background:new 0 0 221.9 232.1;" xml:space="preserve">
<style type="text/css">
	.st0{fill:#E29D26;}
	.st1{fill:#F6BF37;}
	.st2{fill:#FACFA9;}
	.st3{fill:#01486D;}
	.st4{fill:#83878A;}
	.st5{fill:#005D8A;}
	.st6{fill:#FBDCC2;}
	.st7{fill:#FACEA4;}
	.st8{fill:#231F20;}
	.st9{fill:#FFFFFF;}
	.st10{fill:#066E81;}
	.st11{fill:#E81D50;}
	.st12{fill:#754D29;}
	.st13{fill:#E96FA9;}
	.st14{fill:#AF86A7;}
	.st15{fill:#ED87B6;}
	.st16{fill:#363335;}
	.st17{fill:#95D600;}
	.st18{fill:#443F40;}
	.st19{font-family:'HelveticaNeueLTStd-HvCn';}
	.st20{font-size:5.9766px;}
	.st21{fill:#00AFEF;}
	.st22{font-family:'MyriadPro-Semibold';}
	.st23{font-size:10.6823px;}
</style>
<g>
	<g>
		<path class="st0" d="M169.2,136.2c0,0-5.3,26.9,30.3,17.6c35.5-9.3,24.2-54.4-1.5-45.4C172.2,117.5,169.2,136.2,169.2,136.2z"/>
		<path class="st1" d="M179.2,2.9c0,0,31.3,14.9,32.5,80.4c0,0,1.5,39.4-31,42.7L179.2,2.9z"/>
		<path class="st2" d="M137,139.2c0,0-10.7,11.8-32.2,20.8c0,0-6.5,2.1,0,3.6c6.5,1.5,27.8-7.7,27.8-7.7s-0.4,5,2.3,10.9
			c0,0,4.3,3.8,4.4,13.3c0,9.5-2.3,36.5-2.3,36.5s-0.5,5.2,2.3,1.5c2.8-3.8,12-26.8,12-26.8l4.2-0.2c0,0,2.8,7.8,6.9,7.5
			c4.2-0.2,20.8-6.3,20.8-6.3s6.4-2.7-1.8-2.9c-8.2-0.2-14.7,0.2-14.7,0.2l-0.6-4.4l-5-31.3c0,0,16.7-7,32-21.3c0,0,2.5-3.8-2.1-2.1
			c-4.6,1.7-27.2,10.1-29.9,8.7H137z"/>
		<path class="st3" d="M105.5,157.8c0,0,2.8,3.6,3.5,7.1c0.6,3.5,0,0.8,0,0.8s19.3-5.3,23.7-9.9c0,0-1.9-9.4,6.3-16l-2.2-0.6
			C136.7,139.2,119.9,151.5,105.5,157.8z"/>
		<path class="st4" d="M136.2,178l-1.7,11.1c0,0,7.2,4.9,18.4,3.8c11.2-1.1,17.4-10.4,17.4-10.4l-4.5-8.8l-18-0.8L136.2,178z"/>
		<path class="st2" d="M187.3,98.9c-1.6,6.6,0.9,12.9,5.7,14.1c4.8,1.2,10-3.2,11.6-9.8c1.6-6.6-0.9-12.9-5.7-14.1
			C194.2,88,189,92.3,187.3,98.9z"/>
		
			<ellipse transform="matrix(-0.9575 0.2884 -0.2884 -0.9575 227.6833 168.5977)" class="st2" cx="101.4" cy="101.1" rx="8.9" ry="12.3"/>
		<path class="st5" d="M138.9,139.8c0,0-9.9,5-6,23.1c0,0,0.7,2.2,2,3.8c0,0,0.6,8.6-1,11.9c0,0,6.6,2.9,11.8-2c0,0,3,5.4,10.9,4.7
			c7.8-0.7,14.5-8.8,14.5-8.8s-7.4-4.2-8.8-11.9c-1.4-7.7-1.3-6.8-1.3-6.8s9.6-2.3,29.9-16.8c0,0-3.3-3.3-3.9-7c0,0-17.4,7.5-22.8,9
			L138.9,139.8z"/>
		<path class="st6" d="M149,12c0,0,49-8.3,49,59.2c0,67.5-49,73-49,73s-53.4-8.1-53.4-73S149,12,149,12z"/>
		<path class="st7" d="M98.2,94.5c0,0,7.4-27.1,39.4-41.7c0,0,15.2,33.3,54.4,38.4l-50.6-53.6l-40,28.5l-5.8,25.1L98.2,94.5z"/>
		<path class="st1" d="M154.2,7.8c0,0-24.1-13.9-43.5,4.2c-19.5,18.2-60,72.6-12.4,82.4c0,0-0.1-28.2,40.7-45.9l37-9.2L154.2,7.8z"
			/>
		<g>
			<path class="st8" d="M128.7,96.5c0,4.7-3.8,8.5-8.5,8.5c-4.7,0-8.5-3.8-8.5-8.5c0-3.4,2-6.3,4.9-7.7c1.1-0.5,2.3-0.8,3.6-0.8
				C124.9,88,128.7,91.8,128.7,96.5z"/>
			<circle class="st9" cx="120.8" cy="98.4" r="8.5"/>
			<circle class="st10" cx="121.3" cy="98" r="6.7"/>
			<path class="st8" d="M116.7,88.8c0,0-2.9,0.8-5.9-2.4c0,0-0.7,2.6,3,4.7c0,0-2.3,0.9-4.8-1.2c0,0,0.6,3.6,3.2,4.1l4.9-4.1
				L116.7,88.8z"/>
		</g>
		<g>
			<path class="st8" d="M161.7,96.5c0,4.7,3.8,8.5,8.5,8.5c4.7,0,8.5-3.8,8.5-8.5c0-3.4-2-6.3-4.9-7.7c-1.1-0.5-2.3-0.8-3.6-0.8
				C165.5,88,161.7,91.8,161.7,96.5z"/>
			<circle class="st9" cx="169.6" cy="98.4" r="8.5"/>
			<circle class="st10" cx="169.1" cy="98" r="6.7"/>
			<path class="st8" d="M173.7,88.8c0,0,2.9,0.8,5.9-2.4c0,0,0.7,2.6-3,4.7c0,0,2.3,0.9,4.8-1.2c0,0-0.6,3.6-3.2,4.1l-4.9-4.1
				L173.7,88.8z"/>
		</g>
		<path class="st11" d="M152.8,119.9c0,0-2.1-3.5-5.8-3.5c-3.8,0-6.2,3.5-6.2,3.5s-1.5,1.6-1.5-0.3c0-1.9,1.7-7.3,7.6-7.3
			c5.9,0,7.3,6.4,7.3,7.1C154.2,120.1,153.9,121.2,152.8,119.9z"/>
		<path class="st9" d="M152.8,117.2c0,0-2.4-3.2-5.4-3.8C147.4,113.3,151.3,112.8,152.8,117.2z"/>
		<path class="st12" d="M106.6,77.6c0,0,3.2-8.4,12.8-3.8C119.4,73.9,110.9,73,106.6,77.6z"/>
		<path class="st12" d="M183.2,77.6c0,0-3.2-8.4-12.8-3.8C170.4,73.9,178.8,73,183.2,77.6z"/>
		<path class="st1" d="M163.4,0.1c0,0-10,3.8-12.6,15.7c-2.5,11.9-11.9,32.8-11.9,32.8S155.4,81,192,91.1c0,0,4,5.6,1.1,13
			c0,0,3.5-5.8,4.9-17.2C197.9,86.8,214.2-3.1,163.4,0.1z"/>
		<polygon class="st13" points="147,144.1 140.5,142 144.3,147.3 		"/>
		<polygon class="st13" points="147,144.1 149.7,147.3 155.1,142.9 		"/>
		<path class="st14" d="M140.5,142c0,0,4,4.7,6.2,4.7c2.2,0,8.4-3.8,8.4-3.8l-5,9.4l-4.4,4.2l-4.4-7.3L140.5,142z"/>
		<polygon class="st9" points="140.5,142 145.7,156.5 137.4,151.6 140.3,149.9 135.4,147.1 		"/>
		<polygon class="st9" points="145.7,156.5 155.1,142.9 160.2,147.7 153.6,149.7 155.9,152.3 		"/>
		<path class="st15" d="M147,144.1c0,0-2.3,1.9-3.4,4.2c-1.1,2.3-2.9,4.3,1.8,6.5l0.7-1.1l0.5,1.4c0,0,5.1-0.5,4.5-3
			C150.6,149.6,149.5,145,147,144.1z"/>
		<path class="st13" d="M147,144.1c0,0-1.4,7-1,9.6l-0.7,1.1c0,0-1.8-1.2-0.8-3.9C145.6,148.4,147,144.1,147,144.1z"/>
		<path class="st16" d="M137.5,210.5l-0.5,5.9c0,0-0.4,5.3,2.3,1.5c2.7-3.8,3-5.8,3-5.8L137.5,210.5z"/>
		<path class="st16" d="M177.8,189.2l3.7,0.1c0,0,8.3-0.1,1.8,2.9l-4.7,1.7L177.8,189.2z"/>
	</g>
	<path class="st17" d="M73.4,146.7c1.3-7.2,14.3-8.3,14.3-8.3c-20.8-8.9-27.8,4.4-27.8,4.4l0,0c-2.9-0.5-5.9-0.7-8.9-0.7
		c-28.2,0-51,20.2-51,45s22.8,45,51,45c28.2,0,51-20.2,51-45C102.1,169.3,90.4,154,73.4,146.7z"/>
	<g>
		<polygon class="st18" points="122.7,157.4 123.4,154.8 98.5,131.3 83.8,140.8 84.4,144.7 111.2,166.6 		"/>
		<polygon class="st9" points="118,152.6 98.6,133.3 87,140.8 108.4,159.8 		"/>
	</g>
	<g>
		<g>
			<polygon class="st9" points="22.2,191.7 24.4,211.7 78.5,211.7 80.6,191.7 			"/>
			<path class="st17" d="M48.4,211.7v-8.6c0,0-1-4.7,3.7-4.7c4.7,0,3.7,4.7,3.7,4.7l0.1,8.6H48.4z"/>
			<polygon class="st9" points="14.6,191.7 27.2,180.6 27.2,161.8 75.4,161.8 75.2,180.6 87.9,191.7 			"/>
			<rect x="29.6" y="164.4" class="st9" width="6.7" height="10.7"/>
			<polygon class="st9" points="52,176.4 62.3,191.7 42,191.7 			"/>
			<circle class="st9" cx="52.1" cy="187.3" r="2.7"/>
			<rect x="28.2" y="159.2" class="st9" width="9.7" height="5.2"/>
			
				<rect x="61" y="196" transform="matrix(0.9997 2.524599e-002 -2.524599e-002 0.9997 5.019 -1.5196)" class="st17" width="3.3" height="4.1"/>
			
				<rect x="65.9" y="195.9" transform="matrix(0.9997 2.579419e-002 -2.579419e-002 0.9997 5.1295 -1.6768)" class="st17" width="3.3" height="4.1"/>
			
				<rect x="60.9" y="201" transform="matrix(0.9997 2.553944e-002 -2.553944e-002 0.9997 5.2066 -1.5314)" class="st17" width="3.3" height="4.1"/>
			
				<rect x="65.8" y="201" transform="matrix(0.9997 2.551645e-002 -2.551645e-002 0.9997 5.203 -1.6545)" class="st17" width="3.3" height="4.1"/>
			
				<rect x="34.8" y="196.1" transform="matrix(0.9998 -1.877617e-002 1.877617e-002 0.9998 -3.7135 0.7204)" class="st17" width="3.3" height="4.1"/>
			
				<rect x="39.7" y="195.8" transform="matrix(0.9998 -1.878181e-002 1.878181e-002 0.9998 -3.7093 0.812)" class="st17" width="3.3" height="4.1"/>
			
				<rect x="34.9" y="201.1" transform="matrix(0.9998 -1.962996e-002 1.962996e-002 0.9998 -3.9813 0.7576)" class="st17" width="3.3" height="4.1"/>
			
				<rect x="39.8" y="200.9" transform="matrix(0.9998 -1.937527e-002 1.937527e-002 0.9998 -3.9242 0.8415)" class="st17" width="3.3" height="4.1"/>
		</g>
		<g>
			<text id="XMLID_112_" transform="matrix(1 0 0 1.69 38.3496 173.2142)" class="st9 st19 st20">CLINICAL SITE</text>
		</g>
	</g>
	<text transform="matrix(0.7071 0.7071 -0.7071 0.7071 93.1971 142.0207)" class="st21 st22 st23">SITE</text>
	<text transform="matrix(1 0 0 1 32.1719 179.8226)" class="st17 st22 st23">CLOSED</text>
</g>
</svg>
