<?xml version="1.0" encoding="utf-8"?>
<!-- Generator: Adobe Illustrator 19.0.0, SVG Export Plug-In . SVG Version: 6.00 Build 0)  -->
<svg version="1.1" id="Layer_1" xmlns="http://www.w3.org/2000/svg" xmlns:xlink="http://www.w3.org/1999/xlink" x="0px" y="0px"
	 viewBox="0 0 110.2 158.3" style="enable-background:new 0 0 110.2 158.3;" xml:space="preserve">
<style type="text/css">
	.svg-intro .st0{fill:#E8E9E9;}
	.svg-intro .st1{fill:#2AAAE2;}
	.svg-intro .st2{fill:#272361;}
	.svg-intro .st3{fill:#EEB08B;}
	.svg-intro .st4{fill:#FCC6A2;}
	.svg-intro .st5{fill:#6C0B22;}
	.svg-intro .st6{fill:#ED6E6D;}
	.svg-intro .st7{fill:#ED797F;}
	.svg-intro .st8{fill:#24100C;}
	.svg-intro .st9{fill:#E29D26;}
	.svg-intro .st10{fill:#F8C038;}
	.svg-intro .st11{fill:#BDBEC1;}
	.svg-intro .st12{fill:#404041;}
</style>
<g class="svg-intro">
	<path class="st0" d="M48.5,111.2l-4-1.1c0,0-11.5,10-12.4,12.3c-0.9,2.3,1.6,4.9,5.8,8.3c0,0-1.5,1.1-0.1,1.9
		c1.4,0.8,2.6,0,4.2-1.6c1.6-1.6,3.1-1.7,2.1-2.8c-1-1.1-1.9-0.3-1.9-0.3l-0.9-1.8l4-0.4l-1.1,18.2c0,0,1.5,1.9,14.4,1.9
		c12.8,0,13.7-2.5,13.7-2.5l-1.9-17.3c0,0,3.5,2.4,15.6,1.1c0,0-0.7,1.6,0.8,1.6c1.4,0,1.9-0.1,1.9-3.7c0-3.6-0.1-3.7-1.2-3.7
		c-1.1,0-1.6,0.4-1.6,1.2c0,0-8.2-3.1-15.5-11.9L48.5,111.2z"/>
	<polygon class="st1" points="51.9,111.9 58.7,124.3 64.9,111.7 	"/>
	<path class="st2" d="M60.7,115.2c0,0,1.3-1.3,1.6-3.1c0.3-1.8-7.3,0.2-7.3,0.2s0.8,2.4,1.6,2.9C57.5,115.7,60.7,115.2,60.7,115.2z"
		/>
	<path class="st2" d="M56.9,114.2c0,0-1.2,4.1,1.8,4.1c3,0,1.8-4.1,1.8-4.1H56.9z"/>
	<ellipse class="st3" cx="58.7" cy="111.9" rx="2.5" ry="3.3"/>
	<ellipse transform="matrix(0.9799 -0.1996 0.1996 0.9799 -14.7184 4.0114)" class="st3" cx="12.5" cy="75" rx="8.1" ry="11.5"/>
	<ellipse transform="matrix(0.9735 0.2286 -0.2286 0.9735 19.8408 -21.2911)" class="st3" cx="101.8" cy="75" rx="8.1" ry="11.5"/>
	<path class="st4" d="M58,112.6c0,0-22.1-0.3-34.4-17C11.2,78.8-5.2,10.9,58,10.9c63.2,0,42.1,72.6,32.4,86.6
		C80.8,111.6,58,112.6,58,112.6z"/>
	<path class="st5" d="M57.9,99.1c0,0-4.4,0.2-6.5-4.2c-2.1-4.4,0.6-4.8,1.5-4.8c0.9,0,1.4,1.5,5,1.5c3.6,0,3.1-1.5,5-1.5
		c1.9,0,2.6,2.3,1.6,4.8C63.4,97.3,60.9,99.1,57.9,99.1z"/>
	<path class="st6" d="M58,97.7c0,0-4.1,0-4.1-2.4c0-2.4,4.1-2,4.1-2s3.8,0,3.8,2.2C61.8,97.7,58,97.7,58,97.7z"/>
	<ellipse class="st7" cx="34.2" cy="92.6" rx="5.4" ry="3.7"/>
	<ellipse class="st7" cx="81.5" cy="92.6" rx="5.4" ry="3.7"/>
	<ellipse class="st8" cx="41" cy="82.9" rx="4.1" ry="4.9"/>
	<ellipse class="st8" cx="74.6" cy="82.9" rx="4.1" ry="4.9"/>
	<path class="st8" d="M32.1,67.6c0,0,3.3-2.6,7.9-1.3c0,0-0.4-2-3.5-2C33.3,64.3,32.1,67.6,32.1,67.6z"/>
	<path class="st9" d="M94.7,49.2c0,0,1.5,11.6,0,25.8c0,0,5.2-3.3,5.8-6.6c0.7-3.3,4.2-13.7-0.5-30.7L94.7,49.2z"/>
	<path class="st9" d="M20.7,75c0,0-6-2.1-7.1-4.9c-1.2-2.8-2.7-11-1.3-20.4l8.5,3.5C20.7,53.2,19.1,64.8,20.7,75z"/>
	<path class="st8" d="M82.7,67.6c0,0-3.3-2.6-7.9-1.3c0,0,0.4-2,3.5-2C81.5,64.3,82.7,67.6,82.7,67.6z"/>
	<path class="st10" d="M102.8,31.1c0,0,0.2,9.7-10.7,20.9C81.3,63.2,70.6,71,47.3,67.6c0,0,10.2-6.4,14.5-13c0,0-5.1,5.7-20.8,5.7
		c-15.7,0-33.3-6.9-38.3-15.7c0,0,5.7,1.5,10.2-0.5c0,0-9.5-4-12.9-12.9c0,0,4.5-0.3,17.1-10.7C29.6,10.1,44.5-0.6,67,9.1
		c0,0-4.3-5.9-8-9c0,0,23.5-1.8,28.5,19.2c0,0,0.4-5.4-1.6-10.2C85.9,9.1,103.7,18.1,102.8,31.1z"/>
	<polygon class="st2" points="57.7,118.3 57.1,121.5 58.7,124.3 60.1,121.3 59.6,118.2 58.7,117.1 57.9,117.1 	"/>
	<polygon class="st11" points="48.5,111.2 58.6,125.9 58.7,124.3 51.9,111.9 	"/>
	<polygon class="st11" points="58.6,125.9 58.7,124.3 64.9,111.7 67.9,111 	"/>
	<polygon class="st11" points="49.7,118.4 51.7,118.4 51.7,119.9 50.7,121.1 49.7,119.9 	"/>
	<path class="st4" d="M88.8,122.9c0,0,4.3-1,4.3,1.3c0,2.3-4.2,2.5-4.2,2.5L88.8,122.9z"/>
	<path class="st4" d="M40.5,132.3c0,0,1.8,1.8,3.7,0.9c1.9-0.9-0.9-3.2-0.9-3.2l-2.3,2"/>
	<path class="st12" d="M46.6,144.7c0,0-0.5,9.4,4,9.3c4.5-0.1,5.8-0.5,6.3-9.3C51.9,133.4,46.6,144.7,46.6,144.7z"/>
	<path class="st12" d="M70.1,144.7c0,0,0.5,9.4-4,9.3c-4.5-0.1-5.8-0.5-6.3-9.3C65.2,134.3,70.1,144.7,70.1,144.7z"/>
	<ellipse cx="51.8" cy="152.5" rx="4.5" ry="5.8"/>
	<ellipse cx="65.2" cy="152.5" rx="4.5" ry="5.8"/>
</g>
</svg>
