<?xml version="1.0" encoding="utf-8"?>
<!-- Generator: Adobe Illustrator 19.0.0, SVG Export Plug-In . SVG Version: 6.00 Build 0)  -->
<svg version="1.1" id="Layer_1" xmlns="http://www.w3.org/2000/svg" xmlns:xlink="http://www.w3.org/1999/xlink" x="0px" y="0px"
	 viewBox="0 0 111.7 183.6" style="enable-background:new 0 0 111.7 183.6;" xml:space="preserve">
<style type="text/css">
	.st0{fill:#dcb381;}
	.st1{fill:#446D75;}
	.st2{fill:#f78f1e;}
	.st3{fill:#e2c196;}
	.st4{fill:#C0D9E5;}
	.st5{fill:#363334;}
	.st6{fill:#3C322B;}
	.st7{fill:#B09670;}
</style>
<g>
	<path class="st0" d="M49,127.2c0,0-3,5-7.9,4c-4.8-1-13.6-5.6-13.6-5.6s-4.4-2.8-1.9,2.2c2.4,5,9.7,14,17.7,14.9
		c8,1,5.7,1.5,5.7,1.5s-1.7,8.8-2.1,14.3c-0.3,5.5,0,22.4,0,22.4h8.2v-14.7H56V181h8.2v-14.8c0,0-0.3-16.1-2.7-21.9
		c0,0,13.9,1.8,22.8-13.6c0,0,4.4-6.8-2.7-2.9c-7.1,3.9-13.2,4.5-14.5,4.4c-1.3-0.2-4.8-1.8-5.8-5.6L49,127.2z"/>
	<polygon class="st1" points="40.7,161.6 40.7,168.2 55.2,168.2 55.6,166.3 56,168.2 70.2,168.2 70.2,161.3 	"/>
	<path class="st2" d="M48,127.8l7.3,5.5l7-5.5c0,0,3.3,5.1,9.1,3.3c0,0,1.5,6.9,4.3,10.1c0,0-3.1,1.8-6.7,3.1c0,0,2.6,10.8,2.6,17.4
		H39.9c0,0,0.3-10.7,3.2-18.1c0,0-3.6-0.2-6.9-2.7c0,0,3.2-5,4.2-10.5C40.4,130.3,45.7,131.6,48,127.8z"/>
	<polygon class="st2" points="46.1,174.5 55.2,174.1 55.2,180.9 46.1,178.1 	"/>
	<polygon class="st2" points="55.9,174.1 64.2,174.5 64.2,177.5 56,181 	"/>
	<path d="M48,183.6c0,0-7.9,0.2-7.9-2.1c0-2.3,3.5-5,7.9-5c4.4,0,7.3,1.2,7.3,3.1C55.2,181.6,55.8,183.6,48,183.6z"/>
	<path d="M63.2,183.6c0,0,7.9,0.2,7.9-2.1c0-2.3-3.5-5-7.9-5c-4.4,0-7.3,1.2-7.3,3.1C56,181.6,55.4,183.6,63.2,183.6z"/>
	<ellipse class="st0" cx="7.4" cy="87.1" rx="7.4" ry="9"/>
	<ellipse class="st0" cx="104.2" cy="87.1" rx="7.4" ry="9"/>
	<circle class="st3" cx="56" cy="79.5" r="48.2"/>
	<polygon class="st4" points="48,127.8 48,127.1 50.8,127.4 55.2,133.2 49,135.4 	"/>
	<polygon class="st4" points="62.4,127.3 62.2,127.8 61.4,135.4 55.2,133.2 59.4,127.6 	"/>
	<path class="st5" d="M110.4,58.7c0,0-0.2-10.5-7.9-20.2C94.8,28.9,86.3,23,85.9,20.7c0,0-1.3,1.1-2.7,1.8c0,0-1.4-4-6.8-7.2
		l-1.6-1.8l-0.6,2.7c0,0-2.9-3.7-5.7-5.8c-2.8-2-4-3.1-4-3.1L64,10c0,0-2.8-3.9-4.8-5.7c-2-1.8-3.3-3.4-3.1-4.3c0,0-7.1,7-9.3,12.6
		c0,0-0.4-1.2,0.1-3.5c0,0-1.2,0.9-3.2,1.5c-2,0.6-6.6,3.2-10,8.8l-0.5-2.7c0,0-1.2,1.1-2.7,2.5c-1.5,1.4-7.6,6.7-7.6,6.7
		s1.3-1.6,0.7-2.5c0,0-1.3,1.6-6.7,6.1C11.6,33.9,3.7,46.8,2.7,50.1c-8.3,27.2,6.1,39.6,6.1,39.6c0.1-9.3,6-14.5,6-14.5
		c0-4.5,3.1-14.4,3.1-14.4c3.4-2.4,24.4-11.7,40.7-5.3c0,0,19.9-7.4,37.1,3.8c0,0,5.2,7.8,4.5,15.8c0,0,4.3,3.9,2.8,14.5
		C103.2,89.7,113.4,83.7,110.4,58.7z"/>
	<circle class="st6" cx="37.7" cy="88.1" r="4.4"/>
	<circle class="st6" cx="76.8" cy="88.1" r="4.4"/>
	<path class="st7" d="M48.2,103.5c0,0,8.1,5.2,19.4,0C67.6,103.5,58.7,114.6,48.2,103.5z"/>
	<path d="M31.1,65.8c0,0,3.9-2.9,8.4-1.3C39.5,64.5,35,60.6,31.1,65.8z"/>
	<path d="M82.8,65.8c0,0-3.9-2.9-8.4-1.3C74.4,64.5,78.9,60.6,82.8,65.8z"/>
</g>
</svg>
