<?xml version="1.0" encoding="utf-8"?>
<!-- Generator: Adobe Illustrator 19.0.0, SVG Export Plug-In . SVG Version: 6.00 Build 0)  -->
<svg version="1.1" id="Layer_1" xmlns="http://www.w3.org/2000/svg" xmlns:xlink="http://www.w3.org/1999/xlink" x="0px" y="0px"
	 viewBox="0 0 148.2 188.4" style="enable-background:new 0 0 148.2 188.4;" xml:space="preserve">
<style type="text/css">
	.right.st0{fill:#6F7354;}
	.right.st1{fill:#DBB57B;}
	.right.st2{fill:#253570;}
	.right.st3{fill:#4B5B8E;}
	.right.st4{fill:#141515;}
	.right.st5{fill:#E2C292;}
	.right.st6{fill:#95957E;}
	.right.st7{fill:#343334;}
	.right.st8{fill:#888788;}
	.right.st9{fill:#242224;}
	.right.st10{fill:#3D1C0D;}
	.right.st11{fill:#B42025;}
	.right.st12{fill:#F59290;}
	.right.st13{fill:#73BAC2;}
	.right.st14{fill:#97D6D3;}
	.right.st15{fill:#006A71;}
	.right.st16{opacity:0.79;}
	.right.st17{fill:#B5E1DE;}
	.right.st18{fill:#D2ECEC;}
	.right.st19{fill:#FEF8EA;}
	.right.st20{fill:#623715;}
	.right.st21{fill:#E08165;}
	.right.st22{fill:#1FA7B0;}
</style>
<g class="cartoon">
	<polygon class="right st0" points="73.9,158 73.9,165.2 86.4,166.9 87.2,159.5 90.2,159.5 91.9,166.9 104.4,165.2 103.7,158 	"/>
	<path class="right st1" d="M78.4,124.4c0,0-8.5,10.3-23.5,7.6c0,0-10.9-5.4-4.6,2.9c6.3,8.3,22.8,6.2,25.3,2.2c2.5-4,13.8,8.5,13.8,8.5
		l19.5,9.3c0,0,5.9-0.3,3.6-12.1c-2.3-11.8-14.1-15.3-14.1-15.3l-1.2-4.1L78.4,124.4z"/>
	<path class="right st2" d="M76.4,124.5c0,0-6.9,6.2-9.5,6.8l4.8,9.5l-3.3,15.4c0,0,6.4,3.4,20.5,3.4c14,0,20.3-3.4,20.3-3.4l-3.3-14.1
		l5.9-3.6l-8.5-13.9h-7.6l-6.2,8.2l-5.9-8.2H76.4z"/>
	<polygon class="right st3" points="89.3,132.7 91.9,124.5 103.2,124.5 96.2,140.1 	"/>
	<polygon class="right st3" points="86.1,124.5 89.3,132.7 82.3,139.4 76.4,124.5 	"/>
	<ellipse class="right st1" cx="37.1" cy="80.2" rx="8.3" ry="12.5"/>
	<ellipse class="right st1" cx="139.9" cy="80.2" rx="8.3" ry="12.5"/>
	<path class="right st4" d="M74.4,168.9c0,0-5.3-1.1-5.7,2.2c-0.4,3.2-0.5,4.6,10.6,4.5c11,0,7.8-5.3,6.9-5.7
		C85.2,169.4,74.4,168.9,74.4,168.9z"/>
	<path class="right st4" d="M104.2,168.9c0,0,5.3-1.1,5.7,2.2c0.4,3.2,0.5,4.6-10.6,4.5c-11,0-7.8-5.3-6.9-5.7
		C93.4,169.4,104.2,168.9,104.2,168.9z"/>
	<path class="right st5" d="M89.6,17.1c0,0,58.1-12.6,49.4,58.6c0,0-1.7,50-49.4,50c-47.7,0-50.8-52.1-50.8-52.1S26.1,12.5,89.6,17.1z"/>
	<path class="right st6" d="M74.6,163.7c0,0-1.4-0.5-1.9,1c-0.5,1.5-1.8,3.9,3.1,4.8c4.9,1,11.3,2.3,11.6-0.4c0.3-2.7,0.7-3.7-2.4-4.2
		C82,164.5,74.6,163.7,74.6,163.7z"/>
	<path class="right st6" d="M93.2,165.1c0,0-3,0-2.5,2.6c0.6,2.6,0.6,3.5,5.6,2.8c4.9-0.7,10.7-0.4,9.8-4.6c0,0-0.2-2.5-3.5-1.9
		C99.2,164.6,93.2,165.1,93.2,165.1z"/>
	<path class="right st7" d="M128,66.4l3.4-15c0,0-30.1-29.8-64-12.5l-3.7-0.2c0,0-2.8-0.2-7.1,2C52.3,43,40.9,49.2,48,67.8
		C41.4,69.1,40.3,83,40.3,83c-3-10.1-3.1-21.2-3.1-21.2c-0.7-12.8,1.7-19,1.7-19l-4.8,0.2l2.9-4.6l-3,0.2c0,0,1.9-2.3,3.6-8.7
		c1.7-6.4,3.7-11.7,10.3-15.2c6.6-3.5,12-0.1,12-0.1s2.5-5.4,12.3-10.5c9.8-5.1,44.4-13.7,75.7,33.2l-6.7-2l3.1,7.1l-3.7-1.5
		c0,0,4.3,22.8-2.4,42C138.1,83,137.8,68.4,128,66.4z"/>
	<polygon class="right st8" points="81.5,8.4 68.2,17.3 77.7,16.5 72.2,21.9 78.8,22 74.4,26.2 84.7,25.3 80.1,29.3 96.2,27 87.8,26.3 
		90.5,23.2 79.4,24.3 87.3,18.5 76.9,19.8 82.7,14.5 75.2,14.6 	"/>
	<polygon class="right st8" points="49.6,39.9 55.6,33 52,32.7 55,28.2 50.2,29 53.7,23 46.2,25.3 50.1,25.8 47.1,31 51.4,30.8 49,34.7 
		52.1,34.4 	"/>
	<path class="right st9" d="M63.7,38.8l2.2,1l1.6-0.8c0,0-5.5-13.3-6.5-18.7L63.7,38.8z"/>
	<ellipse class="right st10 eye1" cx="66.5" cy="83.7" rx="5.2" ry="6.4"/>
	<path class="right st7 eyebrow" d="M53.5,67.1c0,0,4.5-4.8,12.2-4.2c0,0-2.7-3.3-8.2-1.3C52,63.7,53.5,67.1,53.5,67.1z"/>
	<ellipse class="right st10 eye2" cx="111.1" cy="83.7" rx="5.2" ry="6.4"/>
	<path class="right st7 eyebrow2" d="M124.1,67.1c0,0-4.5-4.8-12.2-4.2c0,0,2.7-3.3,8.2-1.3C125.6,63.7,124.1,67.1,124.1,67.1z"/>
	<path class="right st11 mouth" d="M79.7,106.1c0,0-4-2.6-4.5-8.3c-0.5-5.7,9.5,0,13.6,0c4.1,0,14.1-4.8,13.4,0.2c-0.7,5-4.3,8.1-4.3,8.1H79.7z"
		/>
	<path class="right st12 mouth" d="M79.7,106.1c0,0,2.2-3.3,9.5-3.3c7.3,0,8.7,3.3,8.7,3.3s-4.2,5.1-9.1,5.1C83.9,111.2,79.7,106.1,79.7,106.1z"
		/>
</g>
<g class="mainbox">
	<g>
		<path class="right st13" d="M43.8,120.5c0,0-5.6-8.6-21.6-8.6c-16,0-22.1,9.4-22.1,21.1c0,11.7,0,48.8,0,48.8l2.1,1v-8.6l11.9,6.7v6.6
			l1.9,1l0.8-10.8l1.4-45l1.4-9.4L24,119l6.2-2.4l4.4,0.3l5,1.7l3.9,2.8L43.8,120.5z"/>
		<path class="right st7" d="M16,188.7C16,188.7,15.9,188.7,16,188.7l-2-1c0,0-0.1-0.1-0.1-0.1v-6.5l-11.6-6.5v8.4c0,0,0,0.1-0.1,0.1
			c0,0-0.1,0-0.1,0l-2.1-1c0,0-0.1-0.1-0.1-0.1V133c0-7.9,2.9-21.2,22.2-21.2c15.9,0,21.6,8.5,21.7,8.6c0,0,0,0.1,0,0.1l-0.3,0.9
			c0,0,0,0.1-0.1,0.1c0,0-0.1,0-0.1,0l-3.9-2.8l-5-1.7l-4.4-0.3l-6.1,2.3l-4.4,4.4l-1.4,9.4l-1.4,45l-0.8,10.8
			C16.1,188.7,16.1,188.7,16,188.7C16,188.7,16,188.7,16,188.7z M14.2,187.5l1.6,0.9l0.8-10.6l1.4-45l1.4-9.4c0,0,0-0.1,0-0.1
			l4.5-4.4c0,0,0,0,0,0l6.2-2.4c0,0,0,0,0.1,0l4.4,0.3c0,0,0,0,0,0l5,1.7c0,0,0,0,0,0l3.7,2.7l0.2-0.7c-0.5-0.7-6.3-8.5-21.4-8.5
			c-19.1,0-21.9,13.1-21.9,21v48.8l1.8,0.9v-8.4c0,0,0-0.1,0.1-0.1c0,0,0.1,0,0.1,0l11.9,6.7c0,0,0.1,0.1,0.1,0.1V187.5z"/>
	</g>
	<g>
		<polygon class="right st13" points="29.1,177 29.1,180.9 31.1,180.1 31.1,175.1 		"/>
		<path class="right st7" d="M29.1,181C29.1,181,29,181,29.1,181c-0.1,0-0.1-0.1-0.1-0.1V177c0,0,0-0.1,0-0.1l2-1.9c0,0,0.1,0,0.1,0
			c0,0,0.1,0.1,0.1,0.1v5c0,0.1,0,0.1-0.1,0.1L29.1,181C29.1,181,29.1,181,29.1,181z M29.2,177v3.7L31,180v-4.6L29.2,177z"/>
	</g>
	<g>
		<path class="right st14" d="M16,188.6l1.7-0.7v-6.7l26.5-9.3v8.4l2.1-0.8v-36.1V128c0,0,0.3-12.9-15.5-12.5
			C15.1,115.9,16,134.3,16,134.3V188.6z"/>
		<path class="right st7" d="M15.8,188.8v-54.5c0-0.1-0.4-9.1,4.7-14.7c2.5-2.7,6-4.2,10.3-4.3c0.3,0,0.5,0,0.8,0c4.9,0,8.7,1.3,11.3,4
			c3.6,3.7,3.5,8.6,3.5,8.7v51.6l-2.4,0.9V172l-26.2,9.2v6.7L15.8,188.8z M31.6,115.6c-0.3,0-0.5,0-0.8,0c-4.2,0.1-7.6,1.5-10.1,4.2
			c-5,5.5-4.7,14.4-4.7,14.5v54.1l1.4-0.6v-6.7l0.1,0l26.7-9.4v8.4l1.8-0.7V128c0-0.1,0.1-4.9-3.4-8.5
			C40.2,116.9,36.5,115.6,31.6,115.6z"/>
	</g>
	<g>
		<path class="right st15" d="M19.5,132c0,0,0.3-8.8,8.9-12.2l3.6,1.4l0.7,7.7L29,132l-4.7,1.1L19.5,132z"/>
		<path class="right st7" d="M24.3,133.3l-4.9-1.1l0-0.1c0-0.1,0.4-8.9,9-12.3l0,0l3.8,1.4l0.8,7.8l-3.9,3.2L24.3,133.3z M19.7,131.9
			l4.6,1.1l4.6-1.1l3.7-3.1l-0.7-7.5l-3.5-1.3C20.6,123.1,19.8,130.9,19.7,131.9z"/>
	</g>
	<g>
		<path class="right st7" d="M31.5,128.4c0,0-0.5-6.6-3-8.6c0,0,1.6-1.2,4.4-1.2c2.8,0,10.7,0.1,10.7,12.1l-0.5,3.9l-3.5,0.8L31.5,128.4z"
			/>
		<path class="right st7" d="M39.4,135.6l-8.1-7.1l0-0.1c0-0.1-0.6-6.6-3-8.5l-0.1-0.1l0.1-0.1c0.1,0,1.7-1.2,4.5-1.2
			c2.7,0,10.8,0,10.8,12.2l-0.5,4L39.4,135.6z M31.6,128.3l7.9,6.9l3.4-0.7l0.5-3.8c0-11.9-7.9-11.9-10.5-11.9
			c-2.2,0-3.7,0.8-4.2,1.1C31,121.9,31.6,127.7,31.6,128.3z"/>
	</g>
	<g class="right st16">
		<polygon class="right st17" points="18.2,142.9 43.5,138.6 43.5,170.1 18.5,177.3 		"/>
		<path class="right st7" d="M18.4,177.5L18,142.8l0.1,0l25.5-4.4v31.8l-0.1,0L18.4,177.5z M18.3,143l0.3,34.1l24.7-7.1v-31.3L18.3,143z"
			/>
	</g>
	<circle class="right st13" cx="21.1" cy="158.1" r="1.6"/>
	<g>
		<path class="right st18" d="M20.4,139.5l24.2-5.2c0,0,7.2,2.7,7.2,6.2c0,3.4-7.1,7.1-13,6.7C32.8,146.8,30.3,145.1,20.4,139.5z"/>
		<path class="right st7" d="M39.6,147.3c-0.3,0-0.6,0-0.9,0c-5.6-0.3-8-1.8-16.3-6.5c-0.7-0.4-1.4-0.8-2.1-1.2l-0.3-0.2l24.5-5.3l0,0
			c0.3,0.1,7.3,2.8,7.3,6.3C52,143.8,45.6,147.3,39.6,147.3z M20.8,139.6c0.6,0.4,1.2,0.7,1.8,1c8.2,4.7,10.7,6.1,16.2,6.4
			c0.3,0,0.6,0,0.8,0c5.7,0,12-3.4,12-6.6c0-3.2-6.6-5.8-7.1-6L20.8,139.6z"/>
	</g>
	<g>
		<polygon class="right st19" points="35.3,132 32.8,136.8 24,138.7 29.5,132 		"/>
		<path class="right st20" d="M23.7,139l5.8-7.1h6l-2.6,5.1l-0.1,0L23.7,139z M29.6,132.2l-5.2,6.4l8.4-1.8l2.3-4.6H29.6z"/>
	</g>
	<polygon class="right st20" points="31,137.3 30.7,135.7 35.2,131.9 35.3,132.1 31,135.8 31.2,137.3 	"/>
	<g>
		<polygon class="right st19" points="33.4,132 35.7,128 40.8,129.2 39.4,135.4 38,135.7 		"/>
		<path class="right st20" d="M38,135.9l-4.7-3.8l2.4-4.3l5.3,1.3l-1.4,6.4L38,135.9z M33.6,132l4.4,3.6l1.3-0.3l1.3-6l-4.8-1.2L33.6,132z
			"/>
	</g>
	<g>
		<polygon class="right st19" points="38,135.7 34.8,133.1 32.8,136.8 		"/>
		<path class="right st20" d="M32.6,137l2.2-4.1l3.6,2.9L32.6,137z M34.8,133.3l-1.7,3.3l4.6-1L34.8,133.3z"/>
	</g>
	<g>
		<polygon class="right st19" points="19.5,134.3 26.5,135.7 24,138.7 20.4,139.5 19.5,139.1 		"/>
		<path class="right st20" d="M20.4,139.7l-1-0.4v-5.1l7.4,1.5l-2.7,3.2L20.4,139.7z M19.7,139.1l0.8,0.3l3.5-0.8l2.3-2.8l-6.6-1.3V139.1z
			"/>
	</g>
	<g>
		<polygon class="right st19" points="28.4,133.3 25.7,131.6 32.8,127.6 34.6,130 33.4,132 29.5,132 		"/>
		<path class="right st20" d="M28.5,133.5l-3-1.9l7.4-4.1l1.9,2.5l-1.2,2.2h-4L28.5,133.5z M26,131.6l2.4,1.6l1-1.3h3.9l1-1.9l-1.6-2.2
			L26,131.6z"/>
	</g>
	<g>
		<polygon class="right st19" points="19.5,134.3 19.5,132 23,129.9 25.7,131.6 28.4,133.3 26.5,135.7 		"/>
		<path class="right st20" d="M26.6,135.9l-7.2-1.5V132l3.6-2.2l2.9,1.7l2.8,1.8L26.6,135.9z M19.7,134.2l6.8,1.4l1.8-2.2l-2.6-1.7
			l-2.7-1.6l-3.3,2V134.2z"/>
	</g>
	<g>
		<polygon class="right st21" points="23,133.1 21.6,131.8 23,130.7 24.3,131.9 		"/>
		<path class="right st20" d="M23,133.3l-1.6-1.5l1.6-1.3l1.5,1.4L23,133.3z M21.8,131.8l1.2,1.1l1.1-1l-1.1-1L21.8,131.8z"/>
	</g>
	<g class="envelop">
		<polygon class="right st19" points="54.1,128.2 57.4,133.7 41.8,137.9 38.5,131.9 		"/>
		<path class="right st20" d="M41.7,138.1l-3.4-6.2l15.9-3.8l3.4,5.7L41.7,138.1z M38.7,132l3.2,5.7l15.3-4.2l-3.1-5.2L38.7,132z"/>
	</g>
	<g class="envelop">
		<polygon class="right st19" points="54.1,128.2 48.3,132.9 38.5,131.9 		"/>
		<path class="right st20" d="M48.3,133C48.3,133,48.3,133,48.3,133l-9.8-1c-0.1,0-0.1-0.1-0.1-0.1c0-0.1,0-0.1,0.1-0.1l15.6-3.7
			c0.1,0,0.1,0,0.2,0.1c0,0.1,0,0.1,0,0.2L48.3,133C48.3,133,48.3,133,48.3,133z M39.3,131.9l8.9,0.9l5.3-4.3L39.3,131.9z"/>
	</g>
	<g>
		<polygon class="right st14" points="1.9,139.5 14.1,144.8 14.1,178.3 1.9,172.2 		"/>
		<path class="right st7" d="M14.2,178.5l-12.4-6.2v-33l12.4,5.4V178.5z M2.1,172.1l11.9,5.9v-33.2l-11.9-5.2V172.1z"/>
	</g>
	<circle class="right st7" cx="2.2" cy="135.8" r="0.5"/>
	<circle class="right st7" cx="7" cy="137.9" r="0.5"/>
	<circle class="right st7" cx="13.1" cy="140.1" r="0.5"/>
	<circle class="right st7" cx="14.6" cy="125.9" r="0.5"/>
	<circle class="right st7" cx="9.5" cy="124.2" r="0.5"/>
	<circle class="right st7" cx="4.6" cy="122.6" r="0.5"/>
	<rect x="0.7" y="139.5" transform="matrix(0.9226 0.3858 -0.3858 0.9226 54.4922 7.759)" class="right st7" width="14.5" height="0.3"/>
	<rect x="4.2" y="123.3" transform="matrix(0.9448 0.3278 -0.3278 0.9448 41.023 3.4533)" class="right st7" width="12.1" height="0.3"/>
	<g>
		<polygon class="right st13" points="42.9,172.3 42.9,179 44.2,180.2 44.2,171.9 		"/>
		<path class="right st7" d="M44.3,180.5l-1.6-1.5v-6.8l1.6-0.6V180.5z M43,178.9l1,1V172l-1,0.4V178.9z"/>
	</g>
	<g>
		<polygon class="right st14" points="2.2,182.9 3.5,181.5 3.5,175 2.2,174.3 		"/>
		<path class="right st7" d="M2.2,183C2.2,183,2.2,183,2.2,183c-0.1,0-0.1-0.1-0.1-0.1v-8.6c0,0,0-0.1,0.1-0.1c0,0,0.1,0,0.1,0l1.3,0.7
			c0,0,0.1,0.1,0.1,0.1v6.5c0,0,0,0.1,0,0.1L2.2,183C2.3,183,2.2,183,2.2,183z M2.3,174.5v8l1-1.1v-6.4L2.3,174.5z"/>
	</g>
	<g>
		<polygon class="right st22" points="27.9,177.6 27.9,180.2 29.1,180.9 29.1,177.2 		"/>
		<path class="right st7" d="M29.1,181C29.1,181,29,181,29.1,181l-1.2-0.7c0,0-0.1-0.1-0.1-0.1v-2.6c0-0.1,0-0.1,0.1-0.1l1.2-0.4
			c0,0,0.1,0,0.1,0c0,0,0.1,0.1,0.1,0.1v3.7C29.2,181,29.2,181,29.1,181C29.1,181,29.1,181,29.1,181z M28.1,180.1l0.9,0.5v-3.3
			l-0.9,0.3V180.1z"/>
	</g>
</g>
</svg>
