<?xml version="1.0" encoding="utf-8"?>
<!-- Generator: Adobe Illustrator 19.0.0, SVG Export Plug-In . SVG Version: 6.00 Build 0)  -->
<svg version="1.1" id="Layer_1" xmlns="http://www.w3.org/2000/svg" xmlns:xlink="http://www.w3.org/1999/xlink" x="0px" y="0px"
	 viewBox="0 0 92 116.4" style="enable-background:new 0 0 92 116.4;" xml:space="preserve">
<style type="text/css">

	.left.st0{fill:#FBD0A9;}
	.left.st1{fill:#D1D2D2;}
	.left.st2{fill:#F65097;}
	.left.st3{fill:#EFC7CD;}
	.left.st4{fill:#55514E;}
	.left.st5{fill:#6E645E;}
	.left.st6{fill:#232120;}
	.left.st7{fill:#FDDEC2;}
	.left.st8{fill:#FBCEA5;}
	.left.st9{fill:#0C0F19;}
	.left.st10{fill:#3C2415;}
	.left.st11{fill:#F7A39E;}
	.left.st12{fill:#FFFFFF;}
	.left.st13{fill:#B14228;}
	.left.st14{fill:#BA5A3B;}
	.left.st15{fill:#433E3F;}
	.left.st16{fill:#7D868C;}
	.left.st17{fill:#FF5000;}
	.left.st18{fill:#00AFEF;}
</style>
<g>
	<path class="left st0" d="M43.5,77.1l-13.9,0.1L19.6,90.2c0,0-1.2,1.8,0.4,1c1.7-0.7,10.3-6.2,10.3-6.2s1.6,3.2,1.4,4.8
		c-0.1,1.6-3.7,25.7-3.7,25.7s-0.3,2,0.6,0.3c1-1.7,7.6-13.1,8.7-16.8h0.8c0,0,3.8,8.9,8.7,16.7c0,0,1,1.8,0.7-0.1
		c-0.3-1.8-4-25.9-4-25.9s-0.1-1.3,1.2-4.5L45,84l5.2,1.4c0,0,2.1,0.6,2.7-1c0.6-1.6,2.3-6.9,2.3-6.9s0.4-1.2-0.8-0.4
		c-1.1,0.8-4,4.3-4,4.3L43.5,77.1z"/>
	<path class="left st1 bra" d="M42,82.3c0,0,0.6,2.2,1.2,3.9c0.6,1.7,1.2,2.5,0.4,3.5c-0.9,1-9.3,1.1-11.8,0.1c0,0-0.7-0.2-0.5-2.4
		c0.3-2.2,0-5.1,0-5.1l1.7-1.8c0,0,4,4.2,7.2-0.3L42,82.3z"/>
	<polygon class="left st2 girl-shirt" points="34.8,80.2 33,88.3 31.7,90.5 30.3,85 27.2,86.9 24.4,84 29.6,77.3 31.6,77.3 	"/>
	<polygon class="left st2 girl-shirt" points="38.5,80.2 42,87.8 43.7,90.5 45,84 47.4,84.7 48.9,80.5 43.7,77.2 41,77.4 	"/>
	<polygon class="left st3" points="34,77.8 34.8,80.2 31.3,82.3 31.3,77.4 	"/>
	<polygon class="left st3" points="39.2,77.8 38.5,80.2 42,82.3 42,77.4 	"/>
	<path class="left st4 pent" d="M43.2,89.8c0,0,2.3,4.5,2.5,9.9l-6.8,3.1l-0.8-1.2h-0.9l-0.6,1.2l-7.1-2.1c0,0,1.3-8.6,2.5-10.8
		C32.1,89.9,36.7,91.1,43.2,89.8z"/>
	<path class="left st5 pent" d="M45.9,99.1c0,0-6.6,2.9-7.7,3.3l0.7,0.8c0,0,6.5-2.2,7.3-3.2L45.9,99.1z"/>
	<path class="left st5 pent" d="M37.1,102.2l-0.3,0.9c0,0-7.9-2-7.9-2.3v-1L37.1,102.2z"/>
	<path class="left st6" d="M46.2,106.8l-3.7,1.3l4.4,7.8c0,0,0.9,1.5,0.6-0.2C47.3,113.9,46.2,106.8,46.2,106.8z"/>
	<path class="left st6" d="M32.9,108.3l-3.6-1.3l-1.3,8.5c0,0-0.3,2,0.6,0.3C29.6,114.1,32.9,108.3,32.9,108.3z"/>
	<g>
		<path class="left st0" d="M63.8,53.6c-0.9,3.8,0.5,7.5,3.3,8.1c2.8,0.7,5.8-1.8,6.7-5.7c0.9-3.8-0.5-7.5-3.3-8.1
			C67.7,47.2,64.7,49.8,63.8,53.6z"/>
		
			<ellipse transform="matrix(-0.9575 0.2883 -0.2883 -0.9575 26.2715 105.7932)" class="left st0" cx="5.3" cy="54.8" rx="5.2" ry="7.1"/>
		<path class="left st7" d="M5.8,47.2c0,17,14,30.7,31.2,30.7s31.2-13.7,31.2-30.7c0-5.5-1.5-10.7-4-15.1C58.8,22.8,48.6,28,37,28
			c-11.7,0-21.9-5.1-27.2,4.3C7.2,36.7,5.8,41.8,5.8,47.2z"/>
		<path class="left st8" d="M62.8,38.4c0,0-7.4,11.5-23.3,11l7.2-2.6l4.7-5.9L51,40.3c0,0-0.9,9.2-22.2,7.5c0,0-2.8,0.8-5.4,0l1-1.1
			l9.4-10l-3.7,1.9c0,0-4.3,3.5-7.5,5.1c-3.3,1.6-7.1,5.4-7.1,5.4L13,43.5l14.3-14.7l8.4-4l29.2,4.9L62.8,38.4z"/>
		<path class="left st9" d="M60.7,42.3c0,0-6.2-4-12.8,0C47.9,42.3,53.6,35.9,60.7,42.3z"/>
		<ellipse class="left st10 eye2-left" cx="52.6" cy="55.4" rx="3.3" ry="3.7"/>
		<path class="left st9 eyebrow2-left" d="M58.3,47.7c0,0-1.3,2.5-3,3.2C55.2,51,57.6,51.5,58.3,47.7z"/>
		<path class="left st9 eyebrow2-left" d="M55.9,46.8c0,0-0.2,2.9-2,3.9C53.9,50.7,56.7,50.3,55.9,46.8z"/>
		<ellipse class="left st10 eye1-left" cx="21.6" cy="55.4" rx="3.3" ry="3.7"/>
		<path class="left st11" d="M40.2,61.7c0,0-1.2,2-3.4,2c-2.2,0-3.6-2-3.6-2s-0.8-0.9-0.8,0.2c0,1.1,1,4.2,4.4,4.2c3.4,0,4.2-3.7,4.2-4.1
			C41,61.5,40.8,60.9,40.2,61.7z"/>
		<path class="left st12" d="M40.2,63.2c0,0-1.4,1.9-3.1,2.2C37.1,65.5,39.3,65.8,40.2,63.2z"/>
		<path class="left st13 head-left" d="M61.9,5.7c0,0,3.3-4.4,7.7-4.8c4.4-0.4,20,2.9,22.1,24.7c2.1,21.8-7.8,26.2-7.8,26.2s0.3,10.7-12.5,12.5
			c0,0,11.4-10.3,0.9-34.4l-10.6-15L61.9,5.7z"/>
		<path class="left st9" d="M13,42.3c0,0,6.2-4,12.8,0C25.8,42.3,20.1,35.9,13,42.3z"/>
		<path class="left st2 head-left" d="M64.9,10.8c0,0-0.2-5.8-2.7-7c0,0-2.1-1.7-4.6,1L64.9,10.8z"/>
		<path class="left st9 eyebrow1-left" d="M16,47.7c0,0,1.3,2.5,3,3.2C19,51,16.6,51.5,16,47.7z"/>
		<path class="left st8 eyebrow1-left" d="M14.7,66.5c0,0-1.2-0.2-2.8-1l-1.2-1.8l3.5,2.4L14.7,66.5z"/>
		<path class="left st9 eyebrow1-left" d="M18.4,46.8c0,0,0.2,2.9,2,3.9C20.3,50.7,17.6,50.3,18.4,46.8z"/>
		<path class="left st8" d="M66.7,54.3c0,0-1.8,6.4-6.3,11.1L64.9,53l1.8-3.6V54.3z"/>
		<path class="left st14 head-left" d="M67.3,56.1c0,0,4.7-4.8,6.3-15.8C75.1,29.4,70.9,0.4,38.4,0C4.5-0.4,1.1,26.3,0.4,31.5
			c-0.8,5.2-1.5,26.6,14.3,34.9c0,0-4.4-2.6-2.3-13.5c0,0,0.5,2.2,1,3.1c0,0-1.2-5.6,7.5-12.8c8.5-7.1,7-4.7,11.6-10.2
			c0.1-0.1,0.2-0.2,0.2-0.3c4.9-5.8-5.2,11.6-9.2,13.8c0,0,3.5,0.5,5.5-0.3c0,0,13.1,1.3,22-6c0,0-5.4,7.2-11.6,9.1
			c0,0,14-0.7,22.6-15.5c0,0,3.9,16.9-1.6,31.5c0,0,4.8-7.6,5.9-14.3c0,0,0.9,4.6,0.4,5.6L67.3,56.1z"/>
	</g>
</g>
<g class="mobile">
	<polygon class="left st15" points="49.6,78.4 49.6,77.1 64,69.2 69.7,75.4 68.9,77.1 53.8,84.1 	"/>
	<polygon class="left st12" points="52.4,76.7 63.7,70.1 68.2,75 56,81.2 	"/>
	<g>
		<path class="left st16" d="M56.6,77.7l-0.8,0.4c-0.1,0.1-0.2,0-0.3-0.1c-0.1-0.1-0.1-0.3,0-0.3l1-0.5c0,0,0.1-0.1,0-0.1
			c0,0-0.1-0.1-0.1,0l-1,0.5c-0.1,0.1-0.2,0.1-0.2,0.3c0,0.1,0,0.2,0.1,0.3c0.1,0.2,0.3,0.3,0.5,0.2l0.8-0.4c0.1-0.1,0.2,0,0.3,0.1
			c0.1,0.1,0.1,0.3,0,0.3l-1,0.6c0,0-0.1,0.1,0,0.1c0,0,0.1,0.1,0.1,0l1-0.6c0.1-0.1,0.2-0.1,0.2-0.3c0-0.1,0-0.2-0.1-0.3
			C57,77.7,56.8,77.6,56.6,77.7z"/>
		<path class="left st16" d="M57.6,76.3L56.4,77c0,0-0.1,0.1,0,0.1c0,0,0.1,0.1,0.1,0l0.5-0.3c0.1,0.1,0.2,0.4,0.3,0.6
			c0.1,0.2,0.3,0.5,0.3,0.6c0,0,0.1,0.1,0.1,0c0,0,0.1-0.1,0-0.1l-0.7-1.2l0.5-0.3c0,0,0.1-0.1,0-0.1C57.7,76.3,57.6,76.3,57.6,76.3
			z"/>
		<path class="left st16" d="M58.8,75.6c0,0-0.1,0.1,0,0.1l0.6,1c0,0.1,0,0.2-0.1,0.3l-0.8,0.4c-0.1,0-0.2,0-0.3-0.1l-0.6-1
			c0,0-0.1-0.1-0.1,0c0,0-0.1,0.1,0,0.1l0.6,1c0.1,0.2,0.3,0.2,0.5,0.1l0.8-0.4c0.2-0.1,0.2-0.3,0.1-0.5l-0.6-1
			C58.9,75.6,58.9,75.6,58.8,75.6z"/>
		<path class="left st16" d="M60.1,74.9l-1,0.5c-0.1,0-0.1,0.1,0,0.2l0.7,1.2c0,0.1,0.1,0.1,0.2,0l1-0.5c0.2-0.1,0.2-0.3,0.1-0.5
			l-0.4-0.8C60.5,74.9,60.2,74.8,60.1,74.9z M60.8,76.2c-0.2,0.1-0.3,0.2-0.5,0.3c-0.1,0.1-0.3,0.2-0.4,0.2l-0.3-0.5l-0.3-0.6
			l0.9-0.5c0.1,0,0.2,0,0.3,0.1l0.4,0.8C60.9,76,60.9,76.1,60.8,76.2z"/>
		<path class="left st17" d="M63.9,74.4l-0.5,0.3l-0.6-1.1l0.5-0.3c0,0,0.1-0.1,0-0.1c0,0-0.1-0.1-0.1,0L62,73.8c0,0,0,0,0,0.1
			c0,0,0,0,0,0.1c0,0,0.1,0.1,0.1,0l0.5-0.3l0.6,1.1l-0.5,0.3c0,0-0.1,0.1,0,0.1c0,0,0,0,0,0c0,0,0,0,0.1,0l1.2-0.7
			c0,0,0.1-0.1,0-0.1C64,74.4,64,74.4,63.9,74.4z"/>
		<path class="left st18" d="M62.5,75.2l-1-0.3l0.2-0.8c0,0,0-0.1,0-0.1c0,0-0.1,0-0.1,0c0,0,0,0,0,0.1L61.4,75l-0.9-0.3c0,0,0,0-0.1,0
			c0,0,0,0.1,0,0.1c0,0,0,0.1,0.1,0.1l0.9,0.3l0.3,0.6c0,0,0.1,0.1,0.1,0c0,0,0.1-0.1,0-0.1l-0.3-0.5l0.9,0.2c0,0,0,0,0.1,0
			C62.6,75.3,62.6,75.3,62.5,75.2C62.6,75.2,62.6,75.2,62.5,75.2z"/>
		<path class="left st17" d="M65.4,73.6l-1-0.3l0.3-0.9c0,0,0-0.1,0-0.1c0,0-0.1,0-0.1,0c0,0,0,0,0,0L64,73.9l-0.5-0.8c0,0-0.1-0.1-0.1,0
			c0,0-0.1,0.1,0,0.1l0.7,1.2c0,0,0.1,0.1,0.1,0c0,0,0.1-0.1,0-0.1l-0.1-0.2l0.2-0.6l1,0.3c0,0,0,0,0.1,0
			C65.5,73.7,65.5,73.7,65.4,73.6C65.5,73.6,65.4,73.6,65.4,73.6z"/>
	</g>
</g>
</svg>
