<?xml version="1.0" encoding="utf-8"?>
<!-- Generator: Adobe Illustrator 19.0.0, SVG Export Plug-In . SVG Version: 6.00 Build 0)  -->
<svg version="1.1" id="Layer_1" xmlns="http://www.w3.org/2000/svg" xmlns:xlink="http://www.w3.org/1999/xlink" x="0px" y="0px"
	 viewBox="0 0 189.2 228" style="enable-background:new 0 0 189.2 228;" xml:space="preserve">
<style type="text/css">
.form-img-left .st0{fill:#FBD0A9;}
.form-img-left .st1{fill:#FDDEC2;}
.form-img-left .st2{fill:#FBCEA5;}
.form-img-left .st3{fill:#0C0F19;}
.form-img-left .st4{fill:#A87428;}
.form-img-left .st5{fill:#F7A39E;}
.form-img-left .st6{fill:#FFFFFF;}
.form-img-left .st7{fill:#B14228;}
.form-img-left .st8{fill:#FAD742;}
.form-img-left .st9{fill:#BA5A3B;}
.form-img-left .st10{fill:#D1D2D2;}
.form-img-left .st11{fill:#6BB3CA;}
.form-img-left .st12{fill:#7DD2ED;}
.form-img-left .st13{fill:#55514E;}
.form-img-left .st14{fill:#6E645E;}
.form-img-left .st15{fill:#232120;}
</style>
<g class="form-img-left">
	<g>
		
			<ellipse transform="matrix(0.8693 -0.4943 0.4943 0.8693 -53.1788 45.7148)" class="st0" cx="59.9" cy="123.4" rx="10.1" ry="13.9"/>
		
			<ellipse transform="matrix(0.9998 1.867904e-002 -1.867904e-002 0.9998 1.7106 -3.3303)" class="st0" cx="179.1" cy="89.9" rx="10.1" ry="13.9"/>
		<path class="st1" d="M174.3,75.9c9,31.9-10,65.1-42.4,74.2c-32.4,9.1-65.9-9.4-74.9-41.2c-2.9-10.3-2.9-20.8-0.4-30.6
			c5.2-20.3,27-16,48.8-22.1c22-6.2,38.4-21.1,53.4-6.4C166,56.8,171.4,65.6,174.3,75.9z"/>
		<path class="st2" d="M62.5,89.3c0,0,20.1,17.7,49.7,8.4l-14.9-1.1l-12-8.6l0.3-1.4c0,0,6.6,16.9,45.7,2.3c0,0,5.8,0,10.2-2.9
			l-2.5-1.5l-23-13.9l7.9,1.7c0,0,9.8,4.3,16.8,5.6c7,1.3,16.3,6.4,16.3,6.4l1.8-11.8l-34.6-20l-18-3.1L53.9,74.1L62.5,89.3z"/>
		<path class="st3" d="M68.5,95.6c0,0,9.6-10.8,24.1-6.8C92.5,88.9,78.4,79.7,68.5,95.6z"/>
		<ellipse transform="matrix(0.9628 -0.2704 0.2704 0.9628 -27.9497 28.789)" class="st4" cx="90.5" cy="115.9" rx="6.4" ry="7.3"/>
		<path class="st3" d="M75.9,104.5c0,0,3.7,4,7.4,4.5C83.3,109,79.1,111.3,75.9,104.5z"/>
		<path class="st3" d="M79.8,101.5c0,0,1.9,5.3,5.7,6.2C85.5,107.7,80.2,108.5,79.8,101.5z"/>
		
			<ellipse transform="matrix(-0.9627 0.2704 -0.2704 -0.9627 318.8684 155.0679)" class="st4" cx="148.8" cy="99.5" rx="6.4" ry="7.3"/>
		<path class="st5" d="M117.3,121.2c0,0,3.3,3.2,7.4,2.1c4.1-1.1,5.7-5.7,5.7-5.7s1.1-2.2,1.7-0.1c0.6,2.1,0.4,8.5-6,10.3
			c-6.4,1.8-9.9-4.8-10.1-5.5C115.7,121.3,115.7,120,117.3,121.2z"/>
		<path class="st6" d="M118.1,124.1c0,0,3.6,2.8,7,2.5C125.1,126.6,121.1,128.4,118.1,124.1z"/>
		<path class="st7" d="M46.9,27.4c0,0-8.5-6.5-17.1-5c-8.6,1.5-36.1,16-28.5,58.1c7.6,42.1,28.5,45.2,28.5,45.2s5.1,20.3,30,16.8
			c0,0-26.9-13.3-19.9-64.2L52,44.6L46.9,27.4z"/>
		<path class="st3" d="M158.2,70.4c0,0-13.8-4.2-24.1,6.8C134.1,77.2,141.4,62.1,158.2,70.4z"/>
		<path class="st8" d="M43.9,38.6c0,0-2.7-10.9,1.3-14.6c0,0,3.1-4.3,9.2-0.5L43.9,38.6z"/>
		<path class="st3" d="M155.3,82.2c0,0-1.1,5.3-4,7.7C151.4,89.9,156.2,89.7,155.3,82.2z"/>
		<path class="st2" d="M167.7,116.7c0,0,2.2-0.9,4.7-3.4l1.3-4l-5.3,6.3L167.7,116.7z"/>
		<path class="st3" d="M150.4,81.7c0,0,1.1,5.5-1.6,8.3C148.8,90,153.8,87.8,150.4,81.7z"/>
		<path class="st2" d="M63.4,121.3c0,0,6.8,11.1,17.7,17.5l-15-21l-5.4-5.8L63.4,121.3z"/>
		<path class="st9" d="M63.4,125.1c0,0-11.3-6.6-20.1-26.3C34.5,79,27.2,22.3,88.1,4.3c63.5-18.8,83.9,29.8,88.1,39.2
			c4.2,9.4,16.9,49.2-8.4,73.3c0,0,6.9-7.3-2.8-26.6c0,0,0.2,4.5-0.3,6.3c0,0-0.8-11.1-20.8-20.2c-19.7-8.9-15.7-5.2-27.2-13
			c-0.2-0.1-0.4-0.3-0.6-0.4c-12.3-8.3,16,19.1,24.5,21.1c0,0-6.4,2.8-10.4,2.3c0,0-24,9.4-44.6,0.4c0,0,14,10.7,26.6,11.1
			c0,0-26.7,6.1-50.6-17.2c0,0,1.6,33.8,19.7,58.3c0,0-13.1-11.8-18.6-23.7c0,0,0.8,9.1,2.3,10.8L63.4,125.1z"/>
	</g>
	<path class="st0" d="M119.1,152l26.1-7.1l25.8,19c0,0,3.3,2.6-0.3,2.1c-3.6-0.5-22.7-6.2-22.7-6.2s-1.2,6.8-0.2,9.7
		c1,3,20.6,46.4,20.6,46.4s1.6,3.5-1,0.9c-2.7-2.7-21.3-20.6-25.3-27l-1.5,0.4c0,0-2.4,18.7-7.5,35.9c0,0-1,3.9-1.4,0.3
		c-0.4-3.6-6.1-50.9-6.1-50.9s-0.5-2.6-4.6-7.9l-1.1-1.9l-9.1,5.3c0,0-3.7,2.2-5.7-0.4c-1.9-2.6-7.9-11.7-7.9-11.7s-1.3-2,1.2-1.1
		c2.5,0.8,9.8,6,9.8,6L119.1,152z"/>
	<path class="st10" d="M124.8,160.8c0,0,0,4.5-0.3,8.1c-0.3,3.6-1,5.3,1.2,6.7c2.2,1.4,18-2.8,22.2-6c0,0,1.3-0.8-0.4-4.7
		c-1.6-3.9-2.7-9.6-2.7-9.6l-4.2-2.4c0,0-5.2,9.9-13.7,3.3L124.8,160.8z"/>
	<polygon class="st11" points="137.2,153.2 144.8,167.5 148.4,170.8 148.1,159.8 154.9,161.8 158.6,154.7 145.3,144.9 141.5,146 	
		"/>
	<polygon class="st11" points="130.2,155.2 127.7,171.2 125.9,177.1 120,165.8 115.8,168.2 110.7,161.1 118.9,152.2 124.1,151.2 	
		"/>
	<polygon class="st12" points="137.3,148.2 137.2,153.2 144.8,155.2 142.3,146.1 	"/>
	<polygon class="st12" points="127.6,151 130.2,155.2 124.8,160.8 122.2,151.7 	"/>
	<path class="st13" d="M126.4,175.7c0,0-2.1,9.6,0.5,19.9l13.7-0.4l0.1-5.3l1.7-0.5l2.5,4.6l12.5-6.4c0,0-6.7-14.1-9.9-17.7
		C147.4,169.9,139.4,174.6,126.4,175.7z"/>
	<path class="st14" d="M125.7,194.7c0,0,7.8,0.3,13.5-0.5l0.6,2.1c0,0-12.5,1.6-14.6,0.3L125.7,194.7z"/>
	<path class="st14" d="M144.8,193.3l0.4,1.5c0,0,12.4-6,13.2-6.8l-1.4-1.6L144.8,193.3z"/>
	<path class="st15" d="M129.7,209.2l7.6,0.5l-4.2,16.9c0,0-0.9,3.2-1.3-0.1C131.4,223.2,129.7,209.2,129.7,209.2z"/>
	<path class="st15" d="M155.6,205l6-4.4l6.9,15.4c0,0,1.7,3.5-1,0.9C164.8,214.1,155.6,205,155.6,205z"/>
</g>
</svg>
