<?xml version="1.0" encoding="utf-8"?>
<!-- Generator: Adobe Illustrator 19.0.0, SVG Export Plug-In . SVG Version: 6.00 Build 0)  -->
<svg version="1.1" id="Layer_1" xmlns="http://www.w3.org/2000/svg" xmlns:xlink="http://www.w3.org/1999/xlink" x="0px" y="0px"
	 viewBox="0 0 168 267.1" style="enable-background:new 0 0 168 267.1;" xml:space="preserve">
<style type="text/css">
.img-form-right .st0{fill:#DCB381;}
.img-form-right .st1{fill:#446D75;}
.img-form-right .st2{fill:#FF5000;}
.img-form-right .st3{fill:#E2C196;}
.img-form-right .st4{fill:#C0D9E5;}
.img-form-right .st5{fill:#363334;}
.img-form-right .st6{fill:#3C322B;}
.img-form-right .st7{fill:#B09670;}
</style>
<g class="img-form-right">
	<path class="st0" d="M57.2,181.6c0,0-6,6.1-12.5,3.1c-6.6-3-17.5-12.4-17.5-12.4s-5.3-5.4-3.5,2.6c1.8,8,9.2,23.1,20.3,27.2
		c11.1,4,7.6,3.9,7.6,3.9s-5.4,12-7.6,19.7c-2.3,7.7-7.4,32-7.4,32l11.8,2.7l4.8-21l1.2,0.3l-4.8,21l11.8,2.7l4.9-21.2
		c0,0,4.8-23.2,3.3-32.2c0,0,19.2,7.1,36.9-11.9c0,0,8.4-8.2-3-5c-11.4,3.2-20.4,2.1-22.2,1.5c-1.8-0.7-6.3-4.1-6.4-10L57.2,181.6z"
		/>
	<polygon class="st1" points="34,228 31.9,237.4 52.7,242.2 53.7,239.6 53.8,242.4 74.1,247.1 76.4,237.2 	"/>
	<path class="st2" d="M55.6,182l8.6,10.2l11.7-5.5c0,0,3,8.4,11.9,7.7c0,0-0.2,10.4,2.8,15.8c0,0-5,1.5-10.5,2.2
		c0,0,0.1,16.3-2,25.7l-45.2-10.4c0,0,4-15.1,10.5-24.8c0,0-5.1-1.5-9-6.2c0,0,6.2-6.1,9.5-13.6C44,183.2,51,186.7,55.6,182z"/>
	<polygon class="st2" points="37.6,248.2 50.8,250.5 47.6,261.8 34.9,257.7 	"/>
	<polygon class="st2" points="51.7,250.8 63.4,254.1 62.5,258.4 49.6,260.7 	"/>
	<path d="M37.9,266.5c0,0-11.6,0.2-11.6-3.2c0-3.4,5.2-7.3,11.7-7.3c6.5,0,10.6,1.8,10.6,4.7C48.6,263.6,49.4,266.6,37.9,266.5z"/>
	<path d="M60.1,267.1c0,0,11.6,0.4,11.7-3c0-3.4-5-7.4-11.5-7.5c-6.5-0.1-10.7,1.6-10.7,4.5C49.5,263.9,48.7,266.9,60.1,267.1z"/>
	<ellipse transform="matrix(0.9746 0.2241 -0.2241 0.9746 25.0631 0.3448)" class="st0" cx="11" cy="110.6" rx="10.9" ry="13.2"/>
	
		<ellipse transform="matrix(0.9746 0.2241 -0.2241 0.9746 35.7011 -29.8325)" class="st0" cx="149.3" cy="142.4" rx="10.9" ry="13.2"/>
	<circle class="st3" cx="82.9" cy="115.7" r="70.7"/>
	<polygon class="st4" points="55.6,182 55.8,181.1 59.8,182.5 64.2,192.2 54.5,193.2 	"/>
	<polygon class="st4" points="76.3,186.1 75.9,186.7 72.2,197.3 64.2,192.2 71.9,185.6 	"/>
	<path class="st5" d="M167.4,103.8c0,0,3.2-15.1-4.7-31.4c-7.8-16.3-18-27.4-17.9-30.8c0,0-2.2,1.2-4.4,1.7c0,0-0.7-6.2-7.3-12.5
		l-1.8-3.1l-1.7,3.7c0,0-2.9-6.3-6.2-10.1c-3.3-3.8-4.8-5.7-4.8-5.7l-1.6,3.7c0,0-2.8-6.6-5-9.7c-2.3-3.2-3.6-6-3-7.2
		c0,0-12.4,7.7-17.4,14.9c0,0-0.2-1.8,1.3-4.9c0,0-2,0.9-5.1,1.1c-3.1,0.2-10.6,2.4-17.3,9.3l0.1-4c0,0-2,1.2-4.6,2.6
		c-2.6,1.5-13,7-13,7s2.3-1.8,1.9-3.4c0,0-2.4,1.8-11.5,6.5c-9.1,4.6-24.5,20.5-27,24.8c-20.7,36.2-4.3,58.6-4.3,58.6
		C15.4,101.5,25.5,96,25.5,96c1.5-6.4,9.2-19.5,9.2-19.5c5.6-2.3,38.6-8.7,59.9,5.9c0,0,30.8-4,51.8,17.7c0,0,4.8,12.8,1.3,24.1
		c0,0,4.8,7-0.8,21.7C146.9,145.8,163.5,140.6,167.4,103.8z"/>
	<circle class="st6" cx="54" cy="122" r="6.4"/>
	<circle class="st6" cx="109.8" cy="134.8" r="6.4"/>
	<path class="st7" d="M63.9,147.5c0,0,9.8,10,27.7,6.4C91.6,153.9,75.2,166.8,63.9,147.5z"/>
	<path d="M51.9,87.9c0,0,6.5-2.9,12.4,0.9C64.3,88.9,59.1,81.8,51.9,87.9z"/>
	<path d="M125.6,104.9c0,0-4.6-5.4-11.6-4.6C114.1,100.3,121.8,96.2,125.6,104.9z"/>
</g>
</svg>
