<?xml version="1.0" encoding="utf-8"?>
<!-- Generator: Adobe Illustrator 19.0.0, SVG Export Plug-In . SVG Version: 6.00 Build 0)  -->
<svg version="1.1" id="Layer_1" xmlns="http://www.w3.org/2000/svg" xmlns:xlink="http://www.w3.org/1999/xlink" x="0px" y="0px"
	 viewBox="0 0 1038.3 510.9" style="enable-background:new 0 0 1038.3 510.9;" xml:space="preserve">
<style type="text/css">
	.svg-img1 .st0{fill:#FF5000;}
	.svg-img1 .st1{fill:#FF883D;}
	.svg-img1 .st2{fill:#FFB17E;}
	.svg-img1 .st3{fill:#FFD3B5;}
	.svg-img1 .st4{fill:#FCD1A9;}
	.svg-img1 .st5{fill:#D1D2D2;}
	.svg-img1 .st6{fill:#F65097;}
	.svg-img1 .st7{fill:#EFC7CD;}
	.svg-img1 .st8{fill:#55514E;}
	.svg-img1 .st9{fill:#6E645E;}
	.svg-img1 .st10{fill:#232120;}
	.svg-img1 .st11{fill:#FDDFC3;}
	.svg-img1 .st12{fill:#FCCFA5;}
	.svg-img1 .st13{fill:#0D1019;}
	.svg-img1 .st14{fill:#3C2415;}
	.svg-img1 .st15{fill:#F7A39F;}
	.svg-img1 .st16{fill:#FFFFFF;}
	.svg-img1 .st17{fill:#B24328;}
	.svg-img1 .st18{fill:#BA5B3C;}
	.svg-img1 .st19{fill:#BDBEC1;}
	.svg-img1 .st20{fill:#595A5C;}
	.svg-img1 .st21{fill:#414142;}
	.svg-img1 .st22{fill:#A1CF67;}
	.svg-img1 .st23{fill:#58B5E6;}
	.svg-img1 .st24{fill:#42A1D9;}
	.svg-img1 .st25{fill:#7D868C;}
	.svg-img1 .st26{fill:#00AFEF;}
	.svg-img1 .st27{fill:#E8E9E9;}
	.svg-img1 .st28{fill:#2AAAE2;}
	.svg-img1 .st29{fill:#272361;}
	.svg-img1 .st30{fill:#EEB18B;}
	.svg-img1 .st31{fill:#FCC7A3;}
	.svg-img1 .st32{fill:#6D0B23;}
	.svg-img1 .st33{fill:#EE6E6D;}
	.svg-img1 .st34{fill:#ED797F;}
	.svg-img1 .st35{fill:#25110D;}
	.svg-img1 .st36{fill:#E29D26;}
	.svg-img1 .st37{fill:#F8C039;}
	.svg-img1 .st38{fill:#404041;}
	.svg-img1 .st39{fill:#433E3F;}
</style>
<g class="svg-img1">
	<g>
		<rect x="460.5" y="332.7" class="st0" width="538.4" height="90.8"/>
	</g>
	<g>
		<rect x="460.5" y="244.2" class="st1" width="538.4" height="90.8"/>
	</g>
	<g>
		<rect x="460.5" y="157.1" class="st2" width="538.4" height="90.8"/>
	</g>
	<g>
		<rect x="460.5" y="67" class="st3" width="538.4" height="90.8"/>
	</g>
	<g>
		<g>
			<path id="XMLID_105_" class="st4" d="M208.2,342.1l-44.2,0.4l-32.2,41.2c0,0-4,5.6,1.4,3.2c5.4-2.4,32.9-19.8,32.9-19.8
				s4.9,10.1,4.6,15.2c-0.3,5.1-11.9,82-11.9,82s-1,6.2,2,0.8c3-5.4,24.4-41.7,27.8-53.7h2.6c0,0,12,28.4,27.7,53.4
				c0,0,3.3,5.8,2.3-0.1c-0.9-5.8-12.9-82.7-12.9-82.7s-0.3-4.2,3.8-14.4l0.8-3.5l16.7,4.3c0,0,6.8,1.8,8.7-3.2
				c1.9-5,7.3-21.9,7.3-21.9s1.2-3.7-2.4-1.2c-3.6,2.4-12.7,13.8-12.7,13.8L208.2,342.1z"/>
		</g>
		<g>
			<path class="st5" d="M203.2,358.4c0,0,2,7.1,4,12.6c2,5.5,4,7.9,1.1,11c-2.8,3.1-29.6,3.5-37.6,0.3c0,0-2.3-0.7-1.5-7.6
				c0.8-6.9,0-16.3,0-16.3l5.5-5.6c0,0,12.6,13.3,23-0.9L203.2,358.4z"/>
		</g>
		<g>
			<polygon id="XMLID_104_" class="st6" points="180.3,351.9 174.8,377.8 170.5,384.6 166.1,367.1 156.3,373.3 147.4,363.8 
				164,342.4 170.4,342.4 			"/>
		</g>
		<g>
			<polygon id="XMLID_103_" class="st6" points="192.2,351.9 203.2,376.1 208.7,384.6 213,364.1 220.7,366.1 225.5,352.7 
				208.7,342.3 200.1,343 			"/>
		</g>
		<g>
			<polygon id="XMLID_102_" class="st7" points="177.8,344.2 180,351.9 168.8,358.4 168.8,343 			"/>
		</g>
		<g>
			<polygon id="XMLID_101_" class="st7" points="194.2,344.2 191.9,351.9 202.8,358.4 202.8,343 			"/>
		</g>
		<g id="XMLID_2_">
			<path class="st8" d="M207.3,382.5c0,0,7.5,14.3,8.1,31.5l-21.8,9.5l-2.4-4.1h-3l-1.8,4.1l-22.6-6.7c0,0,4.3-26.1,7.8-33.2
				C171.6,383.7,186.3,386.6,207.3,382.5z"/>
		</g>
		<g>
			<path class="st9" d="M216,412.1c0,0-18.2,4-22.2,5.2v3.5c0,0,20.7-3,23.4-6L216,412.1z"/>
		</g>
		<g>
			<path class="st9" d="M179.8,418.3v2.6c0,0-21-4-21-5v-3.1L179.8,418.3z"/>
		</g>
		<g>
			<path class="st10" d="M216.8,436.8l-11.8,4.1l14.1,24.7c0,0,2.8,4.7,2-0.8C220.3,459.4,216.8,436.8,216.8,436.8z"/>
		</g>
		<g>
			<path class="st10" d="M174.3,441.5l-11.4-4.2l-4.1,27.2c0,0-1.1,6.3,2,0.9C163.9,459.9,174.3,441.5,174.3,441.5z"/>
		</g>
		<g>
			<g>
				<path id="XMLID_100_" class="st4" d="M272.9,267c-3,12.2,1.7,23.8,10.5,26c8.8,2.2,18.4-5.9,21.4-18c3-12.2-1.7-23.8-10.5-26
					C285.5,246.7,275.9,254.8,272.9,267z"/>
			</g>
			<g>
				<path id="XMLID_99_" class="st4" d="M70.7,275.7c3.6,12,13.6,19.6,22.3,17c8.7-2.6,12.8-14.5,9.2-26.5
					c-3.6-12-13.6-19.6-22.3-17C71.2,251.8,67.1,263.7,70.7,275.7z"/>
			</g>
			<g>
				<path id="XMLID_98_" class="st11" d="M87.9,246.7c0,54.1,44.5,97.9,99.5,97.9c54.9,0,99.5-43.8,99.5-97.9
					c0-17.6-4.7-34-12.9-48.3c-17.1-29.6-49.5-13.2-86.6-13.2c-37.3,0-69.8-16.3-86.8,13.6C92.5,213,87.9,229.3,87.9,246.7z"/>
			</g>
			<g>
				<path id="XMLID_97_" class="st12" d="M269.7,218.5c0,0-23.7,36.7-74.4,35.1l23-8.3l15-18.8l-1.1-2c0,0-2.9,29.5-70.9,23.8
					c0,0-9.1,2.6-17.3,0l3.3-3.5l30.1-32l-11.7,6.2c0,0-13.6,11.1-24,16.2c-10.5,5.1-22.8,17.2-22.8,17.2l-8.1-17.8l45.6-46.8
					l26.9-12.8l93,15.6L269.7,218.5z"/>
			</g>
			<g>
				<path id="XMLID_96_" class="st13" d="M263,231c0,0-19.8-12.7-40.8,0C222.2,231,240.4,210.4,263,231z"/>
			</g>
			<g>
				<path id="XMLID_95_" class="st14" d="M226.7,272.6c0,6.6,4.7,11.9,10.5,11.9c5.8,0,10.5-5.3,10.5-11.9c0-6.6-4.7-11.9-10.5-11.9
					C231.4,260.7,226.7,266,226.7,272.6z"/>
			</g>
			<g>
				<path id="XMLID_94_" class="st13" d="M255.2,248.2c0,0-4,7.9-9.6,10.3C245.6,258.6,253.3,260.4,255.2,248.2z"/>
			</g>
			<g>
				<path id="XMLID_93_" class="st13" d="M247.7,245.3c0,0-0.7,9.2-6.2,12.3C241.5,257.6,250.3,256.5,247.7,245.3z"/>
			</g>
			<g>
				<path id="XMLID_92_" class="st14" d="M149,272.6c0,6.6-4.7,11.9-10.5,11.9c-5.8,0-10.5-5.3-10.5-11.9c0-6.6,4.7-11.9,10.5-11.9
					C144.3,260.7,149,266,149,272.6z"/>
			</g>
			<g>
				<path class="st15" d="M197.6,292.7c0,0-3.8,6.5-10.8,6.5c-6.9,0-11.5-6.5-11.5-6.5s-2.7-3-2.7,0.6c0,3.5,3.1,13.5,14,13.5
					c10.9,0,13.5-11.9,13.5-13.2C200.1,292.3,199.5,290.3,197.6,292.7z"/>
			</g>
			<g>
				<path id="XMLID_91_" class="st16" d="M197.6,297.7c0,0-4.4,6-9.9,7.1C187.6,304.8,194.7,305.8,197.6,297.7z"/>
			</g>
			<g>
				<path id="XMLID_90_" class="st17" d="M266.7,114.2c0,0,10.5-14,24.7-15.4c14.2-1.4,63.8,9.2,70.5,78.8
					c6.7,69.6-24.8,83.6-24.8,83.6s0.9,34.2-39.8,39.8c0,0,36.5-32.7,2.9-109.8l-33.9-47.7L266.7,114.2z"/>
			</g>
			<g>
				<path id="XMLID_89_" class="st13" d="M110.8,231c0,0,19.8-12.7,40.8,0C151.6,231,133.5,210.4,110.8,231z"/>
			</g>
			<g>
				<path class="st6" d="M276.4,130.6c0,0-0.6-18.4-8.5-22.4c0,0-6.8-5.5-14.7,3.2L276.4,130.6z"/>
			</g>
			<g>
				<path id="XMLID_88_" class="st13" d="M120.5,248.2c0,0,4,7.9,9.6,10.3C130.1,258.6,122.5,260.4,120.5,248.2z"/>
			</g>
			<g>
				<path id="XMLID_87_" class="st12" d="M116.2,308c0,0-3.9-0.5-8.9-3.2l-3.8-5.7l11.2,7.6L116.2,308z"/>
			</g>
			<g>
				<path id="XMLID_86_" class="st13" d="M128,245.3c0,0,0.7,9.2,6.2,12.3C134.2,257.6,125.4,256.5,128,245.3z"/>
			</g>
			<g>
				<path id="XMLID_85_" class="st12" d="M281.8,269.2c0,0-5.6,20.5-20,35.3l14.2-39.6l5.8-11.5V269.2z"/>
			</g>
			<g>
				<path id="XMLID_84_" class="st18" d="M284,275.1c0,0,14.9-15.4,20-50.3c5.1-34.9-8.5-127.4-112.2-128.8
					C83.7,94.6,73.1,179.9,70.6,196.6c-2.4,16.6-4.8,84.9,45.6,111.5c0,0-14.1-8.4-7.4-43.1c0,0,1.7,7.1,3.2,9.8
					c0,0-3.7-17.8,23.8-40.9c27.1-22.7,22.4-15.1,37.1-32.5c0.2-0.3,0.5-0.6,0.7-0.9c15.6-18.5-16.7,37-29.2,44c0,0,11.3,1.7,17.4-1
					c0,0,41.9,4.2,70.3-19c0,0-17.4,23-36.9,29.1c0,0,44.7-2.2,72-49.5c0,0,12.4,53.9-5.2,100.5c0,0,15.4-24.3,18.8-45.5
					c0,0,2.7,14.6,1.1,18L284,275.1z"/>
			</g>
		</g>
	</g>
	<g>
		<g>
			<g>
				<path d="M592,308.8c0,4.3,3.5,7.8,7.8,7.8h173.4c4.3,0,7.8-3.5,7.8-7.8V203.1c0-4.3-3.5-7.8-7.8-7.8H599.8
					c-4.3,0-7.8,3.5-7.8,7.8V308.8z"/>
			</g>
			<g>
				<polygon points="659.7,351.3 664,316.9 708.8,316.9 712.3,341.6 680.4,349.7 				"/>
			</g>
			<g>
				<rect id="XMLID_83_" x="840.2" y="369.3" class="st19" width="11.5" height="86.6"/>
			</g>
			<g>
				<polygon id="XMLID_82_" class="st20" points="840.2,455.9 810.7,448.9 810.7,369.3 840.2,369.3 				"/>
			</g>
			<g>
				<rect id="XMLID_81_" x="551" y="357.8" class="st19" width="315.7" height="11.5"/>
			</g>
			<g>
				<polygon id="XMLID_55_" class="st19" points="613.3,369.3 613.3,455.9 598.5,455.9 570.5,447 570.5,369.3 				"/>
			</g>
			<g>
				<path d="M806.7,357.8v-8.6c0,0,0-7.6-10.9-7.6c-10.9,0-12.5,4.7-12.5,8.1c0,3.4,0,8.1,0,8.1H806.7z"/>
			</g>
			<g>
				<polygon points="771.6,357.8 771.6,349.7 680.4,349.7 668.7,341.6 668.7,357.8 				"/>
			</g>
			<g>
				<polygon class="st21" points="771.6,349.7 758.3,341.6 668.7,341.6 680.4,349.7 				"/>
			</g>
			<g>
				<rect x="650.8" y="349.7" width="17.9" height="8.1"/>
			</g>
			<g>
				<defs>
					<rect id="SVGID_1_" x="601.6" y="202.6" width="169.9" height="106.8"/>
				</defs>
				<use xlink:href="#SVGID_1_"  style="overflow:visible;fill:#FFFFFF;"/>
				<clipPath id="SVGID_2_">
					<use xlink:href="#SVGID_1_"  style="overflow:visible;"/>
				</clipPath>
			</g>
			<g>
				<rect x="616.5" y="265.5" class="st16" width="132.1" height="43.6"/>
			</g>
			<g>
				<path id="XMLID_56_" class="st22" d="M655.7,246.8h4.4l8.3,13.4h0.1v-13.4h4.1v20h-4.4l-8.3-13.4h-0.1v13.4h-4.1V246.8z"/>
				<path id="XMLID_58_" class="st22" d="M676.4,246.8h15v3.7h-10.6v4.3h9.7v3.4h-9.7v4.9h10.8v3.7h-15.2V246.8z"/>
				<path id="XMLID_60_" class="st22" d="M713.6,266.8h-4.4l-3.4-13.6h-0.1l-3.3,13.6H698l-5.3-20h4.4l3.2,13.6h0.1l3.5-13.6h4.1
					l3.4,13.8h0.1l3.3-13.8h4.3L713.6,266.8z"/>
				<path id="XMLID_62_" class="st22" d="M626.9,274.8h9c5,0,6.9,3.2,6.9,6.4s-1.9,6.4-6.9,6.4h-4.6v7.2h-4.4V274.8z M631.3,284.2
					h3.4c2,0,3.9-0.4,3.9-3s-1.8-3-3.9-3h-3.4V284.2z"/>
				<path id="XMLID_65_" class="st22" d="M649,274.8h4.5l7.5,20h-4.6l-1.5-4.5h-7.5l-1.6,4.5h-4.5L649,274.8z M648.5,287.1h5.2
					l-2.5-7.3h-0.1L648.5,287.1z"/>
				<path id="XMLID_68_" class="st22" d="M665,278.5h-6v-3.7h16.4v3.7h-6v16.3H665V278.5z"/>
				<path id="XMLID_70_" class="st22" d="M677.7,274.8h4.4v20h-4.4V274.8z"/>
				<path id="XMLID_72_" class="st22" d="M686,274.8h15v3.7h-10.6v4.3h9.7v3.4h-9.7v4.9h10.8v3.7H686V274.8z"/>
				<path id="XMLID_74_" class="st22" d="M704.1,274.8h4.4l8.3,13.4h0.1v-13.4h4.1v20h-4.4l-8.3-13.4h-0.1v13.4h-4.1V274.8z"/>
				<path id="XMLID_76_" class="st22" d="M729.3,278.5h-6v-3.7h16.4v3.7h-6v16.3h-4.4V278.5z"/>
				<path id="XMLID_78_" class="st22" d="M741.7,290.5h4.4v4.3h-4.4V290.5z M746,280.2l-1.1,8.6h-2l-1.1-8.6v-5.4h4.1V280.2z"/>
			</g>
			<g>
				<g>
					<path id="XMLID_54_" class="st23" d="M937,305.2c0,0,23.3-4.7,26.4,17.9l-0.8,83.7c0,0,0,7.6-7.8,7.6c-7.8,0-19.7,0-19.7,0
						l-10.3-7.5L937,305.2z"/>
				</g>
				<g>
					<path id="XMLID_53_" class="st24" d="M882.9,421H949c0,0,5.8,1.9,5.8-6.7c0-8.6-5.8-7.5-5.8-7.5l-15.9,0L882.9,421z"/>
				</g>
				<g>
					<polygon points="921.4,421 921.4,433.8 902.1,433.8 902.1,421.2 					"/>
				</g>
				<g>
					<polygon points="918.8,433.8 918.8,444.6 954.8,451.6 871.5,451.6 906.4,444.6 906.4,433.8 					"/>
				</g>
				<g>
					<path d="M947.8,458.6c0,3.9,3.1,7,7,7c3.9,0,7-3.1,7-7c0-3.9-3.1-7-7-7C950.9,451.6,947.8,454.7,947.8,458.6z"/>
				</g>
				<g>
					<path d="M864.5,458.6c0,3.9,3.1,7,7,7c3.9,0,7-3.1,7-7c0-3.9-3.1-7-7-7C867.7,451.6,864.5,454.7,864.5,458.6z"/>
				</g>
				<g>
					<path d="M903.5,458.6c0,3.9,3.1,7,7,7c3.9,0,7-3.1,7-7c0-3.9-3.1-7-7-7C906.7,451.6,903.5,454.7,903.5,458.6z"/>
				</g>
			</g>
			<g>
				<g>
					<path class="st25" d="M629.5,223.6h-12.3c-1.7,0-2.5-1.9-2.5-3.7c0-1.7,0.8-3.6,2.5-3.6h14.9c0.6,0,1.1-0.5,1.1-1.1
						c0-0.6-0.5-1.1-1.1-1.1h-14.9c-1.4,0-2.7,0.7-3.6,1.9c-0.7,1.1-1.1,2.5-1.1,3.9c0,2.9,1.6,5.9,4.8,5.9h12.1
						c1.8,0,2.5,1.9,2.5,3.7c0,1.7-0.8,3.6-2.5,3.6h-15.5c-0.6,0-1.1,0.5-1.1,1.1c0,0.6,0.5,1.1,1.1,1.1h15.5c1.5,0,2.7-0.7,3.6-1.9
						c0.7-1.1,1.1-2.5,1.1-3.9C634.1,226.5,632.5,223.6,629.5,223.6z"/>
				</g>
				<g>
					<path class="st25" d="M650.4,214h-18.9c-0.6,0-1.1,0.5-1.1,1.1c0,0.6,0.5,1.1,1.1,1.1h8.4c0,2.2,0,5.4,0,8.7c0,3.6,0,7.2,0,9.4
						c0,0.6,0.5,1.1,1.1,1.1c0.6,0,1.1-0.5,1.1-1.1v-18.1h8.3c0.6,0,1.1-0.5,1.1-1.1C651.5,214.5,651,214,650.4,214z"/>
				</g>
				<g>
					<path class="st25" d="M669.4,214c-0.6,0-1.1,0.5-1.1,1.1v15.5c0,1.3-1.2,2.5-2.5,2.5H654c-1.3,0-2.5-1.2-2.5-2.5v-15.5
						c0-0.6-0.5-1.1-1.1-1.1c-0.6,0-1.1,0.5-1.1,1.1v15.5c0,2.5,2.3,4.7,4.7,4.7h11.7c2.5,0,4.7-2.2,4.7-4.7v-15.5
						C670.5,214.5,670,214,669.4,214z"/>
				</g>
				<g>
					<path class="st25" d="M688.3,214h-15c-0.8,0-1.5,0.7-1.5,1.5v18.2c0,0.8,0.7,1.5,1.5,1.5h15c2.5,0,4.8-2.3,4.8-4.7v-11.8
						C693.1,216.3,690.7,214,688.3,214z M688.3,233c-2.5,0-5,0-7.5,0c-2.2,0-4.5,0-6.8,0v-8.2v-8.7h14.2c1.3,0,2.5,1.3,2.5,2.6v11.7
						C690.8,231.8,689.6,233,688.3,233z"/>
				</g>
				<g>
					<path class="st0" d="M736.6,233.1h-8.2v-16.8h8.2c0.6,0,1.1-0.5,1.1-1.1c0-0.6-0.5-1.1-1.1-1.1h-18.5c-0.3,0-0.6,0.1-0.8,0.4
						c-0.2,0.2-0.3,0.5-0.3,0.8c0,0.6,0.5,1.1,1.1,1.1h8.2v16.8H718c-0.6,0-1.1,0.5-1.1,1.1c0,0.3,0.1,0.5,0.3,0.7
						c0.2,0.2,0.5,0.4,0.8,0.4h18.5c0.6,0,1.1-0.5,1.1-1.1S737.2,233.1,736.6,233.1z"/>
				</g>
				<g>
					<path class="st26" d="M715.3,233.4l-9.8-9.5l8.1-8.1c0.3-0.3,0.4-0.8,0.2-1.2c-0.2-0.4-0.6-0.7-1-0.7c-0.3,0-0.6,0.1-0.8,0.3
						l-8.6,8.7l-8.6-8.7c-0.2-0.2-0.5-0.3-0.8-0.3c-0.4,0-0.9,0.3-1,0.7c-0.2,0.4-0.1,0.9,0.2,1.2l9.1,9.2v9.2
						c0,0.6,0.5,1.1,1.1,1.1c0.6,0,1.1-0.5,1.1-1.1V226l9.3,9c0.2,0.2,0.5,0.3,0.8,0.3c0.4,0,0.9-0.3,1-0.7
						C715.8,234.2,715.7,233.8,715.3,233.4z"/>
				</g>
				<g>
					<path class="st0" d="M759.3,233.5l-9.8-9.5l9.8-8.1c0.4-0.3,0.5-0.8,0.3-1.2c-0.2-0.4-0.6-0.8-1.1-0.8c-0.3,0-0.5,0.1-0.7,0.3
						l-16.9,13.9v-13.1c0-0.6-0.5-1.1-1.1-1.1c-0.6,0-1.1,0.5-1.1,1.1v19.1c0,0.6,0.5,1.1,1.1,1.1c0.6,0,1.1-0.5,1.1-1.1v-3.2
						l6.9-5.6l10,9.7c0.2,0.2,0.5,0.3,0.8,0.3c0.4,0,0.9-0.3,1-0.7C759.7,234.3,759.6,233.9,759.3,233.5z"/>
				</g>
			</g>
			<g>
				<g>
					<path id="XMLID_52_" class="st27" d="M920,337.9l9.7-2.8c0,0,28,24.4,30.2,29.9c2.2,5.5-3.8,12-14.3,20.2c0,0,3.6,2.7,0.2,4.6
						c-3.3,1.9-6.3,0-10.1-3.8c-3.8-3.8-7.6-4.1-5.2-6.8c2.4-2.7,4.6-0.8,4.6-0.8l2.2-4.3l-9.8-1.1l2.7,44.3c0,0-3.7,4.6-35,4.6
						c-31.3,0-33.4-6-33.4-6l4.7-42.2c0,0-8.5,5.8-38.1,2.6c0,0,1.6,3.8-1.9,3.8c-3.5,0-4.6-0.3-4.6-9c0-8.7,0.3-9.1,3-9.1
						c2.7,0,3.8,1,3.8,2.9c0,0,20-7.5,37.8-29L920,337.9z"/>
				</g>
				<g>
					<polygon id="XMLID_51_" class="st28" points="911.9,339.6 895.4,369.8 880.2,339.1 					"/>
				</g>
				<g>
					<path id="XMLID_50_" class="st29" d="M890.4,347.8c0,0-3.1-3.2-3.9-7.6c-0.8-4.4,17.8,0.6,17.8,0.6s-1.9,5.8-4,7
						S890.4,347.8,890.4,347.8z"/>
				</g>
				<g>
					<path id="XMLID_49_" class="st29" d="M899.7,345.4c0,0,3,10.1-4.3,10.1c-7.3,0-4.3-10.1-4.3-10.1H899.7z"/>
				</g>
				<g>
					<path id="XMLID_48_" class="st30" d="M889.4,339.6c0,4.5,2.7,8.1,6,8.1c3.3,0,6-3.7,6-8.1c0-4.5-2.7-8.1-6-8.1
						C892.1,331.5,889.4,335.1,889.4,339.6z"/>
				</g>
				<g>
					<path id="XMLID_47_" class="st30" d="M988.4,245.7c-3.1,15.1,3.1,29.2,13.8,31.4c10.7,2.2,21.9-8.3,25-23.5
						c3.1-15.1-3.1-29.2-13.8-31.4C1002.6,220.1,991.5,230.6,988.4,245.7z"/>
				</g>
				<g>
					<path id="XMLID_46_" class="st30" d="M770.9,254.2c3.5,15.1,15,25.2,25.7,22.7c10.7-2.5,16.4-16.7,12.9-31.8
						c-3.5-15-15-25.2-25.7-22.7C773.2,224.9,767.4,239.2,770.9,254.2z"/>
				</g>
				<g>
					<path id="XMLID_45_" class="st31" d="M897,341.3c0,0,53.8-0.7,83.9-41.5c30.1-40.8,70.1-206.2-83.9-206.2
						c-154,0-102.7,176.9-79,211.1C841.5,338.8,897,341.3,897,341.3z"/>
				</g>
				<g>
					<path id="XMLID_44_" class="st32" d="M897.4,308.3c0,0,10.7,0.4,15.9-10.3c5.2-10.7-1.5-11.8-3.7-11.8c-2.2,0-3.3,3.7-12.2,3.7
						c-8.9,0-7.6-3.7-12.2-3.7c-4.6,0-6.4,5.7-3.8,11.8C883.9,304.1,889.9,308.5,897.4,308.3z"/>
				</g>
				<g>
					<path id="XMLID_43_" class="st33" d="M897,305c0,0,10,0,10-5.9c0-5.9-10-4.8-10-4.8s-9.2-0.1-9.2,5.3
						C887.8,305,897,305,897,305z"/>
				</g>
				<g>
					<ellipse id="XMLID_42_" class="st34" cx="954.9" cy="292.7" rx="13.2" ry="9"/>
				</g>
				<g>
					<path id="XMLID_41_" class="st34" d="M826.6,292.7c0,5,5.9,9,13.2,9c7.3,0,13.2-4,13.2-9c0-5-5.9-9-13.2-9
						C832.5,283.7,826.6,287.7,826.6,292.7z"/>
				</g>
				<g>
					<path id="XMLID_40_" class="st35" d="M928.5,269c0,6.7,4.5,12.1,10,12.1c5.5,0,10-5.4,10-12.1c0-6.7-4.5-12.1-10-12.1
						C933,256.9,928.5,262.3,928.5,269z"/>
				</g>
				<g>
					<path id="XMLID_39_" class="st35" d="M846.5,269c0,6.7,4.5,12.1,10,12.1c5.5,0,10-5.4,10-12.1c0-6.7-4.5-12.1-10-12.1
						C851,256.9,846.5,262.3,846.5,269z"/>
				</g>
				<g>
					<path id="XMLID_38_" class="st35" d="M960.1,231.7c0,0-8-6.3-19.2-3.2c0,0,0.9-4.9,8.6-4.9
						C957.3,223.5,960.1,231.7,960.1,231.7z"/>
				</g>
				<g>
					<path id="XMLID_37_" class="st36" d="M807.7,186.9c0,0-3.7,28.3,0,62.8c0,0-12.5-8-14.2-16.1c-1.7-8.1-10.2-33.3,1.2-74.9
						L807.7,186.9z"/>
				</g>
				<g>
					<path id="XMLID_36_" class="st36" d="M988,249.7c0,0,14.5-5,17.3-11.9c2.9-6.9,6.6-26.9,3.3-49.7l-20.6,8.6
						C988,196.6,991.8,225,988,249.7z"/>
				</g>
				<g>
					<path id="XMLID_35_" class="st35" d="M836.8,231.7c0,0,8-6.3,19.2-3.2c0,0-0.9-4.9-8.6-4.9
						C839.7,223.5,836.8,231.7,836.8,231.7z"/>
				</g>
				<g>
					<path id="XMLID_34_" class="st37" d="M787.8,142.8c0,0-0.4,23.6,26.1,50.9c26.5,27.3,52.6,46.1,109.2,37.9
						c0,0-24.9-15.5-35.3-31.8c0,0,12.5,13.8,50.8,13.8c38.3,0,81.1-16.7,93.3-38.3c0,0-13.8,3.7-24.8-1.2c0,0,23.2-9.8,31.4-31.4
						c0,0-11-0.8-41.6-26.1C966.2,91.5,929.9,65.4,875,89.1c0,0,10.6-14.3,19.6-22c0,0-57.1-4.4-69.5,46.9c0,0-1-13.1,3.9-24.9
						C828.9,89.1,785.7,111.1,787.8,142.8z"/>
				</g>
				<g>
					<polygon id="XMLID_33_" class="st29" points="897.7,355.4 899.1,363 895.4,369.8 891.8,362.5 893.1,355 895.4,352.4 
						897.4,352.4 					"/>
				</g>
				<g>
					<polygon class="st19" points="920,337.9 895.4,373.7 895.4,369.8 911.9,339.6 					"/>
				</g>
				<g>
					<polygon class="st19" points="895.4,373.7 895.4,369.8 880.2,339.1 872.9,337.5 					"/>
				</g>
				<g id="XMLID_1_">
					<polygon class="st19" points="915.8,356.4 911.8,356.4 911.8,359.2 913.8,362 915.8,359.2 					"/>
				</g>
				<g>
					<path id="XMLID_32_" class="st38" d="M926.4,419.1l-1.9,40.9c0,0-4.3-3.7-17.9,0l-5.3-38.1L926.4,419.1z"/>
				</g>
				<g>
					<path id="XMLID_31_" class="st38" d="M868.6,419.1l1.9,40.9c0,0,4.3-3.7,17.9,0l5.3-38.1L868.6,419.1z"/>
				</g>
				<g>
					<path id="XMLID_30_" d="M924.4,460c0,0-2.6-2.9-8.8-2.9c-6.1,0-9.2,2.9-9.2,2.9s-10,11.6,9,11.6
						C934.4,471.6,924.4,460,924.4,460z"/>
				</g>
				<g>
					<path id="XMLID_29_" d="M888.6,460c0,0-2.6-2.9-8.8-2.9c-6.1,0-9.2,2.9-9.2,2.9s-10,11.6,9,11.6
						C898.6,471.6,888.6,460,888.6,460z"/>
				</g>
				<g>
					<path id="XMLID_28_" class="st31" d="M822.1,366.5c0,0-10.4-2.4-10.4,3.3c0,5.7,10.3,6,10.3,6L822.1,366.5z"/>
				</g>
				<g>
					<path id="XMLID_27_" class="st31" d="M939.7,389.4c0,0-4.5,4.3-9.1,2.1c-4.6-2.2,2.2-7.9,2.2-7.9l5.7,4.9"/>
				</g>
			</g>
		</g>
	</g>
	<g>
		<g>
			<polygon id="XMLID_26_" class="st39" points="227.7,346 227.7,342 273.5,316.8 291.6,336.5 289.3,342 241.1,364.1 			"/>
		</g>
		<g>
			<polygon id="XMLID_25_" class="st16" points="236.5,340.7 272.7,319.7 286.9,335.3 248,355.2 			"/>
		</g>
		<g>
			<g>
				<path class="st25" d="M249.9,343.8l-2.5,1.4c-0.4,0.2-0.7-0.1-1-0.5c-0.2-0.4-0.3-0.8,0.1-1l3.1-1.7c0.1-0.1,0.2-0.2,0.1-0.3
					c-0.1-0.1-0.2-0.2-0.4-0.1l-3.1,1.7c-0.3,0.2-0.5,0.5-0.5,0.8c0,0.3,0.1,0.6,0.2,0.9c0.3,0.6,1,1,1.7,0.7l2.5-1.4
					c0.4-0.2,0.7,0.1,1,0.5c0.2,0.4,0.3,0.8-0.1,1l-3.2,1.8c-0.1,0.1-0.2,0.2-0.1,0.3c0.1,0.1,0.2,0.2,0.4,0.1l3.2-1.8
					c0.3-0.2,0.5-0.5,0.5-0.8c0-0.3-0.1-0.6-0.2-0.9C251.3,343.9,250.6,343.5,249.9,343.8z"/>
			</g>
			<g>
				<path class="st25" d="M253.2,339.4l-3.9,2.2c-0.1,0.1-0.2,0.2-0.1,0.4c0.1,0.1,0.2,0.2,0.4,0.1l1.7-1c0.3,0.5,0.6,1.1,1,1.8
					c0.4,0.8,0.8,1.5,1.1,2c0.1,0.1,0.2,0.2,0.4,0.1c0.1-0.1,0.2-0.2,0.1-0.4l-2.1-3.8l1.7-1c0.1-0.1,0.2-0.2,0.1-0.4
					C253.4,339.4,253.3,339.3,253.2,339.4z"/>
			</g>
			<g>
				<path class="st25" d="M257.1,337.2c-0.1,0.1-0.2,0.2-0.1,0.4l1.8,3.2c0.1,0.3,0,0.7-0.2,0.8l-2.4,1.4c-0.3,0.1-0.7,0-0.8-0.2
					l-1.8-3.2c-0.1-0.1-0.2-0.2-0.4-0.1c-0.1,0.1-0.2,0.2-0.1,0.4l1.8,3.2c0.3,0.5,1,0.7,1.5,0.4l2.4-1.4c0.5-0.3,0.7-1,0.4-1.5
					l-1.8-3.2C257.4,337.2,257.2,337.1,257.1,337.2z"/>
			</g>
			<g>
				<path class="st25" d="M261,335l-3.1,1.8c-0.2,0.1-0.2,0.3-0.1,0.5l2.1,3.8c0.1,0.2,0.3,0.2,0.5,0.1l3.1-1.7
					c0.5-0.3,0.7-1,0.4-1.5l-1.4-2.4C262.3,334.9,261.5,334.7,261,335z M263.3,338.9c-0.5,0.3-1,0.6-1.6,0.9
					c-0.5,0.3-0.9,0.5-1.4,0.8l-1-1.7l-1-1.8l3-1.7c0.3-0.1,0.7,0,0.8,0.2l1.4,2.4C263.6,338.4,263.5,338.8,263.3,338.9z"/>
			</g>
			<g>
				<path class="st0" d="M273.3,333.3l-1.7,0.9l-2-3.5l1.7-1c0.1-0.1,0.2-0.2,0.1-0.4c-0.1-0.1-0.2-0.2-0.4-0.1l-3.8,2.2
					c-0.1,0-0.1,0.1-0.1,0.2c0,0.1,0,0.1,0,0.2c0.1,0.1,0.2,0.2,0.4,0.1l1.7-1l2,3.5l-1.7,0.9c-0.1,0.1-0.2,0.2-0.1,0.4
					c0,0.1,0.1,0.1,0.1,0.1c0.1,0,0.2,0,0.2,0l3.9-2.2c0.1-0.1,0.2-0.2,0.1-0.4C273.6,333.3,273.4,333.2,273.3,333.3z"/>
			</g>
			<g>
				<path class="st26" d="M268.9,335.9l-3.1-0.8l0.7-2.6c0-0.1,0-0.2-0.1-0.3c-0.1-0.1-0.2-0.1-0.3,0c-0.1,0-0.1,0.1-0.1,0.2
					l-0.8,2.8l-2.8-0.8c-0.1,0-0.1,0-0.2,0c-0.1,0-0.1,0.2-0.1,0.3c0,0.1,0.1,0.2,0.2,0.2l3,0.8l1.1,1.9c0.1,0.1,0.2,0.2,0.4,0.1
					c0.1-0.1,0.2-0.2,0.1-0.4l-1-1.7l3,0.8c0.1,0,0.1,0,0.2,0c0.1-0.1,0.1-0.2,0.1-0.3C269.1,336,269,335.9,268.9,335.9z"/>
			</g>
			<g>
				<path class="st0" d="M278,330.8l-3.2-0.8l1.1-2.8c0-0.1,0-0.2-0.1-0.3c-0.1-0.1-0.2-0.1-0.3,0c-0.1,0-0.1,0.1-0.1,0.1l-1.9,4.9
					l-1.5-2.7c-0.1-0.1-0.2-0.2-0.4-0.1c-0.1,0.1-0.2,0.2-0.1,0.4l2.2,4c0.1,0.1,0.2,0.2,0.4,0.1c0.1-0.1,0.2-0.2,0.1-0.4l-0.4-0.7
					l0.8-2l3.2,0.8c0.1,0,0.1,0,0.2,0c0.1-0.1,0.1-0.2,0.1-0.3C278.2,330.9,278.2,330.8,278,330.8z"/>
			</g>
		</g>
	</g>
	<g>
		<path id="XMLID_24_" class="st26" d="M246.6,403.5c0,23.1,21.2,41.8,47.3,41.8c26.2,0,47.3-18.7,47.3-41.8
			c0-23.1-21.2-41.8-47.3-41.8c-4.7,0-9.2,0.6-13.5,1.8v0c0,0-5.7-8.9-16.8-9.6c0,0,7.6,5.6,8.4,12.6l0,0
			C256.9,373.4,246.6,387.4,246.6,403.5z"/>
	</g>
	<g id="XMLID_21_">
		<path id="XMLID_22_" class="st16" d="M287.1,403.1h-6.4v-8.8h6.4v-5.2c0-3.9,0.7-6.8,2.2-8.7c1.5-1.9,4.2-2.8,8.2-2.8h8.8v8.8
			h-6.1c-1.5,0-2.5,0.3-2.9,0.8c-0.4,0.5-0.6,1.5-0.6,2.8v4.4h9.5l-0.9,8.8h-8.7v25.5h-9.5V403.1z"/>
	</g>
	<g>
		<polygon id="XMLID_20_" class="st20" points="437,67 460.5,67 460.5,510.9 437,491.6 		"/>
	</g>
	<g>
		<path class="st22" d="M304.9,93.5c0,0,56.2-71.8,161.9-71.8c79.3,0,157,21.2,206,114.2l-31.5,15.1l73,24.7l17.6-69.3l-28,13.1
			c0,0-51.3-136.6-250.3-117.9C453.6,1.8,343.5,18.7,304.9,93.5z"/>
	</g>
	<g>
		<path id="XMLID_19_" class="st26" d="M274.1,275.1c0-23.1,21.2-41.8,47.3-41.8c26.2,0,47.3,18.7,47.3,41.8
			c0,23.1-21.2,41.8-47.3,41.8c-4.7,0-9.2-0.6-13.5-1.8v0c0,0-5.7,8.9-16.8,9.6c0,0,7.6-5.6,8.4-12.6l0,0
			C284.4,305.2,274.1,291.2,274.1,275.1z"/>
	</g>
	<g id="XMLID_16_">
		<path id="XMLID_17_" class="st16" d="M340.4,261.4c2.1-0.3,4-0.8,6-1.7c-1.4,2.1-3.1,3.9-5.2,5.5c0,0.4,0,0.8,0,1.3
			c0,3.5-0.7,7-2,10.5c-1.3,3.5-3.2,6.7-5.6,9.5c-2.4,2.9-5.6,5.2-9.4,7c-3.8,1.8-8.1,2.7-12.7,2.7c-5.8,0-11.1-1.6-16-4.7
			c0.9,0.1,1.7,0.1,2.5,0.1c4.8,0,9.1-1.5,12.9-4.5c-2.3,0-4.3-0.7-6-2c-1.8-1.4-3-3.1-3.7-5.2c0.7,0.1,1.3,0.2,2,0.2
			c0.9,0,1.9-0.1,2.8-0.3c-2.5-0.5-4.5-1.8-6-3.7c-1.6-1.9-2.3-4.1-2.3-6.6v-0.2c1.5,0.9,3,1.3,4.7,1.3c-3.1-2.1-4.7-4.9-4.7-8.7
			c0-1.9,0.5-3.7,1.5-5.3c2.6,3.2,5.8,5.8,9.5,7.8c3.7,1.9,7.7,3,12,3.2c-0.2-0.8-0.3-1.6-0.3-2.4c0-2.8,1-5.3,3.1-7.4
			c2.1-2.1,4.5-3.1,7.4-3.1c3,0,5.6,1.1,7.7,3.3c2.4-0.5,4.6-1.3,6.7-2.5C344.2,258,342.7,260,340.4,261.4z"/>
	</g>
	<g>
		<path id="XMLID_15_" class="st26" d="M116.9,338.8c0,23.1-21.2,41.8-47.3,41.8c-26.2,0-47.3-18.7-47.3-41.8
			c0-23.1,21.2-41.8,47.3-41.8c4.7,0,9.2,0.6,13.5,1.8v0c0,0,5.7-8.9,16.8-9.6c0,0-7.6,5.6-8.4,12.6l0,0
			C106.6,308.7,116.9,322.7,116.9,338.8z"/>
	</g>
	<g>
		<path id="XMLID_14_" class="st26" d="M94.7,146.4c0-23.1-21.2-41.8-47.3-41.8C21.2,104.5,0,123.3,0,146.4
			c0,23.1,21.2,41.8,47.3,41.8c4.7,0,9.2-0.6,13.5-1.8v0c0,0,5.7,8.9,16.8,9.6c0,0-7.6-5.6-8.4-12.6l0,0
			C84.4,176.4,94.7,162.5,94.7,146.4z"/>
	</g>
	<g id="XMLID_8_">
		<path id="XMLID_9_" class="st16" d="M68.3,124.4c0.4,0.4,0.6,0.9,0.6,1.4v40.9c0,0.5-0.2,1-0.6,1.4c-0.4,0.4-0.9,0.6-1.4,0.6H26
			c-0.5,0-1-0.2-1.4-0.6c-0.4-0.4-0.6-0.9-0.6-1.4v-40.9c0-0.5,0.2-1,0.6-1.4c0.4-0.4,0.9-0.6,1.4-0.6h40.9
			C67.4,123.8,67.9,124,68.3,124.4z M63.3,143.4h-3.7c0.2,0.9,0.3,1.9,0.3,2.8c0,3.7-1.3,6.9-4,9.5c-2.6,2.6-5.8,4-9.5,4
			c-3.7,0-6.9-1.3-9.5-4c-2.6-2.6-4-5.8-4-9.5c0-0.9,0.1-1.9,0.3-2.8h-3.7v19.7h33.7V143.4z M46.4,138.4c-2.2,0-4,0.8-5.5,2.3
			c-1.5,1.5-2.3,3.4-2.3,5.5c0,2.2,0.8,4,2.3,5.5c1.5,1.5,3.4,2.3,5.5,2.3c2.2,0,4-0.8,5.5-2.3c1.5-1.5,2.3-3.4,2.3-5.5
			c0-2.2-0.8-4-2.3-5.5C50.4,139.2,48.6,138.4,46.4,138.4z M63.3,129.4h-8.4v8.4h8.4V129.4z"/>
	</g>
	<g>
		<path class="st16" d="M85.4,345.6c0,0-2.3-1.9,3.4-3.3c5.9-1.4,6.7-3.6,5.4-5.1c-0.9-1.1-1.9-1.6-5.8-0.3
			c-3.9,1.2-4.6,0.8-4.6,0.8c0-2.6,4.5-22.8-14.2-22.9l0,0c0,0,0,0,0,0c0,0,0,0,0,0l0,0c-18.7,0.1-14.2,20.3-14.2,22.9
			c0,0-1.3,1.1-4.1,0.2c-2.8-0.9-0.9-3.4-0.9-3.4s0.7-1.3-0.3-1.7c-1.1-0.3-1.5,1.6-2,1.8c-0.6,0.2-1.3-2.5-2.4-2
			c-1.1,0.5-0.7,1.7-0.2,2c0.5,0.3,0.7,1.4-0.2,1.2c-1-0.2-1.9,0.1-1.8,0.9c0.1,1.2,2.2,0.6,3,2.2c0.7,1.6,3,2.7,4.5,3.5
			c1.5,0.8,3.7,1.7,2.9,3.1c-1.4,2.5-11.2,5-10.6,6.5c0.6,1.5,7.8,1.9,7.8,1.9c-1.2,1.8,0,3.7,0,3.7s5.6-2.9,10.3,0.9
			c4.4,3.6,7.9,3.3,8.3,3.2c0.4,0,3.9,0.4,8.3-3.2c4.7-3.8,10.3-0.9,10.3-0.9s1.2-1.9,0-3.7c0,0,7.2-0.4,7.8-1.9
			C96.5,350.5,87,347.9,85.4,345.6z M74,323.7c1,0,1.8,1.1,1.8,2.5c0,1.4-0.8,2.5-1.8,2.5c-1,0-1.8-1.1-1.8-2.5
			C72.2,324.8,73,323.7,74,323.7z M65.1,323.7c1,0,1.8,1.1,1.8,2.5c0,1.4-0.8,2.5-1.8,2.5c-1,0-1.8-1.1-1.8-2.5
			C63.3,324.8,64.1,323.7,65.1,323.7z M75.6,335.7c-1.3,1-2.3-0.2-2.7-0.8c-0.8,0.3-1.8,0.5-3.2,0.5c-4.8,0-6-2.6-6.1-2.7
			c-0.2-0.4,0-1,0.4-1.2c0.4-0.2,1,0,1.2,0.4c0.1,0.1,1,1.7,4.5,1.7c3.5,0,4.2-1.6,4.2-1.6c0.2-0.5,0.6-0.7,1.1-0.6
			c0.5,0.2,0.7,0.7,0.6,1.1c0,0-0.1,0.4-0.4,0.8C75.9,334,76.7,334.9,75.6,335.7z"/>
	</g>
</g>
</svg>
