<?xml version="1.0" encoding="utf-8"?>
<!-- Generator: Adobe Illustrator 19.0.0, SVG Export Plug-In . SVG Version: 6.00 Build 0)  -->
<svg version="1.1" id="Layer_1" xmlns="http://www.w3.org/2000/svg" xmlns:xlink="http://www.w3.org/1999/xlink" x="0px" y="0px"
	 viewBox="0 0 752.5 609.4" style="enable-background:new 0 0 752.5 609.4;" xml:space="preserve">
<style type="text/css">
.black-doc.st0{fill:#E8E9E9;}
.black-doc.st1{fill:#2AAAE2;}
.black-doc.st2{fill:#272361;}
.black-doc.st3{fill:#8B5A3C;}
.black-doc.st4{fill:#BDBEC1;}
.black-doc.st5{fill:#404041;}
.black-doc.st6{fill:#956A47;}
.black-doc.st7{fill:#111111;}
.black-doc.st8{fill:#010201;}
.black-doc.st9{fill:#FFFFFF;}
.black-doc.st10{fill:#5E3214;}
.black-doc.st11{fill:#D1D3D4;}
.black-doc.st12{fill:#FFFFFF;stroke:#414142;stroke-width:2;}
.black-doc.st13{fill:#00AFEF;}
.black-doc.st14{fill:#A1CF67;}
.black-doc.st15{fill:#414142;}
.black-doc.st16{fill:#333334;}
.black-doc.st17{fill:#FF5000;}
.black-doc.st18{font-family:'ElegantIcons';}
.black-doc.st19{font-size:28.4148px;}
</style>
<g>
	<path class="black-doc st0" d="M159,396.6l-15.5-4.4c0,0-44.6,38.9-48,47.6c-3.5,8.7,6,19.1,22.7,32.1c0,0-5.7,4.3-0.4,7.3
		c5.3,3,10.1,0,16.1-6c6-6.1,12.1-6.5,8.2-10.8c-3.9-4.3-7.3-1.3-7.3-1.3l-3.5-6.9l15.6-1.7l-4.3,70.4c0,0,5.9,7.3,55.7,7.3
		c49.8,0,53.2-9.5,53.2-9.5l-7.5-67.2c0,0,13.5,9.3,60.6,4.1c0,0-2.6,6.1,3,6.1c5.6,0,7.3-0.4,7.3-14.3c0-13.8-0.4-14.5-4.7-14.5
		c-4.3,0-6.1,1.5-6.1,4.5c0,0-31.8-11.9-60.2-46.2L159,396.6z"/>
	<polygon class="black-doc st1" points="172.1,399.3 198.3,447.3 222.5,398.5 	"/>
	<path class="black-doc st2" d="M206.2,412.3c0,0,4.9-5,6.2-12.1c1.3-7-28.2,0.9-28.2,0.9s3,9.3,6.4,11.2C193.8,414.2,206.2,412.3,206.2,412.3
		z"/>
	<path class="black-doc st2" d="M191.4,408.2c0,0-4.7,16.1,6.9,16.1c11.7,0,6.9-16.1,6.9-16.1H191.4z"/>
	<path class="black-doc st3" d="M207.8,399.3c0,7.2-4.3,13-9.5,13c-5.2,0-9.5-5.8-9.5-13c0-7.2,4.3-13,9.5-13
		C203.6,386.4,207.8,392.2,207.8,399.3z"/>
	<polygon class="black-doc st2" points="194.6,424.3 192.4,436.5 198.3,447.3 204,435.8 201.9,423.6 198.3,419.4 195.1,419.4 	"/>
	<polygon class="black-doc st4" points="159,396.6 198.2,453.6 198.3,447.3 172.1,399.3 	"/>
	<polygon class="black-doc st4" points="198.2,453.6 198.3,447.3 222.5,398.5 234.1,396 	"/>
	<polygon id="XMLID_1_" class="black-doc st4" points="159.5,423.6 173.5,423.6 173.5,430.4 166.5,435 159.5,430.4 	"/>
	<path class="black-doc st5" d="M148.9,525.8l3.1,65c0,0,6.8-5.8,28.5,0l8.4-60.7L148.9,525.8z"/>
	<path class="black-doc st5" d="M240.8,525.8l-3.1,65c0,0-6.8-5.8-28.5,0l-8.4-60.7L240.8,525.8z"/>
	<path d="M152,590.9c0,0,4.2-4.5,13.9-4.5c9.7,0,14.6,4.5,14.6,4.5s15.9,18.5-14.3,18.5C136.1,609.4,152,590.9,152,590.9z"/>
	<path d="M209.1,590.9c0,0,4.2-4.5,13.9-4.5c9.7,0,14.6,4.5,14.6,4.5s15.9,18.5-14.3,18.5C193.2,609.4,209.1,590.9,209.1,590.9z"/>
	<path class="black-doc st6" d="M315,442.1c0,0,16.5-3.9,16.5,5.2c0,9.1-16.4,9.5-16.4,9.5L315,442.1z"/>
	<path class="black-doc st6" d="M127.7,478.5c0,0,7.1,6.8,14.5,3.3c7.3-3.5-3.5-12.5-3.5-12.5l-9.1,7.8"/>
	<g>
		<g id="XMLID_143_">
			<g id="XMLID_167_">
				<path id="XMLID_168_" class="black-doc st3" d="M338.1,281.3c0,20,11.9,36.3,26.6,36.3c14.7,0,26.6-16.3,26.6-36.3
					c0-20-11.9-36.3-26.6-36.3C350,245,338.1,261.3,338.1,281.3z"/>
			</g>
			<g id="XMLID_165_">
				<path id="XMLID_166_" class="black-doc st3" d="M2.3,281.3c0,20,11.9,36.3,26.6,36.3c14.7,0,26.6-16.3,26.6-36.3c0-20-11.9-36.3-26.6-36.3
					C14.2,245,2.3,261.3,2.3,281.3z"/>
			</g>
			<g id="XMLID_163_">
				<path id="XMLID_164_" class="black-doc st6" d="M200.2,0c0,0-102.4-1.8-158.2,77.5c-55.7,79.4-40.2,135.3,0,226.6
					c40.2,91.3,119.3,95.2,158.2,96.5c38.9,1.3,105-6.8,146.5-84.4c41.5-77.6,75.2-159.8,18.1-238.6C307.8-1.3,200.2,0,200.2,0z"/>
			</g>
			<g id="XMLID_161_">
				<path id="XMLID_162_" class="black-doc st7" d="M350.9,308.4c0,0,17.8-62,0-117.1c-17.8-55.1-113-40.2-159.7-40.2
					c-46.7,0-135.5-9.7-146.5,45.4c-11,55.1-3.8,104.9-3.8,104.9s-35-55.2-35-123.5C5.8,109.6,57.6,0,200.2,0
					c142.6,0,194.9,99.8,194.9,165.9C395.1,232.1,355,300.5,350.9,308.4z"/>
			</g>
			<path id="XMLID_160_" class="black-doc st8" d="M241.8,290c0-15.6,12.6-28.2,28.2-28.2c15.6,0,28.2,12.6,28.2,28.2
				c0,15.6-12.6,28.2-28.2,28.2C254.4,318.2,241.8,305.6,241.8,290z"/>
			<path id="XMLID_159_" class="black-doc st9" d="M241.7,293.1c0-15,12.2-27.2,27.2-27.2c15,0,27.2,12.2,27.2,27.2c0,15-12.2,27.2-27.2,27.2
				C253.9,320.2,241.7,308.1,241.7,293.1z"/>
			<path id="XMLID_158_" class="black-doc st8" d="M247.5,294.3c0-11.1,9-20.1,20.1-20.1c11.1,0,20.1,9,20.1,20.1c0,11.1-9,20.1-20.1,20.1
				C256.5,314.4,247.5,305.4,247.5,294.3z"/>
			<path id="XMLID_157_" class="black-doc st8" d="M306.5,243.1c0,0-20.7-25.3-54.5-16.2C252.1,226.9,283.8,245.7,306.5,243.1z"/>
			<path id="XMLID_154_" class="black-doc st8" d="M204.8,286.5c0-47.2,38.4-85.5,85.5-85.5c47.2,0,85.5,38.4,85.5,85.5
				c0,47.2-38.4,85.5-85.5,85.5C243.2,372,204.8,333.7,204.8,286.5z M213.8,286.5c0,42.2,34.3,76.5,76.5,76.5
				c42.2,0,76.5-34.3,76.5-76.5c0-42.2-34.3-76.5-76.5-76.5C248.1,210,213.8,244.3,213.8,286.5z"/>
			<path id="XMLID_153_" class="black-doc st8" d="M152.1,290c0-15.6-12.6-28.2-28.2-28.2c-15.6,0-28.2,12.6-28.2,28.2
				c0,15.6,12.6,28.2,28.2,28.2C139.5,318.2,152.1,305.6,152.1,290z"/>
			<path id="XMLID_152_" class="black-doc st9" d="M152.2,293.1c0-15-12.2-27.2-27.2-27.2c-15,0-27.2,12.2-27.2,27.2c0,15,12.2,27.2,27.2,27.2
				C140.1,320.2,152.2,308.1,152.2,293.1z"/>
			<path id="XMLID_151_" class="black-doc st8" d="M146.4,294.3c0-11.1-9-20.1-20.1-20.1c-11.1,0-20.1,9-20.1,20.1c0,11.1,9,20.1,20.1,20.1
				C137.4,314.4,146.4,305.4,146.4,294.3z"/>
			<path id="XMLID_150_" class="black-doc st8" d="M87.4,243.1c0,0,20.7-25.3,54.4-16.2C141.9,226.9,110.1,245.7,87.4,243.1z"/>
			<path id="XMLID_147_" class="black-doc st8" d="M18.1,286.5c0-47.2,38.4-85.5,85.5-85.5c47.1,0,85.5,38.4,85.5,85.5
				c0,47.2-38.4,85.5-85.5,85.5C56.5,372,18.1,333.7,18.1,286.5z M27.1,286.5c0,42.2,34.3,76.5,76.5,76.5
				c42.2,0,76.5-34.3,76.5-76.5c0-42.2-34.3-76.5-76.5-76.5C61.4,210,27.1,244.3,27.1,286.5z"/>
			<path id="XMLID_146_" class="black-doc st8" d="M187.2,296.7c11.6-8.2,17.9-1.5,18.6-0.8l6.9-5.8c-4.1-4.9-15.7-11.4-30.7-0.8L187.2,296.7z
				"/>
			<g id="XMLID_144_">
				<path id="XMLID_145_" class="black-doc st10" d="M211.5,332.8c0,0-5.7,11.1-15.2,11.1c-9.5,0-14.3-11.1-14.3-11.1s-2.4,17,14.8,17
					C213.8,349.7,211.5,332.8,211.5,332.8z"/>
			</g>
		</g>
	</g>
</g>
<path class="black-doc st11" d="M723.9,127.1H477c-15.8,0-28.6,12.8-28.6,28.6v171.9l-30.9,4.4v26.5l30.9,30.9v13.2
	c0,15.8,12.8,28.6,28.6,28.6h246.9c15.8,0,28.6-12.8,28.6-28.6V155.6C752.5,139.9,739.7,127.1,723.9,127.1z"/>
<path class="black-doc st12" d="M723.9,100.6H477c-15.8,0-28.6,12.8-28.6,28.6v171.9L417.5,332l30.9,30.9v13.2c0,15.8,12.8,28.6,28.6,28.6
	h246.9c15.8,0,28.6-12.8,28.6-28.6V129.2C752.5,113.4,739.7,100.6,723.9,100.6z"/>
<path class="black-doc st13" d="M489.6,132.5h227.2c4.7,0,8.4,3.8,8.4,8.4v113.6c0,4.7-3.8,8.4-8.4,8.4H489.6l-8.4,6.2v-14.6v-95.4v-18.1
	C481.2,136.3,484.9,132.5,489.6,132.5z"/>
<path class="black-doc st14" d="M716.8,286.5H489.6c-4.7,0-8.4,3.8-8.4,8.4v69c0,4.7,3.8,8.4,8.4,8.4h227.2l8.4,6.2V364v-50.9V295
	C725.2,290.3,721.4,286.5,716.8,286.5z"/>
<g>
	<g>
		<path class="black-doc st15" d="M343.1,405c-0.4,0.6-1.2,0.9-1.9,0.5l-4.9-3c-0.6-0.4-0.9-1.2-0.5-1.9l0,0c0.4-0.6,1.2-0.9,1.9-0.5l4.9,3
			C343.3,403.5,343.5,404.4,343.1,405L343.1,405z"/>
		<path class="black-doc st15" d="M274.7,453.3c-1.8,3-0.8,6.8,2.1,8.6l25.2,15.2c2.9,1.8,6.8,0.8,8.6-2.1l36.4-60.4c1.8-2.9,0.8-6.8-2.1-8.6
			l-25.2-15.2c-3-1.8-6.8-0.8-8.6,2.1L274.7,453.3z"/>
		<path d="M272.8,452.2c-1.8,2.9-0.8,6.8,2.1,8.6l25.2,15.2c2.9,1.8,6.8,0.8,8.6-2.1l36.4-60.4c1.8-2.9,0.8-6.8-2.1-8.6l-25.2-15.2
			c-2.9-1.8-6.8-0.8-8.6,2.1L272.8,452.2z"/>
		<path class="black-doc st16" d="M308.2,472.2c-1.8,2.9-5.6,3.9-8.6,2.1l-22.9-13.8c-3-1.8-3.9-5.6-2.1-8.6l35-58.2c1.8-2.9,5.6-3.9,8.6-2.1
			l22.9,13.8c2.9,1.8,3.9,5.6,2.1,8.6L308.2,472.2z"/>
		<rect x="292" y="403.4" transform="matrix(0.8566 0.5159 -0.5159 0.8566 267.6121 -97.3576)" width="34" height="58.9"/>
		
			<rect x="293.3" y="404.7" transform="matrix(0.8566 0.516 -0.516 0.8566 267.6203 -97.3581)" class="black-doc st9" width="31.4" height="56.3"/>
		<circle cx="321.9" cy="400.8" r="1"/>
		<path d="M330.4,405.9c-0.3,0.5-0.9,0.6-1.3,0.3l-4.9-2.9c-0.5-0.3-0.6-0.9-0.3-1.3l0,0c0.3-0.5,0.9-0.6,1.3-0.3l4.9,2.9
			C330.5,404.8,330.6,405.4,330.4,405.9L330.4,405.9z"/>
		<circle cx="291.7" cy="462.7" r="3.3"/>
		<circle class="black-doc st15" cx="291.7" cy="462.7" r="2.5"/>
	</g>
	<text transform="matrix(0.7922 0.4871 -0.5237 0.8519 290.6434 437.1932)" class="black-doc st17 st18 st19">w</text>
</g>
<path class="black-doc st6" d="M317.7,448.7c0,0,5.5,7.4,5.2,5.7c-0.3-1.7,18.2-13.7-1-12.7C321.9,441.7,311,440.6,317.7,448.7z"/>
<g id="XMLID_101_">
	<path id="XMLID_102_" class="black-doc st9" d="M503,165.5c0,2.7,2.1,3.7,4.4,3.7c1.5,0,3.9-0.5,3.9-2.5c0-2.2-3-2.5-6-3.3
		c-3-0.8-6-1.9-6-5.7c0-4.1,3.9-6.1,7.5-6.1c4.2,0,8.1,1.8,8.1,6.5h-4.3c-0.1-2.4-1.9-3-4-3c-1.4,0-3,0.6-3,2.3c0,1.5,1,1.7,6,3
		c1.5,0.4,6,1.3,6,5.9c0,3.7-2.9,6.4-8.4,6.4c-4.4,0-8.6-2.2-8.6-7.2H503z"/>
	<path id="XMLID_104_" class="black-doc st9" d="M522.9,157.6h2.9v2.7h-2.9v7.2c0,1.4,0.3,1.7,1.7,1.7c0.4,0,0.8,0,1.2-0.1v3.1
		c-0.7,0.1-1.5,0.1-2.3,0.1c-2.4,0-4.6-0.6-4.6-3.5v-8.6h-2.4v-2.7h2.4v-4.4h4V157.6z"/>
	<path id="XMLID_106_" class="black-doc st9" d="M531.8,155.3h-4V152h4V155.3z M527.8,157.6h4v14.6h-4V157.6z"/>
	<path id="XMLID_109_" class="black-doc st9" d="M535.1,152h4v20.1h-4V152z"/>
	<path id="XMLID_111_" class="black-doc st9" d="M542.4,152h4v20.1h-4V152z"/>
	<path id="XMLID_113_" class="black-doc st9" d="M561.5,155.3h-4V152h4V155.3z M557.5,157.6h4v14.6h-4V157.6z"/>
	<path id="XMLID_117_" class="black-doc st9" d="M564.6,157.6h3.8v2h0.1c1-1.6,2.8-2.4,4.4-2.4c4.3,0,5.3,2.4,5.3,6v9h-4v-8.2
		c0-2.4-0.7-3.6-2.6-3.6c-2.2,0-3.1,1.2-3.1,4.2v7.6h-4V157.6z"/>
	<path id="XMLID_119_" class="black-doc st9" d="M586.4,157.6h2.9v2.7h-2.9v7.2c0,1.4,0.3,1.7,1.7,1.7c0.4,0,0.8,0,1.2-0.1v3.1
		c-0.7,0.1-1.5,0.1-2.3,0.1c-2.4,0-4.6-0.6-4.6-3.5v-8.6H580v-2.7h2.4v-4.4h4V157.6z"/>
	<path id="XMLID_121_" class="black-doc st9" d="M594.5,165.8c0.1,2.5,1.4,3.7,3.6,3.7c1.6,0,2.9-1,3.2-1.9h3.5c-1.1,3.4-3.5,4.9-6.8,4.9
		c-4.6,0-7.4-3.2-7.4-7.7c0-4.4,3-7.7,7.4-7.7c5,0,7.3,4.2,7.1,8.6H594.5z M601,163.3c-0.4-2-1.2-3.1-3.2-3.1c-2.5,0-3.3,2-3.3,3.1
		H601z"/>
	<path id="XMLID_124_" class="black-doc st9" d="M607.4,157.6h3.8v2.7h0.1c0.7-1.8,2.7-3.1,4.6-3.1c0.3,0,0.6,0.1,0.9,0.1v3.7
		c-0.4-0.1-1-0.1-1.4-0.1c-2.9,0-3.9,2.1-3.9,4.7v6.6h-4V157.6z"/>
	<path id="XMLID_126_" class="black-doc st9" d="M621.1,165.8c0.1,2.5,1.4,3.7,3.6,3.7c1.6,0,2.9-1,3.2-1.9h3.5c-1.1,3.4-3.5,4.9-6.8,4.9
		c-4.6,0-7.4-3.2-7.4-7.7c0-4.4,3-7.7,7.4-7.7c5,0,7.3,4.2,7.1,8.6H621.1z M627.6,163.3c-0.4-2-1.2-3.1-3.2-3.1
		c-2.5,0-3.3,2-3.3,3.1H627.6z"/>
	<path id="XMLID_129_" class="black-doc st9" d="M637.1,167.4c0,1.7,1.5,2.4,3.1,2.4c1.2,0,2.6-0.5,2.6-1.9c0-1.2-1.7-1.6-4.5-2.3
		c-2.3-0.5-4.6-1.3-4.6-3.9c0-3.7,3.2-4.7,6.3-4.7c3.2,0,6.1,1.1,6.4,4.6h-3.8c-0.1-1.5-1.3-2-2.7-2c-0.9,0-2.2,0.2-2.2,1.4
		c0,1.4,2.3,1.6,4.5,2.2c2.3,0.5,4.6,1.4,4.6,4.1c0,3.8-3.3,5.1-6.6,5.1c-3.4,0-6.7-1.3-6.8-5.1H637.1z"/>
	<path id="XMLID_131_" class="black-doc st9" d="M654.2,157.6h2.9v2.7h-2.9v7.2c0,1.4,0.3,1.7,1.7,1.7c0.4,0,0.8,0,1.2-0.1v3.1
		c-0.7,0.1-1.5,0.1-2.3,0.1c-2.4,0-4.6-0.6-4.6-3.5v-8.6h-2.4v-2.7h2.4v-4.4h4V157.6z"/>
	<path id="XMLID_133_" class="black-doc st9" d="M662.3,165.8c0.1,2.5,1.4,3.7,3.6,3.7c1.6,0,2.9-1,3.2-1.9h3.5c-1.1,3.4-3.5,4.9-6.8,4.9
		c-4.6,0-7.4-3.2-7.4-7.7c0-4.4,3-7.7,7.4-7.7c5,0,7.3,4.2,7.1,8.6H662.3z M668.8,163.3c-0.4-2-1.2-3.1-3.2-3.1
		c-2.5,0-3.3,2-3.3,3.1H668.8z"/>
	<path id="XMLID_136_" class="black-doc st9" d="M685.6,170.3L685.6,170.3c-1,1.6-2.6,2.3-4.5,2.3c-4.4,0-6.5-3.8-6.5-7.8
		c0-3.9,2.2-7.5,6.4-7.5c1.7,0,3.4,0.7,4.3,2.2h0.1V152h4v20.1h-3.8V170.3z M682.1,160.2c-2.6,0-3.5,2.3-3.5,4.6
		c0,2.3,1,4.7,3.5,4.7c2.6,0,3.4-2.3,3.4-4.7C685.5,162.4,684.7,160.2,682.1,160.2z"/>
	<path id="XMLID_139_" class="black-doc st9" d="M503.7,189.1h-4v-3.3h4V189.1z M499.7,191.4h4v14.6h-4V191.4z"/>
	<path id="XMLID_142_" class="black-doc st9" d="M506.8,191.4h3.8v2h0.1c1-1.6,2.8-2.4,4.4-2.4c4.3,0,5.3,2.4,5.3,6v9h-4v-8.2
		c0-2.4-0.7-3.6-2.6-3.6c-2.2,0-3.1,1.2-3.1,4.2v7.6h-4V191.4z"/>
	<path id="XMLID_170_" class="black-doc st9" d="M529.3,207.6c0.3,0.1,0.5,0.1,0.9,0.1c0.8,0,1.5-0.2,1.5-1.3v-15.1h4v15.3
		c0,3-1.1,4.4-5.1,4.4c-0.4,0-0.9-0.1-1.3-0.1V207.6z M535.7,189.1h-4v-3.3h4V189.1z"/>
	<path id="XMLID_173_" class="black-doc st9" d="M546.2,191c4.6,0,7.5,3,7.5,7.7c0,4.6-3,7.7-7.5,7.7c-4.6,0-7.5-3-7.5-7.7
		C538.7,194,541.7,191,546.2,191z M546.2,203.3c2.7,0,3.5-2.3,3.5-4.6c0-2.3-0.8-4.7-3.5-4.7c-2.7,0-3.5,2.3-3.5,4.7
		C542.7,201,543.5,203.3,546.2,203.3z"/>
	<path id="XMLID_176_" class="black-doc st9" d="M560.5,189.1h-4v-3.3h4V189.1z M556.5,191.4h4v14.6h-4V191.4z"/>
	<path id="XMLID_179_" class="black-doc st9" d="M563.6,191.4h3.8v2h0.1c1-1.6,2.8-2.4,4.4-2.4c4.3,0,5.3,2.4,5.3,6v9h-4v-8.2
		c0-2.4-0.7-3.6-2.6-3.6c-2.2,0-3.1,1.2-3.1,4.2v7.6h-4V191.4z"/>
	<path id="XMLID_181_" class="black-doc st9" d="M584.4,189.1h-4v-3.3h4V189.1z M580.4,191.4h4v14.6h-4V191.4z"/>
	<path id="XMLID_184_" class="black-doc st9" d="M587.6,191.4h3.8v2h0.1c1-1.6,2.8-2.4,4.4-2.4c4.3,0,5.3,2.4,5.3,6v9h-4v-8.2
		c0-2.4-0.7-3.6-2.6-3.6c-2.2,0-3.1,1.2-3.1,4.2v7.6h-4V191.4z"/>
	<path id="XMLID_186_" class="black-doc st9" d="M618.3,205c0,2.4-0.8,6.4-7.5,6.4c-2.9,0-6.2-1.4-6.4-4.7h4c0.4,1.5,1.6,2,3,2
		c2.2,0,3.2-1.5,3.2-3.6v-1.9h-0.1c-0.9,1.5-2.6,2.3-4.4,2.3c-4.4,0-6.2-3.3-6.2-7.3c0-3.8,2.2-7.2,6.3-7.2c1.9,0,3.4,0.6,4.3,2.3
		h0.1v-1.9h3.8V205z M614.5,198.4c0-2.4-0.8-4.5-3.4-4.5c-2.3,0-3.2,2-3.2,4.1c0,2.1,0.8,4.4,3.2,4.4
		C613.3,202.5,614.5,200.5,614.5,198.4z"/>
	<path id="XMLID_189_" class="black-doc st9" d="M634.4,191.4h2.9v2.7h-2.9v7.2c0,1.4,0.3,1.7,1.7,1.7c0.4,0,0.8,0,1.2-0.1v3.1
		c-0.7,0.1-1.5,0.1-2.3,0.1c-2.4,0-4.6-0.6-4.6-3.5V194H628v-2.7h2.4V187h4V191.4z"/>
	<path id="XMLID_191_" class="black-doc st9" d="M639.2,185.8h4v7.6h0.1c1-1.6,2.8-2.4,4.3-2.4c4.3,0,5.3,2.4,5.3,6v9h-4v-8.2
		c0-2.4-0.7-3.6-2.6-3.6c-2.2,0-3.1,1.2-3.1,4.2v7.6h-4V185.8z"/>
	<path id="XMLID_193_" class="black-doc st9" d="M660,189.1h-4v-3.3h4V189.1z M656,191.4h4v14.6h-4V191.4z"/>
	<path id="XMLID_196_" class="black-doc st9" d="M666.3,201.2c0,1.7,1.5,2.4,3.1,2.4c1.2,0,2.6-0.5,2.6-1.9c0-1.2-1.7-1.6-4.5-2.3
		c-2.3-0.5-4.6-1.3-4.6-3.9c0-3.7,3.2-4.7,6.3-4.7c3.2,0,6.1,1.1,6.4,4.6h-3.8c-0.1-1.5-1.3-2-2.7-2c-0.9,0-2.2,0.2-2.2,1.4
		c0,1.4,2.3,1.6,4.5,2.2c2.3,0.5,4.6,1.4,4.6,4.1c0,3.8-3.3,5.1-6.6,5.1c-3.4,0-6.7-1.3-6.8-5.1H666.3z"/>
	<path id="XMLID_198_" class="black-doc st9" d="M502.6,235c0,1.7,1.5,2.4,3.1,2.4c1.2,0,2.6-0.5,2.6-1.9c0-1.2-1.7-1.6-4.5-2.3
		c-2.3-0.5-4.6-1.3-4.6-3.9c0-3.7,3.2-4.7,6.3-4.7c3.2,0,6.1,1.1,6.4,4.6h-3.8c-0.1-1.5-1.3-2-2.7-2c-0.9,0-2.2,0.2-2.2,1.4
		c0,1.4,2.3,1.6,4.5,2.2c2.3,0.5,4.6,1.4,4.6,4.1c0,3.8-3.3,5.1-6.6,5.1c-3.4,0-6.7-1.3-6.8-5.1H502.6z"/>
	<path id="XMLID_200_" class="black-doc st9" d="M519.7,225.1h2.9v2.7h-2.9v7.2c0,1.4,0.3,1.7,1.7,1.7c0.4,0,0.8,0,1.2-0.1v3.1
		c-0.7,0.1-1.5,0.1-2.3,0.1c-2.4,0-4.6-0.6-4.6-3.5v-8.6h-2.4v-2.7h2.4v-4.4h4V225.1z"/>
	<path id="XMLID_202_" class="black-doc st9" d="M538.2,239.7h-3.8v-2h-0.1c-1,1.6-2.8,2.4-4.4,2.4c-4.3,0-5.3-2.4-5.3-6v-9h4v8.2
		c0,2.4,0.7,3.6,2.6,3.6c2.2,0,3.1-1.2,3.1-4.2v-7.6h4V239.7z"/>
	<path id="XMLID_204_" class="black-doc st9" d="M551.7,237.8L551.7,237.8c-1,1.6-2.6,2.3-4.5,2.3c-4.4,0-6.5-3.8-6.5-7.8
		c0-3.9,2.2-7.5,6.4-7.5c1.7,0,3.4,0.7,4.3,2.2h0.1v-7.3h4v20.1h-3.8V237.8z M548.2,227.8c-2.6,0-3.5,2.3-3.5,4.6
		c0,2.3,1,4.7,3.5,4.7c2.6,0,3.4-2.3,3.4-4.7C551.6,230,550.8,227.8,548.2,227.8z"/>
	<path id="XMLID_207_" class="black-doc st9" d="M565.7,241.5c-0.9,2.3-2.3,3.3-5,3.3c-0.8,0-1.6-0.1-2.4-0.1v-3.3c0.8,0.1,1.5,0.2,2.3,0.1
		c1.4-0.1,1.8-1.6,1.4-2.7l-5.1-13.7h4.3l3.3,10h0.1l3.2-10h4.1L565.7,241.5z"/>
	<path id="XMLID_209_" class="black-doc st9" d="M572.5,226.1c0.1-4,2.7-7,6.8-7c5.3,0,7,3.3,7,5.4c0,2.7-1.2,3.8-2.4,4.8
		c-1.2,0.9-2.5,1.6-2.8,3.3v1.1h-3.8v-1.3c0.2-2.5,1.3-3.5,2.4-4.4c1.1-0.9,2.1-1.5,2.1-3c0-1.7-0.9-2.5-2.4-2.5
		c-2,0-2.9,1.7-2.9,3.7H572.5z M577,235.4h4.4v4.3H577V235.4z"/>
</g>
<g id="XMLID_212_">
	<path id="XMLID_213_" class="black-doc st9" d="M506.9,316.7l-7.4-12.3h5l4.7,7.9l4.7-7.9h4.9l-7.5,12.4v7.7h-4.4V316.7z"/>
	<path id="XMLID_215_" class="black-doc st9" d="M520.7,318.3c0.1,2.5,1.4,3.7,3.6,3.7c1.6,0,2.9-1,3.2-1.9h3.5c-1.1,3.4-3.5,4.9-6.8,4.9
		c-4.6,0-7.4-3.2-7.4-7.7c0-4.4,3-7.7,7.4-7.7c5,0,7.3,4.2,7.1,8.6H520.7z M527.2,315.7c-0.4-2-1.2-3.1-3.2-3.1
		c-2.5,0-3.3,2-3.3,3.1H527.2z"/>
	<path id="XMLID_218_" class="black-doc st9" d="M536.7,319.8c0,1.7,1.5,2.4,3.1,2.4c1.2,0,2.6-0.5,2.6-1.9c0-1.2-1.7-1.6-4.5-2.3
		c-2.3-0.5-4.6-1.3-4.6-3.9c0-3.7,3.2-4.7,6.3-4.7c3.2,0,6.1,1.1,6.4,4.6h-3.8c-0.1-1.5-1.3-2-2.7-2c-0.9,0-2.2,0.2-2.2,1.4
		c0,1.4,2.3,1.6,4.5,2.2c2.3,0.5,4.6,1.4,4.6,4.1c0,3.8-3.3,5.1-6.6,5.1c-3.4,0-6.7-1.3-6.8-5.1H536.7z"/>
	<path id="XMLID_220_" class="black-doc st9" d="M548.9,320.2h4.4v4.3h-4.4V320.2z M553.2,309.9l-1.1,8.7h-2l-1.1-8.7v-5.4h4.2V309.9z"/>
	<path id="XMLID_223_" class="black-doc st9" d="M569.2,308.2h-6v-3.7h16.5v3.7h-6v16.4h-4.4V308.2z"/>
	<path id="XMLID_225_" class="black-doc st9" d="M581.5,304.5h4v7.6h0.1c1-1.6,2.8-2.4,4.3-2.4c4.3,0,5.3,2.4,5.3,6v9h-4v-8.2
		c0-2.4-0.7-3.6-2.6-3.6c-2.2,0-3.1,1.2-3.1,4.2v7.6h-4V304.5z"/>
	<path id="XMLID_227_" class="black-doc st9" d="M598.1,314.5c0.2-3.7,3.6-4.9,6.8-4.9c2.9,0,6.4,0.6,6.4,4.1v7.6c0,1.3,0.1,2.6,0.5,3.2h-4.1
		c-0.1-0.5-0.3-0.9-0.3-1.4c-1.3,1.3-3.1,1.8-4.9,1.8c-2.8,0-5-1.4-5-4.4c0-3.3,2.5-4.1,5-4.4c2.4-0.4,4.7-0.3,4.7-1.9
		c0-1.7-1.2-2-2.6-2c-1.5,0-2.5,0.6-2.6,2.2H598.1z M607.3,317.4c-0.7,0.6-2.1,0.6-3.3,0.8c-1.2,0.3-2.4,0.7-2.4,2.1
		c0,1.5,1.2,1.9,2.4,1.9c3.1,0,3.2-2.5,3.2-3.4V317.4z"/>
	<path id="XMLID_230_" class="black-doc st9" d="M614.4,310h3.8v2h0.1c1-1.6,2.8-2.4,4.4-2.4c4.3,0,5.3,2.4,5.3,6v9h-4v-8.2
		c0-2.4-0.7-3.6-2.6-3.6c-2.2,0-3.1,1.2-3.1,4.2v7.6h-4V310z"/>
	<path id="XMLID_232_" class="black-doc st9" d="M631.5,304.5h4v10.8l5-5.2h4.7l-5.5,5.3l6.1,9.2H641l-4-6.5l-1.5,1.5v5h-4V304.5z"/>
	<path id="XMLID_234_" class="black-doc st9" d="M662.3,326.4c-0.9,2.3-2.3,3.3-5,3.3c-0.8,0-1.6-0.1-2.4-0.1v-3.3c0.8,0.1,1.5,0.2,2.3,0.1
		c1.4-0.1,1.8-1.6,1.4-2.7l-5.1-13.7h4.3l3.3,10h0.1l3.2-10h4.1L662.3,326.4z"/>
	<path id="XMLID_236_" class="black-doc st9" d="M676.8,309.6c4.6,0,7.5,3,7.5,7.7c0,4.6-3,7.7-7.5,7.7c-4.6,0-7.5-3-7.5-7.7
		C669.2,312.7,672.2,309.6,676.8,309.6z M676.8,321.9c2.7,0,3.5-2.3,3.5-4.6c0-2.3-0.8-4.7-3.5-4.7c-2.7,0-3.5,2.3-3.5,4.7
		C673.2,319.6,674.1,321.9,676.8,321.9z"/>
	<path id="XMLID_239_" class="black-doc st9" d="M700.5,324.6h-3.8v-2h-0.1c-1,1.6-2.8,2.4-4.4,2.4c-4.3,0-5.3-2.4-5.3-6v-9h4v8.2
		c0,2.4,0.7,3.6,2.6,3.6c2.2,0,3.1-1.2,3.1-4.2V310h4V324.6z"/>
	<path id="XMLID_241_" class="black-doc st9" d="M703.8,320.2h4.4v4.3h-4.4V320.2z M708.1,309.9l-1.1,8.7h-2l-1.1-8.7v-5.4h4.2V309.9z"/>
</g>
</svg>
