<svg xmlns="http://www.w3.org/2000/svg" viewBox="0 0 383.7 56.1" enable-background="new 0 0 383.7 56.1"><style type="text/css">.st0{fill:#949CA1;} .st1{fill:#F78E1E;} .st2{fill:#00AFEF;}</style><path d="M44.9 25.1H13c-4.5 0-6.5-5-6.5-9.7 0-4.6 2-9.5 6.4-9.5h38.8c1.6 0 2.9-1.3 2.9-2.9 0-1.6-1.3-2.9-2.9-2.9H12.8c-3.8 0-7.1 1.8-9.3 5C1.7 8 .7 11.6.7 15.5c0 7.7 4.3 15.4 12.4 15.4h31.5c4.6 0 6.6 5 6.6 9.7 0 4.5-2 9.2-6.4 9.2H4.3c-1.6 0-2.8 1.3-2.8 2.9 0 1.6 1.3 2.9 2.8 2.9h40.4c3.8 0 7.1-1.8 9.4-5C56 47.9 57 44.2 57 40.3c-.1-7.5-4.2-15.2-12.1-15.2zM99.2.2H49.9C48.3.2 47 1.5 47 3.1 47 4.7 48.3 6 49.9 6h21.8c0 5.8 0 14.2 0 22.5 0 9.4 0 18.7 0 24.5 0 1.6 1.3 2.8 2.9 2.8 1.6 0 2.9-1.3 2.9-2.8V6h21.7c1.6 0 2.9-1.3 2.9-2.9 0-1.6-1.3-2.9-2.9-2.9zM148.7.2c-1.6 0-2.9 1.3-2.9 2.9v40.2c0 3.3-3.2 6.5-6.6 6.5h-30.5c-3.3 0-6.6-3.2-6.6-6.5V3.1c0-1.6-1.3-2.9-2.9-2.9-1.6 0-2.9 1.3-2.9 2.9v40.2c0 6.4 5.9 12.3 12.3 12.3h30.6c6.5 0 12.3-5.8 12.3-12.3V3.1c.1-1.6-1.2-2.9-2.8-2.9zM197.9.2h-39c-2.2 0-3.9 1.7-3.9 4v47.5c0 2.2 1.7 4 3.9 4h39c6.5 0 12.4-5.9 12.4-12.3V12.6c.1-6.4-6-12.4-12.4-12.4zm.1 49.6c-6.6 0-13.1 0-19.6 0-5.8 0-11.7 0-17.6 0V6h37.1c3.3 0 6.6 3.3 6.6 6.7v30.6c0 3.3-3.2 6.5-6.5 6.5z" class="st0"/><path d="M323.7 50h-21.3V6.1h21.3c1.6 0 2.9-1.3 2.9-2.9 0-1.6-1.3-2.9-2.9-2.9h-48.2c-.9 0-1.6.3-2.2 1-.5.5-.7 1.2-.7 2 0 1.6 1.2 2.9 2.8 2.9h21.3V50h-21.3c-1.6 0-2.8 1.3-2.8 2.9 0 .7.3 1.4.7 2 .5.6 1.3 1 2.2 1h48.2c1.6 0 2.9-1.3 2.9-2.9 0-1.7-1.2-3-2.9-3z" class="st1"/><path d="M268.3 50.8l-25.6-24.7 21-21.1c.8-.8 1.1-2.1.6-3.1-.3-1.2-1.4-1.9-2.6-1.9-.8 0-1.5.3-2 .9l-22.5 22.7L214.7.9c-.6-.6-1.3-.9-2-.9-1.2 0-2.3.7-2.7 1.8-.4 1.1-.2 2.3.6 3.1l23.7 23.9v24c0 1.6 1.3 2.8 2.9 2.8 1.6 0 2.9-1.3 2.9-2.8V31.4L264.3 55c.6.5 1.3.8 2 .8 1.2 0 2.2-.7 2.7-1.8s.2-2.3-.7-3.2z" class="st2"/><path d="M382.8 51.1l-25.6-24.7 25.4-21c.9-.8 1.3-2 .8-3.1-.4-1.2-1.5-2-2.8-2-.7 0-1.3.2-1.9.7l-43.9 36.3V3.2c0-1.7-1.3-3-2.9-3-1.6 0-2.9 1.3-2.9 3V53c0 1.7 1.3 3 2.9 3 1.6 0 2.9-1.3 2.9-3v-8.3L352.7 30l26 25.2c.6.5 1.3.8 2 .8 1.2 0 2.2-.7 2.7-1.8.6-1 .3-2.2-.6-3.1z" class="st1"/></svg>