<?xml version="1.0" encoding="utf-8"?>
<!-- Generator: Adobe Illustrator 19.0.0, SVG Export Plug-In . SVG Version: 6.00 Build 0)  -->
<svg version="1.1" id="Layer_1" xmlns="http://www.w3.org/2000/svg" xmlns:xlink="http://www.w3.org/1999/xlink" x="0px" y="0px"
	 viewBox="0 0 60.7 55.8" style="enable-background:new 0 0 60.7 55.8;" xml:space="preserve">
<style type="text/css">
	.st0{fill:#29ADE3;}
</style>
<path class="st0" d="M58.5,50.8L32.9,26.1L53.9,5c0.8-0.8,1.1-2.1,0.6-3.1C54.2,0.7,53.1,0,51.9,0c-0.8,0-1.5,0.3-2,0.9L27.4,23.6
	L4.9,0.9C4.3,0.3,3.6,0,2.9,0C1.7,0,0.6,0.7,0.2,1.8S0,4.1,0.8,4.9l23.7,23.9v24c0,1.6,1.3,2.8,2.9,2.8c1.6,0,2.9-1.3,2.9-2.8V31.4
	L54.5,55c0.6,0.5,1.3,0.8,2,0.8c1.2,0,2.2-0.7,2.7-1.8S59.4,51.7,58.5,50.8z"/>
</svg>
