<?xml version="1.0" encoding="utf-8"?>
<!-- Generator: Adobe Illustrator 19.0.0, SVG Export Plug-In . SVG Version: 6.00 Build 0)  -->
<svg version="1.1" id="Layer_1" xmlns="http://www.w3.org/2000/svg" xmlns:xlink="http://www.w3.org/1999/xlink" x="0px" y="0px"
	 viewBox="0 0 336.9 52.9" style="enable-background:new 0 0 336.9 52.9;" xml:space="preserve">
<style type="text/css">
	.st0{fill:#7D868C;}
	.st1{fill:#FFFFFF;}
	.st2{fill:#FF5000;}
	.st3{fill:#00AFEF;}
</style>
<g>
	<g>
		<path id="XMLID_36_" class="st0" d="M66.3,51.7c-2,0-3.5-1.5-3.5-3.5c0-5,0-13.2,0-21.3c0-6.8,0-13.6,0-18.6H12.6
			C9.5,8.4,8,12.1,8,15.6c0,3.6,1.5,7.4,4.7,7.4h27.7c7.5,0,11.5,7.1,11.5,14.2c0,3.6-1,7-2.7,9.5c-2.1,3.1-5.3,4.8-9,4.8H5.2
			c-1.9,0-3.5-1.5-3.5-3.5c0-2,1.5-3.5,3.5-3.5h35.1c3.1,0,4.5-3.7,4.6-7c0-3.6-1.5-7.4-4.8-7.4H12.8C5.1,30,1,22.8,1,15.6
			c0-3.6,1-6.9,2.7-9.5C5.8,3,9,1.3,12.6,1.3h75.1c2,0,3.5,1.5,3.5,3.5c0,2-1.5,3.5-3.5,3.5H69.8v39.9
			C69.8,50.2,68.3,51.7,66.3,51.7z"/>
		<path id="XMLID_32_" class="st1" d="M87.7,2.3c1.4,0,2.5,1.1,2.5,2.5c0,1.4-1.1,2.5-2.5,2.5H68.8v40.9c0,1.4-1.1,2.5-2.5,2.5
			c-1.4,0-2.5-1.1-2.5-2.5c0-5,0-13.2,0-21.3c0-7.3,0-14.5,0-19.6H46.3h-1.5H12.6C8.8,7.4,7,11.6,7,15.6c0,4.1,1.8,8.4,5.7,8.4h27.7
			c6.9,0,10.5,6.6,10.5,13.2c0,3.4-0.9,6.5-2.5,8.9c-1.9,2.8-4.8,4.4-8.1,4.4H5.2c-1.4,0-2.5-1.1-2.5-2.5c0-1.4,1.1-2.5,2.5-2.5
			h35.1c3.8,0,5.5-4.2,5.6-8c0-4-1.8-8.4-5.8-8.4H12.8C5.7,29,2,22.3,2,15.6c0-3.4,0.9-6.5,2.5-8.9c1.9-2.8,4.8-4.4,8.1-4.4h32.3
			h1.5H87.7 M87.7,0.3H46.3h-1.5H12.6c-4,0-7.4,1.9-9.7,5.2C1,8.3,0,11.9,0,15.6C0,23.3,4.4,31,12.8,31h27.3c2.8,0,3.8,3.8,3.8,6.4
			c0,2.4-1,6-3.6,6H5.2c-2.5,0-4.5,2-4.5,4.5c0,2.5,2,4.5,4.5,4.5h35.1c4,0,7.5-1.9,9.8-5.2c1.9-2.7,2.9-6.3,2.9-10.1
			c0-7.6-4.3-15.2-12.5-15.2H12.7C10,22,9,18.2,9,15.6c0-2.5,0.9-6.2,3.6-6.2h32.3h1.5h15.5c0,4.9,0,11.2,0,17.6
			c0,8.1,0,16.3,0,21.3c0,2.5,2,4.5,4.5,4.5c2.5,0,4.5-2,4.5-4.5V9.4h16.9c2.5,0,4.5-2,4.5-4.5C92.2,2.3,90.2,0.3,87.7,0.3L87.7,0.3
			z"/>
	</g>
	<g>
		<path id="XMLID_30_" class="st0" d="M95.9,51.5c-6.1,0-11.7-5.6-11.7-11.7v-35c0-2,1.5-3.5,3.5-3.5c2,0,3.5,1.5,3.5,3.5v35
			c0,2.3,2.4,4.6,4.8,4.6h26.5c2.4,0,4.7-2.3,4.7-4.6v-35c0-2,1.5-3.5,3.5-3.5c2,0,3.5,1.5,3.5,3.5v35c0,6.1-5.6,11.7-11.7,11.7
			H95.9z"/>
		<path id="XMLID_27_" class="st1" d="M130.7,2.3c1.4,0,2.5,1.1,2.5,2.5v35c0,5.6-5.1,10.7-10.7,10.7H95.9
			c-5.6,0-10.7-5.1-10.7-10.7v-35c0-1.4,1.1-2.5,2.5-2.5c1.4,0,2.5,1.1,2.5,2.5v35c0,2.8,2.9,5.6,5.8,5.6h26.5
			c2.9,0,5.7-2.7,5.7-5.6v-35C128.2,3.4,129.3,2.3,130.7,2.3 M130.7,0.3c-2.5,0-4.5,2-4.5,4.5v35c0,1.8-1.9,3.6-3.7,3.6H96
			c-1.8,0-3.8-1.9-3.8-3.6v-35c0-2.5-2-4.5-4.5-4.5c-2.5,0-4.5,2-4.5,4.5v35c0,6.6,6.1,12.7,12.7,12.7h26.6c6.7,0,12.7-6,12.7-12.7
			v-35C135.2,2.3,133.2,0.3,130.7,0.3L130.7,0.3z"/>
	</g>
	<g>
		<path id="XMLID_46_" class="st0" d="M139.6,51.5c-2.5,0-4.4-1.9-4.4-4.4V5.8c0-2.5,1.9-4.4,4.4-4.4h33.9c6.1,0,11.8,5.7,11.8,11.8
			v26.6c0,6.1-5.6,11.7-11.8,11.7H139.6z M142.3,44.5c4.1,0,8.2,0,12.3,0l2,0c5.6,0,11.3,0,17,0c2.4,0,4.7-2.3,4.7-4.6V13.2
			c0-2.4-2.4-4.8-4.8-4.8h-31.2V44.5z"/>
		<path id="XMLID_41_" class="st1" d="M173.5,2.3c5.6,0,10.8,5.2,10.8,10.8v26.6c0,5.6-5.1,10.7-10.8,10.7h-33.9
			c-1.9,0-3.4-1.5-3.4-3.4V5.8c0-1.9,1.5-3.4,3.4-3.4H173.5 M141.3,45.5c5.2,0,10.2,0,15.3,0c5.6,0,11.3,0,17,0
			c2.9,0,5.7-2.7,5.7-5.6V13.2c0-2.9-2.9-5.8-5.8-5.8h-32.2V27V45.5 M173.5,0.3h-33.9c-3,0-5.4,2.4-5.4,5.4v41.3
			c0,3,2.4,5.4,5.4,5.4h33.9c6.7,0,12.8-6.1,12.8-12.7V13.1C186.3,6.4,180.2,0.3,173.5,0.3L173.5,0.3z M143.3,9.4h30.2
			c1.8,0,3.8,2,3.8,3.8v26.6c0,1.8-1.9,3.6-3.7,3.6c-5.8,0-11.4,0-17,0l-1.6,0c-3.9,0-7.7,0-11.7,0V27V9.4L143.3,9.4z"/>
	</g>
	<g>
		<path id="XMLID_25_" class="st2" d="M241,51.6c-1,0-2-0.4-2.6-1.2c-0.6-0.6-0.9-1.5-0.9-2.4c0-2,1.5-3.5,3.5-3.5h17.5V8.5h-17.5
			c-1.9,0-3.5-1.5-3.5-3.5c0-0.9,0.3-1.7,0.9-2.4c0.7-0.8,1.6-1.2,2.6-1.2h41.9c2,0,3.5,1.5,3.5,3.5c0,2-1.5,3.5-3.5,3.5h-17.5v36.1
			h17.5c2,0,3.5,1.5,3.5,3.5c0,2-1.5,3.5-3.5,3.5H241z"/>
		<path id="XMLID_22_" class="st1" d="M282.9,2.5c1.4,0,2.5,1.1,2.5,2.5c0,1.4-1.1,2.5-2.5,2.5h-18.5v38.1h18.5
			c1.4,0,2.5,1.1,2.5,2.5c0,1.4-1.1,2.5-2.5,2.5H241c-0.7,0-1.4-0.3-1.9-0.8c-0.4-0.5-0.6-1.1-0.6-1.7c0-1.4,1.1-2.5,2.5-2.5h18.5
			V7.5h-18.5c-1.4,0-2.5-1.1-2.5-2.5c0-0.6,0.2-1.2,0.6-1.7c0.5-0.5,1.1-0.8,1.9-0.8H282.9 M282.9,0.5H241c-1.3,0-2.5,0.5-3.4,1.5
			c-0.7,0.8-1.1,1.9-1.1,3c0,2.5,2,4.5,4.5,4.5h16.5v34.1h-16.5c-2.5,0-4.5,2-4.5,4.5c0,1.1,0.4,2.2,1.1,3c0.9,1,2.1,1.5,3.4,1.5
			h41.9c2.5,0,4.5-2,4.5-4.5c0-2.5-2-4.5-4.5-4.5h-16.5V9.5h16.5c2.5,0,4.5-2,4.5-4.5C287.4,2.4,285.4,0.5,282.9,0.5L282.9,0.5z"/>
	</g>
	<g>
		<path id="XMLID_20_" class="st3" d="M233,51.6c-0.9,0-1.8-0.3-2.5-1l-19.4-18.8v16.3c0,1.9-1.5,3.5-3.5,3.5c-2,0-3.5-1.5-3.5-3.5
			V27.7L183.8,7.2c-1-1-1.3-2.5-0.8-3.8c0.5-1.3,1.9-2.2,3.3-2.2c0.9,0,1.8,0.4,2.5,1l18.9,19l18.8-19c0.7-0.7,1.6-1.1,2.5-1.1
			c1.4,0,2.7,0.9,3.3,2.2c0.5,1.3,0.3,2.8-0.8,3.8l-17.5,17.7l21.5,20.7c1.1,1.1,1.4,2.6,0.9,3.9C235.7,50.8,234.4,51.6,233,51.6z"
			/>
		<path id="XMLID_17_" class="st1" d="M229,2.2c1,0,2,0.6,2.4,1.6c0.4,0.9,0.2,2-0.6,2.7l-18.3,18.4l22.2,21.4
			c0.8,0.8,1,1.8,0.6,2.8c-0.4,0.9-1.3,1.6-2.3,1.6c-0.6,0-1.3-0.3-1.8-0.7l-21.1-20.4v18.7c0,1.4-1.1,2.5-2.5,2.5
			c-1.4,0-2.5-1.1-2.5-2.5V27.2L184.5,6.5c-0.7-0.7-0.9-1.8-0.6-2.7c0.4-1,1.3-1.6,2.4-1.6c0.7,0,1.3,0.3,1.8,0.8l19.6,19.7
			l19.6-19.7C227.7,2.4,228.3,2.2,229,2.2 M229,0.2c-1.2,0-2.3,0.5-3.2,1.3l-18.1,18.3L189.5,1.5c-0.9-0.9-2-1.3-3.2-1.3
			c-1.8,0-3.5,1.1-4.2,2.8c-0.7,1.7-0.3,3.6,1,4.9l20,20.2v20.1c0,2.5,2,4.5,4.5,4.5c2.5,0,4.5-2,4.5-4.5V34.2l17.7,17.2
			c0.9,0.8,2,1.3,3.2,1.3c1.8,0,3.5-1.1,4.2-2.8c0.7-1.7,0.3-3.6-1.1-5l-20.8-20.1l16.8-16.9c1.3-1.3,1.7-3.2,1-4.9
			C232.5,1.3,230.8,0.2,229,0.2L229,0.2z"/>
	</g>
	<g>
		<path id="XMLID_15_" class="st2" d="M332.5,51.9c-0.9,0-1.8-0.3-2.5-1l-22-21.3l-14.5,11.9v6.7c0,2-1.5,3.6-3.5,3.6
			s-3.5-1.6-3.5-3.6V4.9c0-2,1.5-3.6,3.5-3.6s3.5,1.6,3.5,3.6v27.5l36.5-30.2c0.7-0.6,1.5-0.8,2.3-0.8c1.5,0,2.8,0.9,3.4,2.4
			c0.5,1.4,0.1,2.9-1,3.8l-21.3,17.6l21.5,20.7c1.1,1.1,1.4,2.6,0.9,3.9C335.2,51,333.9,51.9,332.5,51.9z"/>
		<path id="XMLID_12_" class="st1" d="M290,2.4c1.4,0,2.5,1.1,2.5,2.6v29.6L330.7,3c0.5-0.4,1.1-0.6,1.7-0.6c1.1,0,2,0.7,2.4,1.7
			c0.3,1,0.1,2-0.7,2.7L311.9,25l22.3,21.5c0.8,0.8,1,1.8,0.6,2.8c-0.4,0.9-1.3,1.6-2.3,1.6c-0.6,0-1.3-0.3-1.8-0.7l-22.6-21.9
			L292.6,41v7.2c0,1.4-1.1,2.6-2.5,2.6c-1.4,0-2.5-1.1-2.5-2.6V4.9C287.5,3.5,288.6,2.4,290,2.4 M290,0.4c-2.5,0-4.5,2-4.5,4.6v43.3
			c0,2.6,2,4.6,4.5,4.6c2.5,0,4.5-2,4.5-4.6V42l13.4-11l21.4,20.7c0.9,0.8,2,1.3,3.2,1.3c1.8,0,3.5-1.1,4.2-2.8
			c0.7-1.7,0.3-3.6-1.1-5l-20.7-20l20.4-16.8c1.5-1.2,2-3.1,1.3-4.9c-0.7-1.8-2.4-3-4.3-3c-1,0-2,0.4-2.9,1l-34.9,28.9V4.9
			C294.6,2.4,292.6,0.4,290,0.4L290,0.4z"/>
	</g>
</g>
</svg>
