<?xml version="1.0" encoding="utf-8"?>
<!-- Generator: Adobe Illustrator 19.0.0, SVG Export Plug-In . SVG Version: 6.00 Build 0)  -->
<svg version="1.1" id="Layer_1" xmlns="http://www.w3.org/2000/svg" xmlns:xlink="http://www.w3.org/1999/xlink" x="0px" y="0px"
	 viewBox="0 0 337.7 78.4" style="enable-background:new 0 0 337.7 78.4;" xml:space="preserve">
<style type="text/css">
	.st0{fill:#7D868C;}
	.st1{fill:#FF5000;}
	.st2{fill:#00AFEF;}
	.st3{fill:#9ECE68;}
	.st4{fill:#A1CF67;}
</style>
<g>
	<g>
		<path class="st0" d="M110.9,16.8H89.6c-3,0-4.4-3.4-4.4-6.5c0-3,1.3-6.3,4.3-6.3h25.9c1.1,0,1.9-0.8,1.9-1.9
			c0-1.1-0.9-1.9-1.9-1.9H89.5c-2.5,0-4.7,1.2-6.2,3.4c-1.2,1.8-1.9,4.3-1.9,6.9c0,5.1,2.8,10.3,8.3,10.3h21c3.1,0,4.4,3.4,4.4,6.5
			c0,3-1.3,6.2-4.3,6.2h-27c-1.1,0-1.9,0.8-1.9,1.9c0,1.1,0.8,1.9,1.9,1.9h26.9c2.5,0,4.8-1.2,6.3-3.4c1.3-1.8,1.9-4.3,1.9-6.9
			C118.9,21.9,116.2,16.8,110.9,16.8z"/>
		<path class="st0" d="M147.2,0.1h-32.9c-1.1,0-1.9,0.8-1.9,1.9c0,1.1,0.9,1.9,1.9,1.9h14.5c0,3.9,0,9.5,0,15.1c0,6.2,0,12.5,0,16.4
			c0,1.1,0.9,1.9,2,1.9c1.1,0,1.9-0.8,1.9-1.9V4h14.5c1.1,0,1.9-0.8,1.9-1.9C149.1,1,148.2,0.1,147.2,0.1z"/>
		<path class="st0" d="M180.2,0.1c-1.1,0-1.9,0.9-1.9,1.9v26.9c0,2.2-2.1,4.3-4.4,4.3h-20.4c-2.2,0-4.4-2.1-4.4-4.3V2.1
			c0-1.1-0.8-1.9-1.9-1.9c-1.1,0-1.9,0.9-1.9,1.9v26.9c0,4.3,3.9,8.2,8.2,8.2h20.4c4.3,0,8.2-3.9,8.2-8.2V2.1
			C182.1,1,181.3,0.1,180.2,0.1z"/>
		<path class="st0" d="M213.1,0.1h-26c-1.5,0-2.6,1.2-2.6,2.6v31.7c0,1.5,1.1,2.6,2.6,2.6h26.1c4.3,0,8.3-3.9,8.3-8.2V8.4
			C221.4,4.2,217.3,0.1,213.1,0.1z M213.1,33.2c-4.4,0-8.7,0-13.1,0c-3.9,0-7.8,0-11.7,0V19.1V4h24.8c2.2,0,4.4,2.2,4.4,4.5v20.4
			C217.5,31.1,215.4,33.2,213.1,33.2z"/>
		<path class="st1" d="M297.1,33.4h-14.2V4.1h14.2c1.1,0,1.9-0.8,1.9-1.9c0-1.1-0.8-1.9-1.9-1.9h-32.2c-0.6,0-1.1,0.2-1.5,0.6
			c-0.3,0.4-0.5,0.8-0.5,1.3c0,1.1,0.8,1.9,1.9,1.9H279v29.3h-14.2c-1.1,0-1.9,0.8-1.9,1.9c0,0.5,0.2,1,0.5,1.3
			c0.4,0.4,0.9,0.6,1.5,0.6h32.2c1.1,0,1.9-0.8,1.9-1.9C299,34.2,298.2,33.4,297.1,33.4z"/>
		<path class="st2" d="M260.1,33.9L243,17.4l14-14.1c0.6-0.6,0.7-1.4,0.4-2.1c-0.3-0.7-1-1.2-1.8-1.2c-0.5,0-1,0.2-1.4,0.6l-15,15.2
			l-15-15.2c-0.4-0.4-0.9-0.6-1.4-0.6c-0.8,0-1.5,0.5-1.8,1.2c-0.3,0.7-0.1,1.5,0.4,2.1l15.8,16v16.1c0,1.1,0.8,1.9,1.9,1.9
			c1.1,0,1.9-0.8,1.9-1.9V21l16.2,15.7c0.4,0.4,0.9,0.5,1.4,0.5c0.8,0,1.5-0.5,1.8-1.2C260.9,35.3,260.7,34.5,260.1,33.9z"/>
		<path class="st1" d="M336.5,34.1l-17.1-16.5l17-14c0.6-0.5,0.8-1.3,0.6-2.1c-0.3-0.8-1-1.3-1.9-1.3c-0.4,0-0.9,0.2-1.3,0.5
			l-29.3,24.2V2.1c0-1.1-0.8-2-1.9-2c-1.1,0-1.9,0.9-1.9,2v33.2c0,1.1,0.8,2,1.9,2c1.1,0,1.9-0.9,1.9-2v-5.5l11.9-9.8l17.4,16.8
			c0.4,0.4,0.9,0.5,1.4,0.5c0.8,0,1.5-0.5,1.8-1.2C337.3,35.5,337.1,34.7,336.5,34.1z"/>
	</g>
	<g>
		<path id="XMLID_14_" class="st0" d="M83.7,52h6c2.7,0,4.2,1.5,4.2,4c0,2.5-1.5,4.1-4.2,4h-4.2v5.6h-1.8V52z M85.6,58.5h3.6
			c2,0,3-0.9,3-2.5c0-1.6-0.9-2.5-3-2.5h-3.6V58.5z"/>
		<path id="XMLID_70_" class="st0" d="M98.6,52h2l5.3,13.7h-2l-1.5-4.1h-5.8l-1.5,4.1h-1.9L98.6,52z M97.3,60h4.6l-2.3-6.4h0
			L97.3,60z"/>
		<path id="XMLID_73_" class="st0" d="M108.9,53.5h-4.6V52h10.9v1.5h-4.6v12.1h-1.8V53.5z"/>
		<path id="XMLID_75_" class="st0" d="M117,52h1.8v13.7H117V52z"/>
		<path id="XMLID_77_" class="st0" d="M122.1,52h9.4v1.5h-7.6v4.3h7.1v1.5h-7.1v4.7h7.7v1.5h-9.5V52z"/>
		<path id="XMLID_79_" class="st0" d="M133.9,52h1.9l7.2,11.1h0V52h1.7v13.7h-2l-7.1-11h0v11h-1.7V52z"/>
		<path id="XMLID_81_" class="st0" d="M151.1,53.5h-4.6V52h10.9v1.5h-4.6v12.1h-1.8V53.5z"/>
		<path id="XMLID_83_" class="st0" d="M164.7,52h2.5l4.3,11.5l4.3-11.5h2.5v13.7h-1.7V54.3h0l-4.3,11.4h-1.5l-4.3-11.4h0v11.4h-1.7
			V52z"/>
		<path id="XMLID_85_" class="st0" d="M181.5,52h9.4v1.5h-7.6v4.3h7.1v1.5h-7.1v4.7h7.7v1.5h-9.5V52z"/>
		<path id="XMLID_87_" class="st0" d="M201.3,56c-0.2-2-1.5-2.8-3.4-2.8c-1.5,0-3.1,0.6-3.1,2.3c0,1.7,2.2,1.9,4.4,2.4
			c2.2,0.5,4.4,1.3,4.4,3.9c0,2.9-2.9,4.1-5.3,4.1c-3.1,0-5.6-1.5-5.6-4.8h1.7c0,2.3,1.9,3.3,4,3.3c1.6,0,3.5-0.5,3.5-2.5
			c0-1.9-2.2-2.2-4.4-2.7s-4.4-1.1-4.4-3.6c0-2.8,2.5-4,5-4c2.8,0,4.9,1.3,5,4.3H201.3z"/>
		<path id="XMLID_89_" class="st0" d="M213.9,56c-0.2-2-1.5-2.8-3.4-2.8c-1.5,0-3.1,0.6-3.1,2.3c0,1.7,2.2,1.9,4.4,2.4
			c2.2,0.5,4.4,1.3,4.4,3.9c0,2.9-2.9,4.1-5.3,4.1c-3.1,0-5.6-1.5-5.6-4.8h1.7c0,2.3,1.9,3.3,4,3.3c1.6,0,3.5-0.5,3.5-2.5
			c0-1.9-2.2-2.2-4.4-2.7s-4.4-1.1-4.4-3.6c0-2.8,2.5-4,5-4c2.8,0,4.9,1.3,5,4.3H213.9z"/>
		<path id="XMLID_91_" class="st0" d="M222.3,52h2l5.3,13.7h-2l-1.5-4.1h-5.8l-1.5,4.1h-1.9L222.3,52z M220.9,60h4.6l-2.3-6.4h0
			L220.9,60z"/>
		<path id="XMLID_94_" class="st0" d="M241.4,63.9c-1.1,1.4-2.8,2-4.4,2c-4.1,0-6.5-3.3-6.5-6.9c0-4,2.2-7.4,6.5-7.4
			c3,0,5.4,1.3,5.9,4.5h-1.8c-0.4-2.1-2-3-4.1-3c-3.3,0-4.7,2.9-4.7,5.8c0,2.9,1.6,5.5,4.7,5.5c2.8,0,4.5-2,4.4-4.5H237v-1.5h6v7.2
			h-1.1L241.4,63.9z"/>
		<path id="XMLID_96_" class="st0" d="M246,52h1.8v13.7H246V52z"/>
		<path id="XMLID_98_" class="st0" d="M251,52h1.9l7.2,11.1h0V52h1.7v13.7h-2l-7.1-11h0v11H251V52z"/>
		<path id="XMLID_100_" class="st0" d="M275.3,63.9c-1.1,1.4-2.8,2-4.4,2c-4.1,0-6.5-3.3-6.5-6.9c0-4,2.2-7.4,6.5-7.4
			c3,0,5.4,1.3,5.9,4.5h-1.8c-0.4-2.1-2-3-4.1-3c-3.3,0-4.7,2.9-4.7,5.8c0,2.9,1.6,5.5,4.7,5.5c2.8,0,4.5-2,4.4-4.5h-4.4v-1.5h6v7.2
			h-1.1L275.3,63.9z"/>
		<path id="XMLID_102_" class="st0" d="M293.2,56c-0.2-2-1.5-2.8-3.4-2.8c-1.5,0-3.1,0.6-3.1,2.3c0,1.7,2.2,1.9,4.4,2.4
			c2.2,0.5,4.4,1.3,4.4,3.9c0,2.9-2.9,4.1-5.3,4.1c-3.1,0-5.6-1.5-5.6-4.8h1.7c0,2.3,1.9,3.3,4,3.3c1.6,0,3.5-0.5,3.5-2.5
			c0-1.9-2.2-2.2-4.4-2.7s-4.4-1.1-4.4-3.6c0-2.8,2.5-4,5-4c2.8,0,4.9,1.3,5,4.3H293.2z"/>
		<path id="XMLID_104_" class="st0" d="M308.8,60.7c0,3.4-2,5.3-5.4,5.3c-3.5,0-5.6-1.6-5.6-5.3V52h1.8v8.7c0,2.4,1.4,3.7,3.8,3.7
			c2.3,0,3.6-1.3,3.6-3.7V52h1.8V60.7z"/>
		<path id="XMLID_106_" class="st0" d="M311.9,52h1.8v13.7h-1.8V52z"/>
		<path id="XMLID_108_" class="st0" d="M320.1,53.5h-4.6V52h10.9v1.5h-4.6v12.1h-1.8V53.5z"/>
		<path id="XMLID_110_" class="st0" d="M328.2,52h9.4v1.5H330v4.3h7.1v1.5H330v4.7h7.7v1.5h-9.5V52z"/>
	</g>
	<path class="st3" d="M336.2,46.1H83.3c-0.8,0-1.5-0.7-1.5-1.5c0-0.8,0.7-1.5,1.5-1.5h252.9c0.8,0,1.5,0.7,1.5,1.5
		C337.7,45.5,337.1,46.1,336.2,46.1z"/>
	<path class="st4" d="M65,0.7h-58C3.7,0.7,1,3.4,1,6.7v15.8c0-2,1.7-3.7,3.7-3.7h5.6h3.7v-2.3c0-2,1.7-3.7,3.7-3.7h36.4
		c2,0,3.7,1.7,3.7,3.7v32.8c0,2-1.7,3.7-3.7,3.7H17.8c-2,0-3.7-1.7-3.7-3.7v-9.9h12.9v6.2l20.6-12.7L26.9,20.1v6.2H14.1h-3.7H4.7
		c-2,0-3.7,1.7-3.7,3.7v1.9v0.9v2.8v3.7l0,0V59C1,62.3,3.7,65,6.9,65h18.5v13.5L48.6,65H65c3.3,0,5.9-2.6,5.9-5.9V6.7
		C70.9,3.4,68.2,0.7,65,0.7z"/>
</g>
</svg>
