<?xml version="1.0" encoding="utf-8"?>
<!-- Generator: Adobe Illustrator 19.0.0, SVG Export Plug-In . SVG Version: 6.00 Build 0)  -->
<svg version="1.1" id="Layer_1" xmlns="http://www.w3.org/2000/svg" xmlns:xlink="http://www.w3.org/1999/xlink" x="0px" y="0px"
	 viewBox="-218.9 377.4 33.5 33.5" style="enable-background:new -218.9 377.4 33.5 33.5;" xml:space="preserve">
<style type="text/css">
	.st0{fill:#00AFEF;}
</style>
<path class="st0 wifi-path2 wifi-path" d="M-201.6,393.6c-3.3-3.3-8.1-4.7-12.7-3.6c-1.3,0.3-2.2,1.7-1.8,3c0.3,1.3,1.7,2.2,3,1.8c2.9-0.7,5.9,0.1,8,2.2
	c2.1,2.1,2.9,5.1,2.2,8c-0.2,0.9,0.1,1.8,0.7,2.4c0.3,0.3,0.7,0.6,1.2,0.7c1.3,0.3,2.7-0.5,3-1.8
	C-196.9,401.7-198.2,396.9-201.6,393.6z"/>
<path class="st0 wifi-path3 wifi-path" d="M-185.6,404.4c0.9-7.4-1.6-14.6-6.9-19.9c-5.3-5.3-12.5-7.8-19.9-6.9c-1.4,0.2-2.3,1.4-2.2,2.8
	c0.2,1.4,1.4,2.3,2.8,2.2c5.9-0.7,11.6,1.3,15.8,5.4c4.2,4.2,6.1,9.9,5.4,15.8c-0.1,0.8,0.2,1.5,0.7,2.1c0.4,0.4,0.9,0.6,1.5,0.7
	C-187,406.7-185.8,405.8-185.6,404.4z"/>
<circle class="st0 wifi-path1 wifi-path" cx="-214.1" cy="406.1" r="4.8"/>
</svg>
